o 
v -117.17639160155835 156.93321025404487 -127.02955750970668
v -12.608689308161035 154.5839793601972 -166.98786745145856
v -113.39056396483976 153.8161664165604 -122.9998933708919
v -136.85467529296622 149.98852218983666 -79.26585224361004
v -63.883209228511255 149.8084344992576 -134.6393749688537
v -123.1633605957003 149.176216566682 -89.00158161548947
v -110.04522705077925 153.47235887574828 -63.824204809412656
v -81.99316406249731 161.00657353998076 -83.25010902218935
v -114.03927612304585 158.0840020599886 -34.103497519409146
v -66.73034667969252 232.56767907579228 153.5388206039857
v -33.73916625977195 201.16328070584254 189.36432822297306
v 4.845305442803609 197.9937751896701 192.8837064576963
v 11.004317283624026 167.42503503326262 186.73892093711345
v 42.14512634276724 167.503175669189 182.26224690308206
v 80.09348297118551 182.49740864644662 175.2455809641655
v 85.79570007323751 147.05763047146291 135.2314813606171
v 123.83299255370953 150.3685224882057 37.889833381577596
v 79.77647399902129 186.01958016562656 63.35386008484244
v 104.45607757568256 168.8234793176872 28.35224692895462
v 79.72912597656656 241.16615791185808 -116.65036970351409
v 132.19160461426017 240.61778140723072 -66.40916229838784
v 98.23212432861791 237.58664108577167 -133.99732037399932
v -123.75912475585464 175.99521959824875 -143.13646652444157
v -79.23971557616638 168.30504508543902 -166.50540843295082
v -75.35028076171355 159.28687435604547 -158.51012075256673
v -133.05319213866832 156.63933070103747 -110.19320919384552
v -121.34631347655878 153.67848118761088 -115.11191188724835
v -125.1209411621058 153.60621824926557 -110.97197092211931
v -140.36920166015565 148.17401136065155 -22.178597573852553
v -130.45657348632906 149.4913815391665 23.620289996777984
v -143.40020751952815 156.3959803332234 -96.25167595894591
v -140.10806274413736 156.47910482209295 -101.01387473685719
v -25.483535766606234 236.89607201497765 143.66669091142558
v -129.64978027343932 238.10575583736937 58.679947718672636
v -46.340805053715656 236.7631349340126 145.0053339986271
v -25.596862792974633 223.15448639806735 178.48069246442722
v -7.561539649969319 223.12531987336885 180.1516415453041
v 4.51592922210099 223.12354896115556 180.25309703805337
v -26.59721374512207 236.6774957498002 149.91159957624254
v 75.45656585693601 176.22937794182707 -73.9038712658953
v 97.93063354492391 160.66230540954606 -63.52700103891952
v 79.33182525634997 210.20277301219235 -67.31273463404276
v 14.254515647893475 241.5848313402678 -153.1612807988109
v 63.5146179199276 229.19477529093805 -167.56722644685092
v 4.710555076605474 219.49648142426872 -187.0033612462582
v 21.129272460933944 218.34880615149962 108.52155026930406
v -69.87133789062823 229.57738340165335 99.91893401454419
v 19.41912841796372 236.2201438589384 154.18145916756657
v -6.506501197820005 236.20112932151727 155.27080128685216
v 93.79740905761187 216.12877467306825 160.82450397580638
v 76.41188812255305 218.58903634682412 167.81271966876398
v 103.10845947265075 185.85067501291266 163.35612571787695
v 52.7126617431583 220.91820796029955 174.6502786316941
v 137.00935363769682 148.36228539948686 -48.64859488028641
v 111.4196014404318 152.20223377841825 -67.16341607658688
v -34.72750854491767 236.67539483839832 -121.27080698862153
v -21.12092590331526 242.00668335624965 -145.97930166654552
v -40.60169982909665 241.93421816108847 -141.8277734161925
v -190.6564941406245 179.67707160844822 -16.294706299282332
v -187.63174438476426 183.1783263196149 -41.82563758058391
v -152.2915039062474 156.13569378653983 -81.33986968643777
v -185.0388183593732 186.50689783380778 -54.45790073866009
v -176.68966674804423 193.24791955354365 -78.91413077280988
v 153.17585754394258 228.9111215220662 85.11666057021222
v 114.44486236571781 216.37340182864264 146.8098236191049
v -157.56930541992173 148.75729643059552 -8.728975737879622
v -131.41525268554952 146.32117439903965 74.56367462294104
v -143.84689331054858 146.8070133794916 46.72997807412343
v -76.45721435547226 150.60415536842768 100.49506407418936
v 151.32637023925437 219.6840293163988 105.08061445586641
v 143.9605102539025 219.51079149352825 115.00540268111774
v 158.9763641357385 186.78558976832815 109.79489525208324
v 177.35929870605213 184.23825676212928 75.51245921170954
v 188.9173431396471 184.88484983270993 38.469167007427856
v 185.89808654784983 184.66495952457748 51.06667432331147
v 166.3702850341792 151.48649426745425 10.466934663606025
v 111.65014648437747 150.34558380004336 -77.94680532110401
v 89.97317504883029 165.33127783979958 -67.27651638091874
v -0.8746650814975919 185.78840161733862 -102.64918196973764
v 16.397262573245644 207.7793975312206 -101.71643124242277
v -78.13140869140241 239.85575160137876 -110.21855501653347
v -77.77185058593338 241.18924807724486 -117.97320439254645
v -164.35726928710704 229.57293630574443 -66.24328409954578
v -144.28790283202744 225.89232701110686 -110.31681093585561
v -173.22381591796739 229.0769156452767 -37.82627949328318
v -188.0735168457043 206.9064433371785 35.394578215503905
v -38.806549072269796 150.26306755665613 120.035971723296
v -90.10852050781412 186.29431895378644 47.61408545270707
v -38.48245239258142 176.2031075546904 96.58927329274411
v 42.56777954101247 182.37226721913308 93.06102662896834
v -21.742218017581504 207.24391065001868 102.2003765656011
v -128.75433349609742 149.83206385495802 105.24918951632283
v -132.2424011230504 149.9085875015674 100.86515273822579
v -105.33203125000419 147.3102854517184 120.75688723598957
v 89.13043975829734 236.76721825634405 107.21154025890408
v 79.12007141112873 237.25538434150204 126.22243658459445
v 151.38606262207026 239.19143708180957 5.8879971234181845
v 104.82968902587537 237.37197228935747 110.1250652715235
v 143.34428405761486 236.21322542261944 73.650281937124
v 155.9275512695287 229.0017666623364 79.92360396211731
v 160.89991760253687 229.18764054302935 69.27489646905629
v 171.03990173339994 159.33324000451853 -47.72224302270097
v 169.4197692871125 196.67676683255033 -93.40160825932982
v 158.1405944824245 159.91435139901776 -81.0140925167571
v 125.3201370239295 155.10272681265485 -114.94373447140433
v 107.24535369873362 149.2336027027858 -98.5663297544949
v 149.95175170898253 236.47145078726837 58.85656070429643
v 27.281890869144494 157.67123900242515 -118.92304287341084
v 67.66799163818636 213.38226578703282 -80.47742004524055
v 96.57139587402894 182.27915104990598 -165.36773766063007
v 141.74682617187818 156.4377839809537 -98.64660533348254
v 117.364990234379 155.245106956239 -123.10068743432097
v -115.12268066406017 238.15232693310514 -65.25908312039562
v -75.38021850585508 241.55453461860574 -123.21645290874791
v -85.3663330078167 145.35545376906228 120.4717202065501
v -52.41127014160611 145.49790399386657 131.13549078903787
v -45.84445190430129 146.76864804300024 126.97570695561093
v -141.81668090820068 239.50477401434983 -68.33596965127629
v -152.7870178222642 238.9847933110906 -38.54629511281915
v -173.93948364258097 190.39117757647915 84.74850748219484
v -181.66705322265824 206.47219009743966 60.27292965817446
v -170.99291992187804 190.29004224464435 90.54254676252505
v -157.31317138672253 189.9044568681568 112.63271818687596
v -144.20803833008122 151.55049474838188 88.56350419439026
v -116.48693847656766 195.52160662166955 154.29510263696386
v -36.48197937012303 153.5452352944489 170.42816078396518
v -75.35028076172415 153.7757670540163 157.2210051236825
v -55.559341430668454 146.07136875173802 126.43489093199429
v -9.812134742732587 153.30050666382434 -130.08342754158747
v -59.350418090824995 145.10005054609445 135.10376105074627
v 37.354782104487356 145.0794861774489 139.4228465917714
v 8.329680442805179 145.3272642190488 140.91143694101962
v 141.12934875488406 239.98007715363815 -33.015845151524125
v 119.7420883178698 233.81616186692088 42.534540240700004
v 41.39356994629416 152.1436874186054 -156.14852599302577
v -43.43249511718308 150.15989084595014 -135.94955708993643
v -126.70153808593717 234.65761522400877 -5.6722903009015875
v -120.01776123046926 230.99084008043127 18.94205512062472
v -126.58087158203614 195.66417916887386 146.12712687803042
v -83.24444580078709 195.16909283103755 174.4906041765791
v -71.42431640625604 191.90743433911854 179.8332672937488
v -46.68354797363912 188.5937401607481 187.7236280630997
v 55.73672485351055 146.04302711229806 146.7714093628958
v -101.78649902344264 216.21481118074323 155.89547575229307
v 171.03990173340011 229.2283547371626 -46.50221925687745
v 128.19770812988634 238.24268459608385 -101.22750764242979
v 55.86691284180305 188.77979428769657 -184.67205137267575
v 79.46247863770111 182.43414554765158 -174.24736648945304
v 17.42179870606095 176.7866615705594 -188.47814675111323
v -31.149246215814546 161.55933058285595 -175.25488684221614
v 25.545227050786462 152.20264068673086 -159.52595646193856
v 11.091032981878838 176.79503012940177 -188.9575811660959
v 4.747756004339783 176.79968243562217 -189.22411161095667
v -99.91281127929626 190.61125645087108 -18.726914303682104
v -56.1535034179659 185.49630136507614 -85.91476972527656
v -67.9113464355412 168.39135082503023 -171.449860942648
v -62.128967285150516 168.4294741709889 -173.63394596985728
v -87.47943115233998 149.54851217120455 -116.6074811173373
v -97.77380371093432 150.01260099059135 -99.35815280981816
v -98.77792358398136 150.62375256554273 -93.88308322340697
v -96.50613403320838 216.15667413005144 159.22614515575066
v -85.62463378906797 216.04984897711157 165.34615406887391
v 60.66288757323718 146.07716657153338 144.8155610532088
v 159.17987060546696 150.81518217506112 48.92637867907533
v -98.74438476562928 234.180911289473 131.4713292461854
v -94.29660034180125 234.1243134677425 134.7138162815093
v 99.98989868164271 228.39363729877394 -59.0184187044712
v 102.43181610107436 202.9774654249527 -3.2778139968375166
v 37.01092529297508 188.86158300278245 -189.3577237217715
v -107.862823486326 153.53624726344302 -67.48436808909511
v 92.62470245361536 221.27392837516945 -59.058589690033585
v -40.07608032225929 207.74566979442412 -187.74049010059443
v 129.64645385742162 150.96675370217503 3.6171900869508047
v 36.54023742675333 236.72183015166965 137.9649971522064
v 160.75837707519372 150.9090048378168 43.55128192970527
v 163.36935424804565 151.09916086413222 32.657250478237884
v 165.90020751953057 151.38905549849378 16.049197998700716
v 47.58630371094077 216.50080074146177 -95.20596090561733
v -122.79272460937018 218.69830093125964 -141.27563142732782
v -97.37130737304145 219.0217824136976 -159.8078731444626
v 57.661773681636504 236.4207495344703 127.06072004131423
v 43.88407897948744 236.74990715183836 145.76315313183645
v 37.23828125000336 213.69285835734078 -98.27125648097885
v -191.95294189453097 182.620582993897 -9.872543850390274
v -191.9529418945316 182.28263781897195 9.488322254364817
v -89.33190917969064 150.79885398429707 89.34078784147177
v 147.72683715819954 219.59633001536216 110.10490404730143
v 154.7550659179655 219.7737882016546 99.9383313635412
v 158.00906372070006 219.86550760656667 94.68373017533371
v 190.8719482421871 207.29576548822993 13.090327119704416
v 187.51354980468597 184.7744618174391 44.79329216678943
v -62.53875732421546 226.79454223828054 -94.9499163679662
v 189.34559631347787 198.88880459046214 -38.61153979838238
v -114.51358032226892 145.82707032717244 93.45282568799342
v -127.5366210937466 239.19560762940708 -97.2102802579579
v -182.48922729492392 181.39908442769462 60.10706213936864
v -121.3555908203167 152.59212827370467 121.6708625799655
v -125.12094116211318 149.7576290858525 109.51355458237143
v -90.85614013672387 153.92206197880213 148.83977449593024
v 167.48977661132625 227.38505562170653 59.1003163416149
v 121.41110229492574 155.17508309005746 -119.08902282754241
v 87.39969635010219 152.87252072373525 -139.2927695242536
v 125.12846374512193 218.6619548887755 -139.19336804802074
v 147.27749633789483 194.0608429573031 -125.4864813829843
v -179.54766845703344 206.36627996019376 66.34051735729972
v 77.88619995116954 210.73250243709927 71.32742060304297
v -109.12728881835748 232.23828925134202 -52.52426001717668
v -132.5313720703114 238.43162451075986 -28.630368637642864
v -143.49676513671938 239.00825409111235 22.659860812508466
v 62.035491943365486 188.74521409767732 -182.6909536132892
v 49.635269165045294 188.810738382173 -186.444837357928
v -144.208038330081 232.25005496957291 89.97212025772976
v -24.91050720215435 153.50923704314607 172.4904992198764
v 68.51470184325767 146.95358986463324 116.38039709031614
v 133.48670959472454 146.53325024957644 56.13675867939274
v 124.69901275635134 238.31684880175948 -105.47637213996218
v 117.28337860107817 238.45881657578542 -113.60970046671014
v 29.78262329100935 167.46096564370788 184.68045764333232
v -100.59561157226314 153.71973866802833 -77.9965836173624
v -20.958328247076697 201.13120988511432 191.20166431195793
v -129.29846191405878 156.71625140480623 -114.59999336136917
v 108.54160308837352 185.91274482023078 159.8001488381919
v 128.69775390624514 183.05267670624858 143.43429512331662
v 143.89662170409812 154.79530478296607 98.8117277510057
v 99.13301849364714 216.18535598403824 157.58296284131742
v 113.85219573974084 185.9779644545652 156.06371848959952
v 171.8783111572236 184.0333715396462 87.25032574647608
v 162.5783691406215 186.8798864496913 104.39264199487972
v 165.9968566894498 186.97624165006326 98.87245626264631
v 176.92834472656116 223.21744040867443 42.927339884080624
v 166.1850280761752 196.77518348125957 -99.03989428770916
v 162.76268005371446 196.8716478656928 -104.56633517062357
v -47.88882446289637 153.594712184964 167.59363162474705
v 165.43003845215068 229.52458840505204 -63.47343472400249
v 157.39906311035458 227.7749988855698 -86.22829065906033
v 90.96897888184155 182.33415105610572 -168.5186859055039
v -111.28210449219067 237.73315621764237 98.85090413228839
v -52.965408325201565 188.6229519568866 186.05008538316045
v -64.57806396483839 159.36894322145432 -163.2118429029204
v -103.24066162109618 152.69359266104192 68.11635054540974
v -148.38729858398304 148.77969658954362 -44.35293607435052
v -147.3032226562507 147.16860799739797 16.596184034559325
v 78.90439605713127 173.3400255721723 -72.30541047081718
v -114.65219116210723 236.93406080937223 -59.98535975859345
v 145.71211242675565 236.29799219955197 68.79399653909506
v 155.37080383301168 193.8832874374145 -115.31433246123865
v 142.97909545898875 194.14596218571148 -130.36295871254026
v 52.5195617675721 168.13324767217628 177.48580305374543
v 58.49804687499403 168.16598478198077 175.6102952891435
v 40.389694213861056 168.07843620820924 180.62594972134556
v 78.88476562500507 235.13314677573044 -147.27919267667113
v 60.22470092773943 238.48773616665636 -146.41942964733613
v 49.68064880371668 230.37193354206283 -167.6682033191832
v -41.24972534179071 182.94089783617096 -184.98449674875758
v -66.06539916991592 185.81090832504432 -178.50574807457997
v -89.48849487304128 185.62724661995375 -167.98377603689775
v -86.05139160156612 234.95804166478604 111.89292852767304
v -119.89959716796962 229.69432283880317 29.526096538239056
v -41.13020324707394 224.4899567821722 111.57658111740909
v -129.77575683593435 153.60822225007368 -97.693683741632
v -148.8677368164048 151.1067243959743 -47.449621040924825
v -128.3183288574196 150.7148729465698 -71.97182183890529
v -26.21127319336502 226.3370878963885 171.6091035172426
v -20.42065429688067 226.3233488132447 172.39621506339313
v -14.606720924383133 226.31303065315223 172.98734205918998
v 92.7338714599555 168.43442950846176 160.23110720906303
v 64.40974426268941 168.20222643384938 173.5340124441543
v 100.58664703368596 179.8815693459053 161.18585453603683
v 38.93075561523006 233.99716073504783 132.6107214288887
v -32.65272521973135 234.8376687071035 146.99537902021567
v 125.66883850097618 154.95454600402698 7.833410121521143
v 130.36973571777273 152.14308751411068 17.007251512898133
v 98.28376007080332 156.47783620615473 -79.43582711088578
v 91.3583297729509 185.09559908832966 -50.869268057017294
v 51.96528625488582 188.8386709406289 -90.12449640245481
v 110.98347473144702 229.23133457192733 -47.01544427078658
v 86.933845520024 238.88592706242065 -128.7600256305673
v 36.76797485352051 239.92416999134647 -141.2695678928081
v 68.07963562012097 235.1448886241231 -108.53455373696708
v 31.23892211914424 218.8520868121874 -105.40786551852204
v -13.23738193511582 221.51055654277587 -110.85136497325395
v -18.772659301752398 238.67517058051797 -157.15754002573956
v -29.39117431640089 238.6467808604701 -155.53109405348744
v -35.929946899408556 236.68526633218 -160.2055960363271
v -9.231263160699392 223.9730951487252 -181.25110917720934
v -61.76390075683025 228.28881973578928 -166.14808324985532
v -165.68209838867065 156.58399489626044 -40.57119781519659
v -122.20718383789128 156.42846345787257 15.96846484425407
v -115.26019287109506 157.88580714860126 35.54342157337624
v -103.23013305664233 164.07044944227792 47.97927179168713
v -184.32110595703026 174.52022514500217 -31.76483895544102
v -170.03540039062472 156.0880478851023 -12.15841257505615
v -169.5498657226558 156.1881510447481 -17.893318750284536
v -167.6208496093753 154.26758497585354 4.980821874026655
v -166.85607910156318 154.07033439060092 16.281300334793183
v -134.8646850585958 148.46204572150302 57.09256344590217
v -142.9188232421881 149.38271765159254 13.764918996077228
v -123.04989624023476 156.57309397483655 7.682588076750286
v -105.62237548828331 157.49384728705377 57.99878700222775
v -67.22015380859649 179.7857097750574 80.78928448609689
v -60.64181518554985 212.74867548710972 90.67353758031317
v -61.37580871581517 237.61789729893238 -149.1808653594149
v -50.978424072260886 239.84650683596135 -136.8202487006581
v -71.35748291015125 237.53963043557897 -144.6969597609372
v 157.31883239746247 153.90185390636805 -50.06136281799908
v 136.9105682373083 161.39712110853867 -110.31129549746656
v 133.710845947268 151.09585342372753 -74.97387741585788
v -186.02246093749943 174.30182160422112 -19.252508484071196
v -186.5551452636715 174.19199200883435 -12.960375178442852
v -186.98171997070318 173.97170491504633 -0.3401360275752132
v -104.35266113281563 149.05481848443475 88.81069673573742
v -102.690948486331 151.01631116416473 81.56022536778447
v -97.6882019042998 152.21521363583892 83.14376821193169
v -108.0646362304653 239.17775898783657 -98.5077101409269
v -133.73812866210676 238.41179927749067 -73.4497719117207
v -111.25616455077747 238.53419220686067 -108.60914925130426
v -165.56759643554483 228.44985106938367 -57.55217220820695
v -189.33187866210935 207.20073591415564 0.23987886601591576
v -173.33636474609102 193.32677621180693 -81.43118904198646
v -80.06896972656662 147.55486939567476 118.48227544444832
v -55.49005126953515 153.129161845961 112.40959849854491
v 124.94953155517275 234.9952636878464 94.13592981698713
v 159.10838317870807 219.2596188243137 88.78376859579315
v 172.82182312011497 214.50340580698128 67.72972012689719
v 124.15084838866724 210.5055921320013 140.10525982793686
v -46.73156738281685 149.22908162462787 125.38934699429296
v -49.85443115234795 150.32712166304685 121.04386544314283
v -8.97450351715439 206.81965718508408 106.10363150359758
v -17.599548339847686 160.62277494583066 114.2390840125227
v 45.575958251950006 191.83641237349346 92.92658719655392
v 41.93592834472285 226.42324541201813 113.85987595617262
v 45.92997741698883 217.78300097375842 102.70015055227077
v 72.45195007323913 224.7936312106854 94.17908475962696
v 66.11506652831626 234.73323221523907 124.77225326642758
v 120.58677673339594 235.91875980821354 78.78261271479715
v 80.0416488647422 235.19909623668818 120.01211111454701
v 130.9696350097629 235.14621517969397 85.4879246409339
v 128.03262329101275 235.06985184724283 89.86277702705556
v 133.75715637206773 235.22426580534554 81.0164072920969
v 141.19212341308383 235.46764346917493 67.073310269527
v 114.07690429687402 225.87589561557613 32.176198529093355
v 167.73614501953332 226.4073593262549 -58.35928857787253
v 175.95996093750253 193.22380219374895 -75.53181149853418
v 178.41006469726796 193.11932436497509 -69.5462806968149
v 116.39888763428236 185.32306967845508 -150.55749072950834
v 122.48344421387142 163.78696676767555 -129.40439951397343
v 133.12625122070688 161.47673706080525 -114.87249034801472
v 125.10635375976968 161.62905268766224 -123.59864676641523
v 118.061187744145 163.8578884730341 -133.46750129275242
v 101.20226287842257 160.04396878937695 -140.91062423896136
v -73.20458984374737 210.0108487161464 -76.71960886735707
v -119.11114501952926 235.44083118633313 -55.220472325474994
v -120.61407470702852 238.64236700180956 -77.25273890354113
v -136.16867065429443 238.33223778410346 -68.89169700828059
v 1.8797905445135799 169.30547712584735 -112.52937977537208
v -74.16107177734084 164.18616149347622 -89.90719457764756
v -143.75326538085827 237.96042930543715 -28.766939344273574
v -161.643981933594 234.81040853485288 11.66005821350257
v -86.51574707031763 154.98046687257 149.17720629221486
v -48.2748565673884 153.03495593317308 162.75310820612896
v 30.261642456050666 156.47615543449476 116.30231418724892
v 76.17636871338402 160.30606725887256 -155.92623549984106
v 70.88697052002473 160.3494303745618 -158.41050673386678
v 92.24140930175625 195.73789140014338 47.24974451563532
v 103.7511901855463 205.40846115925268 17.90605253031567
v 104.00701904297351 164.05446185912626 -144.72918303959815
v 105.98033905029824 185.45423994772932 -158.07223042332473
v 32.830322265630784 164.58753413078568 -175.26887302937848
v 118.41835021973141 218.17048072937723 -142.3568614742773
v 98.10075378418435 234.92411229261648 -135.3036151595699
v 16.13896179199859 195.2359583213447 -190.80815884356699
v -15.36467075347299 169.28072922731917 -181.7906809519704
v 8.991683006292497 164.63695403254692 -178.100137305071
v -3.0533149242341517 166.8934618641481 -180.44020157185633
v -28.83251953124497 152.9675101377499 -154.05396479033178
v -96.85498046874669 151.7969983453251 -102.61972097450837
v -85.50222778320001 155.35831038682 -96.92412405354199
v -139.49829101562895 216.21200801021885 120.15903459528349
v -136.37765502929952 234.49088543384238 82.55999547947872
v -91.00845336914584 218.05038151168526 158.06092783879777
v -58.989990234381004 170.87524984222668 177.05565628561345
v -112.04620361328647 189.195501924146 155.24935638424202
v -52.96405029297482 170.84225335370098 178.94602384719886
v -46.87767028809206 170.81282745028136 180.63183272505842
v 22.207397460932512 146.94050817321687 144.2613912069513
v 8.191512107843579 149.09197028843187 161.04221785564832
v 60.124801635737576 147.135919947418 133.06625816076453
v -130.92132568359318 234.69678709687292 -12.594214988705172
v -115.0711975097684 235.7797743568766 86.74508388916183
v -28.81272888184222 200.93766039901567 188.14969535730307
v -20.420654296880862 154.59703109057634 171.144227530482
v 80.04164886474197 147.55486939567425 118.48227544445368
v 86.0240859985313 148.07913632367845 110.37645159405731
v 78.6067504882782 158.9446699163704 87.92319623089683
v 146.78193664551046 235.18737938307743 -74.39171019505457
v 115.52808380127371 234.67180536984466 -120.84896123480124
v 87.25536346434991 168.38136019602837 163.2714460821426
v 137.04098510742344 238.03103732053796 -42.229684919786735
v 82.22095489502347 238.8873747050785 -113.21841058518534
v 91.2591171264692 238.83338715953312 -125.7500166100565
v -126.82070922851456 153.06551677253077 -35.83868530903825
v -99.77645874023345 193.94077407466426 -27.632213920738593
v -103.438140869141 187.0838769744866 10.407582587751243
v -29.939239501958355 232.2226478673409 159.9127675648329
v -16.147781372076697 194.78219562172472 190.6439659330648
v 128.05538940429633 153.45132475767446 12.327009470584256
v 123.15335083007552 148.3463968511161 73.13569789248965
v 129.15522766113085 149.0515996109155 54.66406718091815
v 146.39505004882835 149.64489605934386 -10.672887023974681
v 120.70331573486304 158.4456694856246 3.468929766765789
v -100.9592895507758 204.0092113045684 -161.79276090120192
v -84.34585571288486 194.9063311077705 -171.92382842543344
v -125.13363647460532 161.62905268766303 -123.59864676642361
v -170.4877014160127 193.42812897970518 -87.23768522605022
v -133.15353393554312 161.4767370608061 -114.87249034802365
v -137.6965637207023 150.51280753943598 -29.048478978540242
v -140.2531738281248 150.1846082236969 -10.245952772606607
v -149.29110717773105 227.06458905482486 -96.01195451019159
v -121.85598754882321 188.29751586175797 -146.98997571117792
v 76.20171356200703 232.5064273620755 143.655051199875
v 80.98630523681182 232.55277466457096 140.99981601821898
v 85.67847442626503 232.60191654642975 138.18447949206575
v 120.84469604491738 218.42636508204257 136.52084351919927
v 143.43563842773057 216.29541824176485 115.38046563035608
v 187.8014984130863 177.02423782761565 -12.99713291227652
v 163.37799072265688 153.428017749471 -22.91530757010105
v 150.44503784179375 157.90621373694037 89.68265387793215
v 125.57940673828348 150.85294093800925 -70.46411667142569
v 91.69678497314813 151.56577651116675 -111.30243930665458
v -167.43722534179503 228.35168794073869 -51.92841033457918
v -72.87896728515072 228.20942641248672 -161.59964280411037
v -178.43737792968517 193.11932436497625 -69.54628069682687
v 1.9858543872794405 224.36163887992282 118.92790881380805
v 24.404724121090148 217.6581274291884 109.85415112938728
v 119.56741333007427 230.4984464852219 118.24260913662567
v 145.91662597655917 223.60631946216466 102.11217776208743
v 142.40292358398088 223.5213135455077 106.98216346575371
v -66.00610351562963 147.17884727015365 133.74746998442293
v 35.95764160155895 220.11166864937678 108.69675232591989
v 13.950926780696825 224.37576836266126 118.11843128985812
v 139.60820007324048 236.44052734312905 55.16766926275424
v 186.15016174316557 192.6887824512603 -44.880550979662296
v 182.69696044922068 192.906335954179 -57.344182814512834
v 129.1900177001992 161.55407705799954 -119.30329581979926
v -16.957199096675016 152.1257369557292 -143.38255169036313
v -157.64236450195637 166.96422284707927 94.14412129494367
v -143.46295166016006 216.2954182417658 115.38046563034646
v -159.6897888183628 202.41550594791576 103.48398056464801
v -64.56155395508353 153.13480182787464 157.03294072969155
v 163.37799072265562 233.48887860514776 22.91533420235023
v 145.9769287109371 237.1858037923372 15.611326579384354
v 164.7869567871093 233.77935693317343 6.27384193519126
v 164.7869567871097 233.97374796955313 -4.8628130803642335
v 12.10272121429912 152.13430390999986 -143.87335217182547
v 2.5694725513508407 152.46930955631316 -153.6591265531987
v -41.57218933105008 151.9281780312375 -141.48202358593628
v -104.3168945312495 205.96475393477198 -13.963939234621458
v -144.66891479492259 237.01438776211916 25.43174437351892
v 105.35846710204694 147.86585721153426 110.07248164819754
v 107.73336791991906 150.0251335610473 79.7835621007081
v -112.04553222655805 161.8389526541894 -135.62380779501757
v -60.25199890136236 153.56655949455742 -147.9017342999323
v -88.6466369628863 153.30235217486398 -132.7653070921253
v -65.18859863280774 153.52958710838607 -145.78358771477724
v -22.52409362793603 197.87545020314786 189.61017725141323
v -125.69613647460919 155.25138337988528 -9.172391751937193
v -85.06903076172075 189.32202284044516 59.13712601061777
v 148.67253112792838 149.1751746319914 35.06173686771565
v 54.394973754887396 239.60066884999708 -132.15381501691655
v -72.05117797850974 185.77019891464914 -176.1735075150272
v -116.54284667968318 161.77157170804702 -131.76355597587636
v -24.095672607416486 238.6625406476551 -156.43397165662685
v 37.66900634765068 226.3747638539984 169.45064935136133
v 116.39888763427227 180.07364434867307 150.1818849972393
v 175.7586517333959 187.4919904320123 75.33719285375534
v 142.4029235839807 159.68027500510672 105.86781399294617
v 142.49064636230645 150.76965472282814 -56.28596635732902
v 138.41513061523554 150.30559697802926 -39.106802205346945
v -26.548095703120143 239.74432152050042 -140.38367099819664
v 190.49645996093685 191.5677572385896 19.34294044135564
v 180.44989013671662 187.70208985917745 63.300604732819906
v 161.50563049316506 153.61964240127395 -33.89347651939918
v -71.83471679687071 239.45160397883785 -123.6138942676913
v 138.72669982909792 223.43842739745486 111.73070770742285
v 46.27442932129362 151.90228037081212 -139.9983476138529
v -189.22152709961 203.88275282023395 19.42546354669138
v -187.49093627929793 203.66059281514006 32.15300171440953
v -126.91128540038979 233.61595282376462 -20.941880398506285
v -133.85260009765437 238.1908042269722 -51.382724859227594
v 136.5711059570355 217.86933098255346 -125.10400403363447
v -145.37521362304867 235.63665427105983 57.39068791440158
v -135.37445068359787 216.13098278465412 124.80096665900867
v 125.79766082763956 238.81074128179404 -80.62179634005206
v 105.75377655028959 147.94009845929827 96.41251717037444
v 83.83779144287607 235.08516757097283 -144.53046587703508
v -101.84347534179616 200.01469107521712 -20.815301819081526
v -120.90722656249582 161.70157873296574 -127.75366111904677
v -122.93237304687158 153.75724744214762 -106.23133127756508
v 89.46118927001388 179.76946767347775 167.60815504815582
v -83.76937866210368 185.6783157336452 -170.90952360079885
v -105.40658569336127 159.54830198817106 53.34113799837083
v 158.89628601074355 153.80862429947686 -44.72024221635099
v -175.98724365234122 193.2238021937501 -75.53181149854598
v 184.52883911132983 192.7980679738149 -51.141514373613376
v -184.06362915039207 206.42670584844322 44.584031631734405
v 106.8439483642574 175.18616659558543 10.549081555280752
v -64.63864135741757 151.77130290461233 -132.49465360075487
v -126.42617797851234 153.6837436668914 -102.020302813419
v -19.1226348877006 232.19372793883934 161.56958915905008
v 114.43063354491697 210.36486612694543 148.16744725803946
v 161.8938446044919 151.8201403355431 4.7454605344343115
v -167.33392333984423 154.16884715790067 10.637507676050912
v 147.23661804198855 216.38111761036217 110.47075209163447
v -168.9482421875025 167.34986201668966 72.05086806464767
v -172.98748779296767 227.9497122058245 -28.899235904849814
v -36.01792907715323 147.20946282167483 138.27060481590928
v -2.4396979808856765 147.1297925436801 142.83491198533375
v 132.25415039062943 217.94858968989763 -129.64473233628453
v 88.54893493651791 207.21542964883213 166.37593640600994
v 160.50961303710852 151.53476170208643 21.09479149540669
v -173.45697021484585 167.55178861741499 60.482500856864235
v 151.51759338379136 235.01143326288224 -64.31176371998991
v 149.23492431640872 235.10010443521548 -69.3917317807164
v -67.35983276366626 228.25076110135961 -163.9677055436593
v 161.61668395996045 151.72476006062556 10.209792824792721
f 1 2 3
f 4 5 6
f 7 8 9
f 10 162 11
f 12 13 14
f 15 14 16
f 17 18 19
f 20 21 22
f 23 24 25
f 26 23 1
f 3 27 28
f 29 7 30
f 31 32 28
f 33 34 35
f 10 36 37
f 12 38 36
f 39 10 37
f 40 41 42
f 43 44 45
f 46 47 33
f 48 49 37
f 50 51 52
f 48 37 53
f 54 41 55
f 56 57 58
f 59 60 61
f 62 63 60
f 64 50 65
f 59 61 66
f 67 68 69
f 70 71 72
f 70 72 73
f 74 75 76
f 77 55 78
f 79 80 56
f 59 62 60
f 81 56 82
f 83 84 85
f 85 84 63
f 86 63 62
f 87 88 89
f 90 89 91
f 92 93 94
f 95 96 97
f 97 96 98
f 97 98 99
f 100 64 101
f 103 102 104
f 104 54 105
f 105 54 106
f 106 77 78
f 99 64 107
f 106 78 108
f 108 78 109
f 110 111 112
f 111 105 112
f 113 81 114
f 94 67 115
f 116 69 117
f 113 118 119
f 119 83 85
f 120 121 122
f 123 124 125
f 126 127 94
f 128 117 87
f 129 108 79
f 126 130 131
f 131 130 132
f 133 134 97
f 135 136 2
f 137 113 138
f 139 125 140
f 141 140 142
f 143 126 131
f 144 139 140
f 21 145 146
f 147 148 149
f 150 149 151
f 149 152 153
f 153 152 150
f 153 150 156
f 157 156 150
f 6 5 158
f 159 136 160
f 10 161 162
f 16 163 164
f 164 143 131
f 10 165 166
f 167 168 134
f 167 21 20
f 45 169 153
f 1 25 2
f 7 170 8
f 27 3 4
f 27 4 28
f 15 12 14
f 36 11 12
f 109 171 167
f 172 156 23
f 61 23 26
f 6 7 29
f 57 20 43
f 88 47 91
f 37 38 53
f 53 38 12
f 52 53 15
f 51 53 52
f 54 17 173
f 41 173 19
f 174 49 48
f 76 175 176
f 177 176 164
f 56 178 20
f 179 180 23
f 179 23 63
f 60 63 61
f 71 65 72
f 46 33 181
f 174 182 96
f 182 48 98
f 75 73 76
f 106 55 77
f 79 109 183
f 79 183 80
f 45 180 84
f 84 180 179
f 82 56 114
f 114 56 58
f 184 59 185
f 69 186 87
f 46 181 95
f 95 181 174
f 64 187 188
f 64 188 189
f 190 191 74
f 192 79 56
f 190 74 193
f 193 74 102
f 93 124 68
f 93 68 94
f 67 194 115
f 155 79 192
f 118 195 119
f 119 195 83
f 86 184 196
f 124 93 197
f 197 93 198
f 115 194 116
f 87 89 90
f 107 100 101
f 199 198 127
f 107 200 145
f 105 201 112
f 112 201 202
f 203 190 193
f 204 103 110
f 113 114 118
f 86 121 205
f 123 120 122
f 130 116 132
f 132 87 90
f 206 46 95
f 134 95 97
f 139 205 123
f 206 95 134
f 145 97 107
f 148 110 149
f 192 207 137
f 137 208 113
f 209 119 85
f 140 125 142
f 210 148 147
f 150 151 2
f 154 192 137
f 44 22 203
f 203 210 45
f 45 210 211
f 152 149 150
f 138 209 34
f 165 85 212
f 13 213 16
f 88 154 137
f 212 144 161
f 162 140 11
f 131 214 215
f 215 214 17
f 21 146 216
f 216 146 217
f 14 13 218
f 156 157 24
f 6 158 7
f 7 158 160
f 7 160 219
f 7 219 170
f 12 220 142
f 12 142 13
f 41 19 168
f 42 168 167
f 37 36 38
f 42 167 171
f 23 25 1
f 26 221 32
f 61 28 4
f 52 15 222
f 222 15 223
f 223 15 224
f 109 42 171
f 40 42 109
f 45 172 180
f 88 91 89
f 50 53 51
f 225 226 72
f 72 223 227
f 73 223 224
f 73 224 76
f 176 175 164
f 73 72 228
f 73 228 229
f 183 178 80
f 80 178 56
f 102 76 54
f 98 48 53
f 98 53 64
f 187 70 188
f 188 70 189
f 190 73 191
f 74 76 102
f 101 64 230
f 58 45 195
f 184 62 59
f 192 56 81
f 114 195 118
f 196 184 185
f 90 91 46
f 93 92 198
f 198 92 94
f 122 124 123
f 125 124 199
f 203 103 231
f 203 231 232
f 110 202 151
f 137 207 208
f 209 113 119
f 139 123 125
f 142 199 233
f 233 127 126
f 234 145 235
f 142 233 13
f 13 233 213
f 236 110 148
f 146 234 235
f 146 235 22
f 22 235 203
f 149 110 151
f 155 192 154
f 34 209 237
f 237 209 85
f 237 85 165
f 16 126 143
f 19 18 168
f 11 238 142
f 16 143 163
f 167 133 21
f 217 146 22
f 22 21 217
f 44 203 45
f 150 2 239
f 239 2 25
f 170 219 8
f 240 9 154
f 4 3 5
f 158 159 160
f 88 138 47
f 47 138 34
f 166 165 212
f 166 212 10
f 220 11 142
f 36 10 11
f 164 131 215
f 41 168 42
f 43 20 22
f 172 153 156
f 88 240 154
f 32 221 28
f 39 35 10
f 53 12 15
f 173 17 19
f 43 22 44
f 180 172 23
f 61 26 31
f 30 9 240
f 91 47 46
f 49 39 37
f 66 241 242
f 225 50 52
f 65 225 72
f 228 72 229
f 229 72 227
f 176 177 76
f 76 177 54
f 78 41 243
f 243 41 40
f 109 178 183
f 56 20 57
f 57 43 58
f 58 43 45
f 40 78 243
f 181 33 174
f 64 53 50
f 64 65 71
f 55 41 78
f 96 182 98
f 99 98 64
f 64 71 187
f 189 70 73
f 230 73 190
f 114 58 195
f 195 45 84
f 67 69 194
f 87 186 88
f 83 195 84
f 85 63 86
f 184 86 62
f 194 69 116
f 95 174 96
f 64 189 230
f 107 64 100
f 200 101 230
f 103 104 111
f 111 104 105
f 202 105 106
f 201 105 202
f 124 196 59
f 192 113 244
f 86 196 121
f 121 196 122
f 122 196 124
f 94 115 130
f 130 115 116
f 97 99 245
f 97 245 107
f 145 200 230
f 145 230 190
f 116 128 132
f 132 128 87
f 135 202 106
f 145 190 235
f 235 190 203
f 203 193 103
f 231 103 232
f 232 103 246
f 246 103 204
f 110 112 202
f 135 106 136
f 136 106 108
f 205 85 86
f 205 121 120
f 205 120 123
f 142 125 199
f 18 90 206
f 212 205 139
f 233 199 127
f 247 203 232
f 247 232 246
f 246 204 247
f 2 151 135
f 129 79 8
f 138 113 209
f 85 205 212
f 16 213 126
f 131 132 214
f 214 132 90
f 168 206 134
f 210 203 148
f 214 18 17
f 211 210 147
f 211 147 169
f 169 147 149
f 5 136 158
f 158 136 159
f 160 136 219
f 219 136 8
f 9 155 154
f 88 137 138
f 161 144 162
f 163 143 164
f 218 13 16
f 218 16 14
f 3 2 5
f 109 167 20
f 23 156 24
f 34 237 35
f 35 237 165
f 11 220 12
f 30 7 9
f 35 165 10
f 224 15 16
f 224 16 164
f 177 164 215
f 26 1 221
f 221 1 3
f 221 3 28
f 26 32 31
f 31 28 61
f 241 4 6
f 47 34 33
f 61 4 66
f 66 4 241
f 241 6 242
f 242 6 29
f 33 35 49
f 49 35 39
f 225 52 226
f 52 222 226
f 226 222 223
f 76 224 164
f 177 215 54
f 54 215 17
f 174 33 49
f 226 223 72
f 227 223 73
f 76 164 175
f 178 109 20
f 54 173 41
f 63 23 61
f 242 29 30
f 68 66 242
f 69 242 30
f 174 48 182
f 50 225 65
f 73 229 227
f 106 54 55
f 191 75 74
f 78 40 109
f 84 179 63
f 68 242 69
f 69 30 240
f 240 88 186
f 124 66 68
f 69 240 186
f 187 71 70
f 189 73 230
f 191 73 75
f 94 68 67
f 102 54 104
f 81 82 114
f 185 59 196
f 59 66 124
f 113 192 81
f 197 199 124
f 199 197 198
f 127 198 94
f 128 116 117
f 117 69 87
f 245 99 107
f 107 101 200
f 193 102 103
f 110 103 111
f 108 109 79
f 136 108 129
f 126 94 130
f 90 46 206
f 204 110 247
f 151 202 135
f 8 79 155
f 207 192 244
f 207 244 113
f 207 113 208
f 203 247 110
f 233 126 213
f 214 90 18
f 168 18 206
f 133 97 21
f 21 97 145
f 145 234 146
f 203 110 236
f 203 236 148
f 5 2 136
f 167 134 133
f 136 129 8
f 144 212 139
f 8 155 9
f 162 144 140
f 11 140 141
f 11 141 238
f 142 238 141
f 217 21 216
f 45 211 169
f 169 149 153
f 172 45 153
f 24 157 150
f 24 150 25
f 25 150 239
f 212 161 10
f 248 249 250
f 251 252 253
f 254 255 256
f 257 258 259
f 260 261 262
f 263 264 265
f 266 267 268
f 259 269 270
f 271 272 273
f 274 275 276
f 277 278 252
f 279 280 281
f 282 283 284
f 285 284 286
f 260 287 261
f 288 289 290
f 291 292 287
f 293 292 294
f 261 295 296
f 261 296 297
f 289 298 299
f 290 300 301
f 302 303 304
f 302 304 284
f 305 306 307
f 280 275 281
f 308 309 310
f 311 312 313
f 304 314 315
f 304 315 316
f 317 318 319
f 313 320 321
f 323 324 325
f 321 326 327
f 328 329 330
f 331 332 333
f 334 335 336
f 337 338 339
f 337 339 340
f 334 341 335
f 342 343 344
f 306 343 345
f 345 346 347
f 347 346 348
f 348 346 349
f 348 349 350
f 281 351 352
f 315 353 354
f 354 357 358
f 329 326 361
f 362 363 350
f 341 364 365
f 366 367 368
f 355 356 351
f 369 370 253
f 371 372 373
f 373 372 374
f 373 374 375
f 356 376 377
f 378 379 380
f 381 382 383
f 381 383 384
f 385 386 387
f 385 387 361
f 388 258 389
f 390 380 263
f 384 250 391
f 361 392 393
f 361 393 394
f 341 365 276
f 395 396 342
f 342 396 370
f 250 499 248
f 250 397 386
f 398 279 399
f 400 252 251
f 371 285 255
f 377 262 401
f 402 401 403
f 380 379 404
f 380 404 263
f 263 265 405
f 406 407 408
f 408 409 272
f 271 273 410
f 255 411 412
f 413 414 415
f 275 280 276
f 416 297 417
f 418 319 419
f 419 319 414
f 420 421 422
f 423 424 325
f 425 426 427
f 273 428 429
f 308 310 292
f 292 310 295
f 299 311 313
f 281 352 314
f 316 430 431
f 319 318 432
f 296 320 311
f 433 328 434
f 433 434 331
f 269 334 336
f 436 437 323
f 296 359 438
f 296 438 320
f 440 333 334
f 322 441 338
f 337 340 437
f 425 442 306
f 333 341 334
f 443 342 344
f 443 344 442
f 442 344 343
f 442 343 306
f 444 347 348
f 444 348 350
f 314 353 315
f 355 445 356
f 446 382 359
f 358 447 448
f 449 359 360
f 450 451 452
f 452 451 453
f 454 455 456
f 454 456 445
f 359 382 381
f 391 381 384
f 352 457 258
f 388 389 458
f 382 390 384
f 386 459 387
f 364 410 365
f 384 405 250
f 394 460 410
f 375 372 461
f 375 461 462
f 462 461 463
f 462 463 464
f 377 401 356
f 356 401 402
f 254 256 461
f 465 390 405
f 401 466 288
f 403 467 258
f 258 467 259
f 257 259 270
f 397 267 266
f 407 459 408
f 459 468 408
f 406 272 271
f 399 279 469
f 470 255 412
f 470 412 256
f 419 414 461
f 461 414 471
f 471 414 413
f 276 280 279
f 282 252 472
f 262 261 297
f 262 297 416
f 474 475 476
f 476 475 427
f 420 422 473
f 474 325 475
f 468 426 477
f 409 477 428
f 409 428 478
f 278 479 303
f 324 480 475
f 481 480 425
f 426 306 482
f 482 306 305
f 479 281 483
f 291 308 292
f 298 296 311
f 298 311 299
f 440 433 331
f 269 440 334
f 484 435 437
f 331 333 440
f 322 338 337
f 275 273 355
f 306 345 347
f 307 350 485
f 307 485 429
f 318 486 487
f 487 448 310
f 485 375 455
f 352 488 489
f 329 361 330
f 451 335 276
f 330 394 364
f 490 369 345
f 367 369 253
f 358 491 379
f 447 379 378
f 447 378 492
f 451 493 395
f 392 494 460
f 398 399 493
f 493 399 278
f 493 278 400
f 365 274 276
f 495 400 251
f 371 253 285
f 402 403 496
f 496 403 457
f 389 270 379
f 497 471 413
f 497 413 415
f 498 415 260
f 250 405 499
f 397 266 386
f 494 407 406
f 499 474 268
f 268 474 266
f 410 406 271
f 500 470 256
f 256 419 461
f 415 287 260
f 419 411 418
f 287 293 294
f 287 294 261
f 289 299 290
f 290 299 501
f 259 433 269
f 270 269 336
f 475 481 425
f 478 428 273
f 274 273 275
f 502 482 305
f 503 319 432
f 503 432 291
f 294 292 295
f 299 313 300
f 431 430 418
f 418 430 317
f 420 441 322
f 422 322 435
f 484 437 436
f 320 326 321
f 321 327 329
f 435 322 337
f 435 337 437
f 480 442 425
f 340 450 437
f 480 342 442
f 442 342 504
f 504 342 443
f 306 347 444
f 306 444 350
f 281 355 351
f 316 315 354
f 316 354 430
f 273 485 445
f 355 273 445
f 353 489 357
f 353 357 354
f 487 505 448
f 446 448 382
f 386 449 360
f 332 364 333
f 333 364 341
f 453 342 324
f 345 366 346
f 349 346 366
f 451 276 398
f 345 367 366
f 488 388 458
f 342 370 490
f 455 375 456
f 445 376 356
f 447 492 448
f 359 381 391
f 361 387 392
f 393 392 460
f 410 506 365
f 395 400 396
f 367 253 371
f 371 254 372
f 374 372 375
f 375 464 463
f 445 507 376
f 400 278 277
f 400 277 252
f 371 255 254
f 376 262 377
f 389 258 257
f 390 465 384
f 384 465 405
f 508 498 260
f 459 407 494
f 404 509 473
f 476 266 474
f 386 476 427
f 386 427 459
f 506 410 274
f 272 409 273
f 469 281 479
f 416 417 401
f 403 290 467
f 467 301 259
f 283 302 284
f 474 510 325
f 299 300 501
f 300 329 328
f 301 328 433
f 301 433 259
f 433 440 269
f 325 473 435
f 325 435 423
f 511 427 426
f 511 426 468
f 252 278 303
f 472 303 283
f 283 303 302
f 481 475 480
f 482 502 307
f 307 502 305
f 479 483 303
f 512 294 295
f 418 317 319
f 312 311 320
f 312 320 313
f 423 484 436
f 423 436 513
f 513 436 323
f 310 448 514
f 446 359 295
f 439 332 434
f 434 332 331
f 323 437 324
f 442 504 443
f 429 485 273
f 314 352 353
f 317 430 515
f 350 375 485
f 353 352 489
f 358 505 515
f 515 505 318
f 320 516 326
f 489 458 357
f 438 386 385
f 438 385 516
f 516 385 517
f 516 517 326
f 441 451 450
f 343 490 345
f 350 366 362
f 366 368 362
f 362 368 363
f 350 368 375
f 490 370 518
f 518 370 369
f 368 371 373
f 358 458 491
f 517 385 361
f 402 496 457
f 458 389 491
f 276 279 398
f 462 464 375
f 370 400 495
f 251 253 370
f 461 471 497
f 463 497 415
f 250 267 397
f 460 406 410
f 379 509 404
f 264 473 265
f 405 473 499
f 499 268 267
f 406 408 272
f 399 469 278
f 410 273 274
f 469 479 278
f 253 284 285
f 412 411 419
f 401 262 416
f 401 298 466
f 284 304 431
f 417 297 296
f 467 290 301
f 473 325 519
f 301 300 328
f 520 427 511
f 252 303 472
f 325 324 475
f 477 307 428
f 414 319 503
f 414 503 291
f 304 316 431
f 422 435 473
f 310 514 521
f 295 514 446
f 295 359 296
f 330 439 328
f 426 425 306
f 428 307 429
f 307 306 350
f 327 326 329
f 488 458 489
f 330 361 394
f 340 441 450
f 450 452 453
f 450 453 324
f 453 451 522
f 453 522 342
f 490 518 369
f 345 369 367
f 360 391 386
f 352 402 457
f 522 451 523
f 523 451 395
f 375 463 507
f 463 260 262
f 491 389 379
f 463 461 497
f 401 288 403
f 389 257 270
f 499 267 248
f 460 494 406
f 263 404 473
f 263 473 264
f 405 265 473
f 255 470 500
f 459 520 468
f 279 281 469
f 252 282 253
f 253 282 284
f 285 286 431
f 285 431 411
f 285 411 255
f 288 466 298
f 288 290 403
f 524 284 431
f 415 291 287
f 401 417 296
f 288 298 289
f 270 336 509
f 509 336 473
f 499 519 510
f 475 425 427
f 525 520 511
f 409 478 273
f 424 423 513
f 424 513 323
f 426 482 307
f 426 307 477
f 261 512 295
f 281 314 483
f 291 310 309
f 421 322 422
f 521 514 295
f 339 441 340
f 324 437 450
f 281 275 355
f 317 515 318
f 318 487 291
f 291 487 310
f 349 366 350
f 430 358 515
f 318 505 486
f 486 505 487
f 320 438 516
f 439 330 332
f 358 448 505
f 359 449 386
f 335 451 441
f 350 363 368
f 367 371 368
f 368 373 375
f 488 352 388
f 360 359 391
f 388 352 258
f 382 380 390
f 522 523 395
f 391 250 386
f 387 459 494
f 387 494 392
f 394 393 460
f 364 394 410
f 395 493 400
f 396 400 370
f 495 251 370
f 507 463 262
f 507 262 376
f 457 403 258
f 463 415 498
f 463 498 508
f 463 508 260
f 263 405 390
f 249 248 267
f 249 267 250
f 266 476 386
f 365 506 274
f 255 500 256
f 427 520 459
f 408 468 409
f 412 419 256
f 414 291 415
f 282 472 283
f 286 284 524
f 286 524 431
f 401 296 298
f 379 270 509
f 499 473 519
f 499 510 474
f 501 300 290
f 473 336 420
f 519 325 510
f 520 525 468
f 468 525 511
f 468 477 409
f 424 323 325
f 431 418 411
f 287 292 293
f 294 512 261
f 303 483 314
f 303 314 304
f 308 291 309
f 300 313 329
f 336 441 420
f 420 322 421
f 423 435 484
f 310 521 295
f 313 321 329
f 328 439 434
f 441 336 335
f 338 441 339
f 432 318 291
f 354 358 430
f 514 448 446
f 359 386 438
f 330 364 332
f 480 324 342
f 326 517 361
f 276 335 341
f 342 490 343
f 485 455 454
f 485 454 445
f 522 395 342
f 352 351 402
f 357 458 358
f 358 379 447
f 351 356 402
f 378 380 492
f 492 380 448
f 448 380 382
f 383 382 384
f 451 398 493
f 456 375 507
f 456 507 445
f 372 254 461
