o 
v -9.747449874877926 -3.1220579226007175 0.7711059550130825
v -8.779724121093748 -3.6908612927505224 -10.240498153227255
v -14.825906753540036 5.841965228086556 9.928944513521545
v -8.779724121093745 -4.039909421496194 9.756455749900569
v -14.747448921203612 5.571783323553552 -1.0774471376474928
v -14.825906753540039 6.191013356832226 -10.06800938960628
v 14.888500213623045 6.644137997792811 -10.060100069577745
v 14.747447967529299 5.536878510678992 0.9222482526652828
v 8.404743194580083 -4.301960186799105 9.751881636777712
v 14.749519348144535 5.390959328713278 9.921072176264968
v 9.7474479675293 -3.0871531097261453 -1.2285894352997047
v 9.14653778076172 -3.4174978585944764 -10.235726576735066
v -5.000000000000003 22.41737903646777 1.216898485363742
v -3.845445632934574 22.808808367564172 -0.7765737463349774
v -7.234323501586919 21.607566426940707 -9.798912454798225
v -5.581371307373047 22.041148257729585 10.211702305088043
v 4.9999980926513645 22.452283849342344 -0.7827969049490431
v 5.15417861938476 22.553905884962745 -9.78239403811432
v -7.234323501586908 -5.017859321624599 9.739385570897284
v -6.419790267944335 -5.085339388240804 -10.264838858925016
v -6.41979026794433 -5.434387516986476 9.732115044202809
v -5.581371307373046 -5.451443059471611 -10.271229222276808
v -5.581371307373041 -5.800491188217283 9.725724680851016
v -4.722192764282226 -5.765761520592472 -10.276715671423812
v -4.72219276428222 -6.114809649338142 9.720238231704013
v -3.845445632934569 -6.0271247914379416 -10.28127778428627
v -2.9543933868408137 -6.583605540517965 9.712055368985387
v -2.052352905273436 -6.387291790696434 -10.28756452264333
v -2.052352905273431 -6.736339919442106 9.709389380484495
v -1.1426753997802719 -6.484757717828188 -10.289265796729703
v -1.142675399780267 -6.83380584657386 9.707688106398122
v -0.2287483215332015 -6.526594759180156 -10.289996065002907
v 0.6860294342041032 -6.5126446289271875 -10.289752564573584
v 0.6860294342041081 -6.861692757672859 9.70720133855424
v 6.003372192382813 -5.274784636251704 -10.268145638029392
v 6.003372192382819 -5.623832764997376 9.728808265098433
v 6.830230712890626 -4.883286578903528 -10.261312014019108
v 6.830230712890631 -5.2323347076491995 9.735641889108717
v 7.63167953491211 -4.442115378329227 -10.253611342068625
v 7.631679534912116 -4.791163507074899 9.7433425610592
v 8.40474319458008 -3.9529120580534336 -10.245072266350112
v -12.026787757873535 17.083136564696595 10.125159889071291
v -12.550909042358402 16.68242478791184 -9.884881121888142
v -12.550909042358398 16.33337665916617 10.112072781239682
v -13.028340339660648 15.902111904010559 -9.898501533940964
v -13.028340339660645 15.553063775264889 10.09845236918686
v -13.457304954528812 15.094148584218939 -9.912604586147545
v -13.457304954528809 14.74510045547327 10.08434931698028
v -13.836207389831547 14.261540352156764 -9.927137816897957
v -13.836207389831543 13.912492223411093 10.069816086229867
v -14.163639068603517 13.407386177292393 -9.942047133478923
v -14.163639068603514 13.058338048546723 10.054906769648902
v -14.438380241394045 12.53485940436143 -9.957277144952041
v -14.438380241394041 12.18581127561576 10.039676758175784
v -14.659410476684572 11.647211567482993 -9.972771095578146
v -14.659410476684569 11.298163438737323 10.024182807549678
v -14.82590675354004 10.747739970171414 -9.988471430710307
v -14.825906753540037 10.398691841425745 10.008482472417517
v -14.937249183654787 9.839793406510664 -10.004319696930358
v -14.937249183654783 9.490745277764994 9.992634206197467
v -14.99302387237549 8.926751183514858 -10.020256908214954
v -14.993023872375487 8.577703054769186 9.97669699491287
v -14.99302387237549 8.012004050546917 -10.03622387881381
v 14.97209930419922 7.206007629281251 9.952753962199232
v 15.000000000000002 8.120329488285224 9.968713509613435
v 14.972099304199217 9.383697568976734 -10.01228087938801
v 14.97209930419922 9.034649440231064 9.984673023739814
v 14.888500213623045 10.294615329210844 -9.996380750738856
v 14.888500213623049 9.945567200465174 10.000573152388968
v 14.749519348144533 10.849697740799035 10.01635480967408
v 13.248981475830075 15.501400848815212 -9.90549597142686
v 12.795574188232422 15.946859837664995 10.105326105024526
v 12.294563293457028 17.061301934526714 -9.878267796694168
v 12.294563293457031 16.712253805781046 10.118686106433657
v 11.747817993164059 17.794731701252466 -9.865465732495682
v 11.747817993164062 17.445683572506795 10.131488170632142
v 11.15737152099609 18.493470173455762 -9.85326920709553
v 11.157371520996094 18.14442204471009 10.143684696032295
v 10.525417327880856 19.154921845015714 -9.841723525221573
v 10.52541732788086 18.805873716270042 10.155230377906252
v 9.85430526733398 19.776618982706434 -9.830871761317493
v 9.854305267333984 19.427570853960763 10.166082141810332
v 9.146537780761715 20.35625404618533 -9.820754193649798
v 9.146537780761719 20.00720591743966 10.176199709478027
v 8.404743194580075 20.89166824564429 -9.811408504034752
v 8.404743194580078 20.542620116898618 10.185545399093073
v 7.631679534912104 21.380866798274745 -9.802869511535796
v 7.631679534912109 21.031818669529073 10.194084391592028
v -9.168052673339847 19.04826008355999 -9.843585313193135
v -3.7306327819824276 21.96111212035664 -9.79274129176456
v -1.9924087524414116 22.324765221884775 -9.78639370326604
v -0.22212409973145075 22.465483227504205 -9.783937461341383
v 1.551733016967768 22.380996738035023 -9.785412178500625
v -11.004743576049805 -0.18353060548604994 -10.179277468356323
v -11.531473159790039 0.5317487354457668 -10.166792221018547
v -12.443696975708008 2.0551821019826386 -10.140200592691832
v -12.825519561767578 2.8572049356856724 -10.126201232055632
v 12.997150421142578 3.26689442057768 -10.11905007549644
v 12.640972137451172 2.4531641569877047 -10.13325379008146
v 11.777549743652344 0.901558774160744 -10.160337162781675
v 2.4310741424560542 21.905537353794017 10.20933520795487
v 0.6661472320556635 22.102341939145486 10.212770444770351
v -0.22212409973144587 22.116435098758533 10.213016441786442
v -2.867292404174805 21.821474231230667 10.20786788069246
v -9.820648193359375 18.096528186723337 10.14284870563148
v -12.825519561767575 2.5081568069400024 9.870752671072193
v -12.01176834106445 0.9299412884350069 9.843204816725967
v -11.531473159790036 0.18270060670009514 9.830161682109278
v -11.004743576049801 -0.5325787342317216 9.817676434771501
v 11.27378082275391 -0.17911885843182773 9.823846099853101
v 11.777549743652347 0.5525106454150723 9.83661674034615
v 12.640972137451175 2.104116028242035 9.863700113046365
v -10.000000000000005 32.415859802147956 1.3914226163122252
v -10.000000000000005 32.45076461502252 -0.6082727740005573
v 9.999996185302729 32.41585980214796 1.3914226163122205
v 9.999996185302729 32.45076461502253 -0.608272774000562
v 25.907703399658203 4.867106344478756 0.910557336017142
v 25.907703399658203 4.902011157353323 -1.0891380542956406
v 15.907703399658208 -12.450764615022521 0.6082727740005558
v 15.907703399658208 -12.415859802147956 -1.3914226163122267
v -15.907703399658198 -12.450764615022528 0.6082727740005636
v -15.907703399658198 -12.415859802147963 -1.391422616312219
v -25.907703399658203 4.867106344478744 0.9105573360171544
v -25.907703399658203 4.902011157353311 -1.0891380542956282
f 3 1 4
f 3 5 1
f 5 6 2
f 5 2 1
f 9 8 10
f 9 11 8
f 11 12 7
f 11 7 8
f 13 14 15
f 88 13 16
f 88 17 13
f 17 18 14
f 14 18 15
f 1 2 4
f 4 2 19
f 19 2 20
f 19 20 21
f 21 20 22
f 21 22 23
f 23 22 24
f 23 24 25
f 25 24 26
f 25 26 27
f 27 26 28
f 27 28 29
f 29 28 30
f 29 30 31
f 31 30 32
f 31 32 34
f 34 32 33
f 34 33 35
f 34 35 36
f 36 35 37
f 36 37 38
f 38 37 39
f 38 39 40
f 40 39 41
f 40 41 9
f 9 41 12
f 9 12 11
f 13 15 16
f 16 15 42
f 42 15 43
f 42 43 44
f 44 43 45
f 44 45 46
f 46 45 47
f 46 47 48
f 48 47 49
f 48 49 50
f 50 49 51
f 50 51 52
f 52 51 53
f 52 53 54
f 54 53 55
f 54 55 56
f 56 55 57
f 56 57 58
f 58 57 59
f 58 59 60
f 60 59 61
f 60 61 62
f 62 61 63
f 62 63 3
f 3 63 6
f 3 6 5
f 8 7 10
f 10 7 64
f 64 7 66
f 64 66 65
f 65 66 67
f 67 66 68
f 67 68 69
f 69 68 70
f 70 68 71
f 70 71 72
f 72 71 73
f 72 73 74
f 74 73 75
f 74 75 76
f 76 75 77
f 76 77 78
f 78 77 79
f 78 79 80
f 80 79 81
f 80 81 82
f 82 81 83
f 82 83 84
f 84 83 85
f 84 85 86
f 86 85 87
f 86 87 88
f 88 87 18
f 88 18 17
f 97 43 89
f 89 43 15
f 89 15 90
f 90 15 18
f 90 18 91
f 91 18 92
f 92 18 93
f 93 18 87
f 93 87 85
f 93 85 83
f 94 2 95
f 95 2 6
f 95 6 96
f 96 6 97
f 97 6 63
f 97 63 61
f 97 61 59
f 97 59 57
f 97 57 55
f 97 55 53
f 97 53 51
f 97 51 49
f 97 49 47
f 97 47 45
f 97 45 43
f 83 81 93
f 93 81 79
f 93 79 66
f 66 79 77
f 66 77 75
f 66 75 73
f 66 73 71
f 66 71 68
f 98 66 7
f 98 7 12
f 98 12 99
f 99 12 100
f 100 12 33
f 33 12 41
f 33 41 39
f 33 39 37
f 33 37 35
f 94 33 32
f 94 32 30
f 94 30 28
f 94 28 26
f 94 26 24
f 94 24 22
f 94 22 20
f 94 20 2
f 66 112 69
f 66 69 93
f 93 69 101
f 93 101 102
f 93 102 92
f 92 102 103
f 92 103 91
f 91 103 104
f 91 104 90
f 90 104 89
f 89 104 105
f 89 105 97
f 97 105 106
f 97 106 96
f 96 106 107
f 96 107 95
f 95 107 108
f 95 108 94
f 94 108 109
f 94 109 29
f 94 29 33
f 33 29 110
f 33 110 100
f 100 110 111
f 100 111 99
f 99 111 112
f 99 112 98
f 98 112 66
f 69 80 101
f 101 80 82
f 101 82 84
f 101 84 86
f 101 86 88
f 101 88 16
f 101 16 102
f 102 16 103
f 103 16 104
f 104 16 105
f 105 16 42
f 110 9 111
f 111 9 10
f 111 10 112
f 112 10 64
f 112 64 65
f 112 65 67
f 112 67 69
f 69 70 72
f 69 72 74
f 69 74 76
f 69 76 78
f 69 78 80
f 109 4 19
f 109 19 21
f 109 21 23
f 109 23 25
f 109 25 27
f 109 27 29
f 29 31 34
f 29 34 36
f 29 36 38
f 29 38 110
f 110 38 40
f 110 40 9
f 105 42 106
f 106 42 44
f 106 44 46
f 106 46 48
f 106 48 50
f 106 50 52
f 106 52 54
f 106 54 56
f 106 56 58
f 106 58 60
f 106 60 62
f 106 62 3
f 106 3 107
f 107 3 108
f 108 3 109
f 109 3 4
f 113 114 13
f 13 114 14
f 115 116 113
f 113 116 114
f 115 17 116
f 114 17 14
f 116 17 114
f 115 13 17
f 113 13 115
f 117 118 8
f 119 120 117
f 117 120 118
f 119 11 120
f 118 11 8
f 120 11 118
f 119 8 11
f 117 8 119
f 121 122 1
f 123 124 121
f 121 124 122
f 123 5 124
f 124 5 122
f 122 5 1
f 121 1 123
f 123 1 5
