o 
v 91.88453674316405 68.14290416437667 -65.46384542308773
v 95.13453674316405 68.0838208704312 -62.651952118474576
v 96.13453674316405 68.09381933784746 -62.65177759457664
v 95.13453674316405 67.62260429746516 -35.65588601123781
v 90.38453674316405 67.58224560757894 -33.343738216188655
v 96.13453674316405 67.61260583004889 -35.656060535135744
v 100.49999999999999 67.58224560757895 -33.343738216188655
v 100.49999999999999 68.11836185097555 -64.05781723000659
v 90.38453674316405 68.14290416437667 -65.46384542308773
v 88.88453674316405 68.14290416437667 -65.46384542308773
v 87.38453674316405 68.14290416437667 -65.46384542308773
v 85.88452148437499 67.58224560757894 -33.34373821618865
v 85.88452148437499 68.14290416437667 -65.46384542308773
v 82.88453674316405 68.14290416437667 -65.46384542308773
v 78.88453674316405 67.58224560757894 -33.34373821618865
v 74.88453674316405 67.58224560757894 -33.34373821618865
v 74.88453674316405 68.14290416437667 -65.46384542308773
v 73.38453674316405 68.14290416437667 -65.46384542308773
v 73.38453674316405 67.58224560757894 -33.34373821618865
v 71.88453674316405 68.14290416437667 -65.46384542308772
v 71.88453674316405 67.58224560757894 -33.34373821618865
v 68.88453674316405 68.14290416437667 -65.46384542308772
v 67.38452148437499 68.14290416437667 -65.46384542308772
v 67.38452148437499 67.58224560757894 -33.34373821618865
v 65.88455200195311 68.14290416437667 -65.46384542308772
v 65.88455200195311 67.58224560757894 -33.34373821618865
v 64.38453674316405 68.14290416437667 -65.46384542308772
v 64.38453674316405 67.58224560757894 -33.34373821618865
v 62.88453674316405 68.14290416437667 -65.46384542308772
v 62.884536743164055 67.58224560757894 -33.34373821618865
v 56.134536743164055 67.61260583004888 -35.65606053513574
v 55.134536743164055 67.62260429746516 -35.6558860112378
v 54.884536743164055 67.58224560757894 -33.34373821618864
v 55.13453674316405 68.08382087043118 -62.65195211847457
v 56.13453674316405 68.09381933784746 -62.65177759457663
v 54.88453674316405 68.14290416437667 -65.46384542308772
v 61.634536743164055 67.61260583004888 -35.65606053513574
v 53.38453674316405 68.14290416437667 -65.46384542308772
v 53.384536743164055 67.58224560757894 -33.34373821618864
v 51.88453674316405 68.14290416437667 -65.46384542308772
v 51.884536743164055 67.58224560757894 -33.34373821618864
v 50.38453674316405 68.14290416437667 -65.46384542308772
v 50.384536743164055 67.58224560757894 -33.34373821618864
v 48.88453674316405 68.14290416437667 -65.46384542308772
v 48.884536743164055 67.58224560757894 -33.34373821618864
v 44.38453674316405 68.14290416437667 -65.46384542308772
v 44.384536743164055 67.58224560757894 -33.34373821618864
v 45.63453674316405 68.08382087043118 -62.65195211847456
v 46.134536743164055 67.62260429746516 -35.6558860112378
v 42.88455200195311 68.14290416437667 -65.46384542308772
v 42.88455200195312 67.58224560757894 -33.34373821618864
v 38.88453674316405 68.14290416437666 -65.46384542308772
v 38.884536743164055 67.58224560757894 -33.34373821618864
v 34.884536743164055 67.58224560757893 -33.34373821618864
v 34.88453674316405 68.14290416437666 -65.46384542308772
v 33.38453674316405 68.14290416437666 -65.46384542308772
v 33.384536743164055 67.58224560757893 -33.34373821618864
v 30.384536743164055 67.58224560757893 -33.34373821618864
v 31.63453674316405 68.08382087043118 -62.65195211847456
v 30.384536743164045 68.14290416437666 -65.46384542308772
v 33.13453674316405 68.09381933784745 -62.65177759457663
v 33.134536743164055 67.62260429746514 -35.6558860112378
v 32.134536743164055 67.61260583004888 -35.65606053513573
v 28.884536743164045 68.14290416437666 -65.46384542308772
v 28.884536743164055 67.58224560757893 -33.34373821618864
v 27.384536743164045 68.14290416437666 -65.46384542308772
v 27.384536743164055 67.58224560757893 -33.34373821618863
v 25.884544372558576 68.14290416437666 -65.46384542308772
v 25.884544372558587 67.58224560757893 -33.34373821618863
v 24.384536743164045 68.14290416437666 -65.46384542308772
v 24.384536743164055 67.58224560757893 -33.34373821618863
v 18.884544372558576 68.14290416437666 -65.46384542308772
v 18.884544372558587 67.58224560757893 -33.34373821618863
v 14.884544372558585 67.58224560757893 -33.34373821618863
v 14.884544372558578 68.14290416437666 -65.46384542308772
v 13.384536743164047 68.14290416437666 -65.4638454230877
v 13.384536743164054 67.58224560757893 -33.34373821618863
v 11.884536743164047 68.14290416437666 -65.4638454230877
v 11.884536743164054 67.58224560757893 -33.34373821618863
v 10.384536743164047 68.14290416437666 -65.4638454230877
v 10.384536743164054 67.58224560757893 -33.34373821618863
v 7.384544372558586 67.58224560757893 -33.34373821618863
v 8.634536743164047 68.08382087043117 -62.651952118474554
v 7.384544372558578 68.14290416437666 -65.4638454230877
v 10.134536743164047 68.09381933784745 -62.65177759457662
v 10.134536743164054 67.62260429746514 -35.65588601123779
v 9.134544372558585 67.61260583004888 -35.65606053513572
v 5.8845367431640465 68.14290416437666 -65.4638454230877
v 5.8845367431640545 67.58224560757893 -33.34373821618863
v 4.3845367431640465 68.14290416437666 -65.4638454230877
v 4.3845367431640545 67.58224560757893 -33.34373821618863
v 2.884536743164046 68.14290416437666 -65.4638454230877
v 2.884536743164054 67.58224560757893 -33.34373821618863
v -1.115463256835954 68.14290416437666 -65.4638454230877
v -1.1154632568359462 67.58224560757893 -33.34373821618863
v -6.365463256835946 67.61260583004886 -35.656060535135715
v -6.365463256835946 67.62260429746514 -35.65588601123778
v -8.115463256835946 67.58224560757893 -33.343738216188626
v -8.115463256835953 68.14290416437666 -65.4638454230877
v -6.865463256835953 68.08382087043117 -62.65195211847455
v -3.8654632568359535 68.08382087043117 -62.651952118474554
v -9.615463256835953 68.14290416437666 -65.4638454230877
v -9.615463256835946 67.58224560757893 -33.343738216188626
v -11.115455627441422 68.14290416437666 -65.4638454230877
v -11.115455627441415 67.58224560757893 -33.343738216188626
v -12.615463256835953 68.14290416437666 -65.4638454230877
v -12.615463256835946 67.58224560757893 -33.343738216188626
v -14.115463256835953 68.14290416437666 -65.4638454230877
v -14.115463256835946 67.58224560757893 -33.343738216188626
v -17.115463256835945 67.58224560757893 -33.343738216188626
v -15.865455627441422 68.08382087043117 -62.65195211847455
v -17.115463256835955 68.14290416437666 -65.4638454230877
v -14.365463256835953 68.09381933784744 -62.651777594576615
v -14.365463256835946 67.62260429746514 -35.65588601123778
v -15.365463256835946 67.61260583004886 -35.656060535135715
v -21.115463256835955 68.14290416437665 -65.4638454230877
v -21.115463256835945 67.58224560757893 -33.343738216188626
v -25.115455627441413 67.58224560757891 -33.343738216188626
v -23.86545562744142 68.09381933784744 -62.651777594576615
v -24.86546325683595 68.08382087043117 -62.65195211847455
v -25.115455627441424 68.14290416437665 -65.4638454230877
v -26.615463256835955 68.14290416437665 -65.4638454230877
v -26.615463256835945 67.58224560757891 -33.343738216188626
v -28.115463256835955 68.14290416437665 -65.4638454230877
v -28.115463256835945 67.58224560757891 -33.343738216188626
v -31.115463256835945 67.58224560757891 -33.34373821618862
v -29.86546325683595 68.08382087043117 -62.65195211847455
v -31.115463256835955 68.14290416437665 -65.4638454230877
v -28.36546325683595 68.09381933784744 -62.651777594576615
v -28.365463256835945 67.62260429746513 -35.65588601123778
v -29.365463256835945 67.61260583004886 -35.656060535135715
v -32.61546325683595 68.14290416437665 -65.4638454230877
v -32.615463256835945 67.58224560757891 -33.34373821618862
v -34.11546325683595 68.14290416437665 -65.4638454230877
v -34.115463256835945 67.58224560757891 -33.34373821618862
v -35.61545562744142 68.14290416437665 -65.4638454230877
v -35.61545562744141 67.58224560757891 -33.34373821618862
v -37.11546707153322 68.14290416437665 -65.4638454230877
v -37.11546707153321 67.58224560757891 -33.34373821618862
v -43.865463256835945 67.61260583004886 -35.65606053513571
v -44.86545944213868 67.62260429746513 -35.655886011237776
v -45.11545944213868 67.58224560757891 -33.34373821618862
v -44.865459442138686 68.08382087043115 -62.65195211847454
v -43.86546325683595 68.09381933784744 -62.65177759457661
v -45.115459442138686 68.14290416437665 -65.4638454230877
v -38.365463256835945 67.61260583004886 -35.65606053513571
v -46.615459442138686 68.14290416437665 -65.46384542308769
v -46.61545944213868 67.58224560757891 -33.34373821618862
v -48.11546325683595 68.14290416437665 -65.46384542308769
v -48.115463256835945 67.58224560757891 -33.34373821618862
v -49.61546325683595 68.14290416437665 -65.46384542308769
v -49.615463256835945 67.58224560757891 -33.34373821618862
v -51.11546325683595 68.14290416437665 -65.46384542308769
v -51.115463256835945 67.58224560757891 -33.34373821618862
v -55.615459442138686 68.14290416437665 -65.46384542308769
v -55.61545944213868 67.58224560757891 -33.34373821618862
v -54.365459442138686 68.08382087043115 -62.65195211847454
v -53.86545944213868 67.62260429746513 -35.655886011237776
v -57.11546325683595 68.14290416437665 -65.46384542308769
v -57.115463256835945 67.58224560757891 -33.34373821618862
v -61.115459442138686 68.14290416437665 -65.46384542308769
v -61.11545944213868 67.58224560757891 -33.34373821618861
v -64.86546325683595 67.62260429746513 -35.65588601123777
v -65.11546325683595 67.58224560757891 -33.34373821618861
v -63.86545944213868 67.61260583004885 -35.65606053513571
v -63.865459442138686 68.09381933784744 -62.6517775945766
v -64.86546325683595 68.08382087043115 -62.65195211847454
v -65.11546325683595 68.14290416437665 -65.46384542308769
v -66.61546325683595 68.14290416437665 -65.46384542308769
v -66.61546325683595 67.58224560757891 -33.34373821618861
v -69.61545562744142 68.14290416437665 -65.46384542308769
v -71.11546325683595 68.14290416437665 -65.46384542308769
v -71.11546325683595 67.58224560757891 -33.34373821618861
v -72.61546325683595 68.14290416437665 -65.46384542308769
v -72.61546325683595 67.58224560757891 -33.34373821618861
v -74.11546325683595 68.14290416437665 -65.46384542308769
v -74.11546325683595 67.58224560757891 -33.34373821618861
v -75.61546325683595 68.14290416437663 -65.46384542308769
v -75.61546325683595 67.58224560757891 -33.34373821618861
v -81.11546325683595 68.14290416437663 -65.46384542308769
v -81.11546325683595 67.5822456075789 -33.34373821618861
v -88.11545562744142 67.5822456075789 -33.34373821618861
v -85.11546325683595 68.14290416437663 -65.46384542308769
v -85.36546325683595 67.62260429746512 -35.65588601123777
v -86.61546325683595 68.14290416437663 -65.46384542308769
v -86.86546325683595 67.62260429746512 -35.65588601123777
v -88.11545562744142 68.14290416437663 -65.46384542308769
v -89.36546325683595 67.62260429746512 -35.65588601123777
v -89.61546325683595 68.14290416437663 -65.46384542308769
v -92.61546325683595 68.14290416437663 -65.46384542308769
v -92.86546325683595 67.62260429746512 -35.65588601123776
v -94.11546325683595 68.14290416437663 -65.46384542308769
v -95.61545562744142 67.5822456075789 -33.343738216188605
v -94.36546325683595 67.62260429746512 -35.65588601123776
v -95.61545562744142 68.14290416437663 -65.46384542308769
v -96.86546325683595 67.62260429746512 -35.65588601123776
v -97.11546325683595 68.14290416437663 -65.46384542308769
v -100.50000000000001 67.57224714016263 -33.34391274008654
v -100.00000000000001 65.64328492648565 -65.50747643918089
v -100.49999999999999 63.357019683201514 65.47257162630638
v -100.49999999999999 65.8566389210925 65.51620264239958
v -100.5 66.99431766572292 0.3386310143923217
v -100.50000000000001 67.53261532677287 -30.50042133308762
v -100.50000000000001 67.53734232728806 -31.34421734977376
v -100.50000000000001 65.634558723267 -65.00755259160269
v 100.50000000000001 65.86536539061377 65.01626353835626
v 91.88453674316408 65.85663892109254 65.51620264239953
v 100.00001525878908 63.30110083580608 65.4684517698331
v 90.38453674316408 65.85663892109254 65.51620264239953
v 88.88453674316408 65.85663892109254 65.51620264239953
v 87.38453674316408 65.85663892109254 65.51620264239953
v 85.88452148437501 65.85663892109254 65.51620264239953
v 82.88453674316408 65.85663892109254 65.51620264239953
v 78.88453674316408 65.85663892109254 65.51620264239953
v 74.88453674316408 65.85663892109254 65.51620264239953
v 73.38453674316408 65.85663892109254 65.51620264239953
v 71.88453674316408 65.85663892109254 65.51620264239955
v 68.88453674316408 65.85663892109254 65.51620264239955
v 67.38452148437501 65.85663892109254 65.51620264239955
v 65.88455200195314 65.85663892109254 65.51620264239955
v 64.38453674316408 65.85663892109254 65.51620264239955
v -8.115463256835922 65.85663892109251 65.51620264239956
v -9.615463256835922 65.85663892109251 65.51620264239956
v 25.88454437255861 65.85663892109253 65.51620264239955
v 24.38453674316408 65.85663892109253 65.51620264239955
v 18.88454437255861 65.85663892109253 65.51620264239955
v 14.88454437255861 65.85663892109253 65.51620264239955
v -25.11545562744139 65.85663892109251 65.51620264239956
v -26.61546325683592 65.85663892109251 65.51620264239956
v -28.11546325683592 65.85663892109251 65.51620264239956
v -34.11546325683592 65.85663892109251 65.51620264239956
v -35.61545562744139 65.85663892109251 65.51620264239956
v 62.88453674316408 65.85663892109254 65.51620264239955
v 54.88453674316408 65.85663892109253 65.51620264239955
v 53.38453674316408 65.85663892109253 65.51620264239955
v -11.11545562744139 65.85663892109251 65.51620264239956
v -12.615463256835922 65.85663892109251 65.51620264239956
v -14.115463256835922 65.85663892109251 65.51620264239956
v -31.11546325683592 65.85663892109251 65.51620264239956
v -32.61546325683592 65.85663892109251 65.51620264239956
v -37.11546707153319 65.85663892109251 65.51620264239956
v -45.11545944213866 65.85663892109251 65.51620264239956
v -46.61545944213866 65.85663892109251 65.51620264239958
v 13.384536743164078 65.85663892109253 65.51620264239956
v 11.884536743164078 65.85663892109253 65.51620264239956
v 10.384536743164078 65.85663892109253 65.51620264239956
v -17.11546325683592 65.85663892109251 65.51620264239956
v -21.11546325683592 65.85663892109251 65.51620264239956
v -48.11546325683592 65.85663892109251 65.51620264239958
v -49.61546325683592 65.85663892109251 65.51620264239958
v -51.11546325683592 65.85663892109251 65.51620264239958
v -55.61545944213866 65.8566389210925 65.51620264239958
v -57.11546325683592 65.8566389210925 65.51620264239958
v -61.11545944213866 65.8566389210925 65.51620264239958
v 51.88453674316408 65.85663892109253 65.51620264239955
v 50.38453674316408 65.85663892109253 65.51620264239955
v 48.88453674316408 65.85663892109253 65.51620264239955
v -65.11546325683592 65.8566389210925 65.51620264239958
v -66.61546325683592 65.8566389210925 65.51620264239958
v -69.61545562744139 65.8566389210925 65.51620264239958
v 7.38454437255861 65.85663892109253 65.51620264239956
v 5.8845367431640785 65.85663892109253 65.51620264239956
v 4.3845367431640785 65.85663892109253 65.51620264239956
v -71.11546325683592 65.8566389210925 65.51620264239958
v -72.61546325683592 65.8566389210925 65.51620264239958
v -74.11546325683592 65.8566389210925 65.51620264239958
v 2.884536743164078 65.85663892109251 65.51620264239956
v -1.115463256835922 65.85663892109251 65.51620264239956
v 44.38453674316408 65.85663892109253 65.51620264239955
v 42.88455200195314 65.85663892109253 65.51620264239955
v 38.88453674316408 65.85663892109253 65.51620264239955
v -75.61546325683592 65.8566389210925 65.51620264239958
v -81.11546325683592 65.8566389210925 65.51620264239958
v -85.11546325683592 65.8566389210925 65.51620264239958
v 34.88453674316408 65.85663892109253 65.51620264239955
v 33.38453674316408 65.85663892109253 65.51620264239955
v 30.38453674316408 65.85663892109253 65.51620264239955
v 28.88453674316408 65.85663892109253 65.51620264239955
v 27.38453674316408 65.85663892109253 65.51620264239955
v -86.61546325683592 65.8566389210925 65.51620264239958
v -88.11545562744139 65.8566389210925 65.51620264239958
v -89.61546325683592 65.8566389210925 65.51620264239958
v -92.61546325683592 65.8566389210925 65.51620264239958
v -94.11546325683592 65.8566389210925 65.51620264239958
v -95.61545562744139 65.8566389210925 65.51620264239958
v -97.11546325683592 65.8566389210925 65.51620264239958
v 100.49999999999999 67.57224714016267 -33.34391274008659
v 100.50000000000001 66.41729561377215 33.39620223075598
v 100.50000000000001 66.40729714635589 33.39602770685805
v 100.50000000000001 63.36574615272279 64.97263252226304
v 100.50000000000001 66.44220222553304 31.396317060080193
v 100.49999999999999 65.63455872326706 -65.00755259160275
v 100.49999999999999 67.53734232728812 -31.344217349773807
v 100.49999999999999 67.54734079470438 -31.344042825875874
v 100.5 66.99431766572296 0.33863101439227333
v 100.50000000000001 66.4522006929493 31.396491583978126
v 100.00001525878905 65.6432849264857 -65.50747643918095
v -74.36546325683594 67.04667488503476 -2.6609120710768583
v -75.36546325683594 67.0366764176185 -2.661086594974792
v -74.11546325683594 66.99431766572292 0.33863101439231535
v -65.36546325683594 67.04667488503478 -2.6609120710768606
v -66.36546325683594 67.04667488503478 -2.6609120710768606
v -66.61546325683594 66.99431766572292 0.3386310143923136
v -55.86545944213867 67.04667488503478 -2.660912071076863
v -56.86546325683594 67.04667488503478 -2.660912071076863
v -57.11546325683594 66.99431766572292 0.33863101439231125
v -35.86546325683594 67.04667488503478 -2.6609120710768677
v -36.86546325683594 67.03667641761851 -2.661086594974801
v -35.615455627441406 66.99431766572293 0.3386310143923061
v -26.865463256835938 67.04667488503478 -2.66091207107687
v -27.865463256835938 67.04667488503478 -2.66091207107687
v -28.115463256835938 66.99431766572293 0.3386310143923043
v -23.865455627441406 67.03667641761851 -2.661086594974804
v -24.865463256835938 67.04667488503478 -2.6609120710768703
v -8.365463256835938 67.04667488503479 -2.6609120710768743
v -9.365455627441406 67.04667488503479 -2.6609120710768743
v -9.615463256835938 66.99431766572293 0.3386310143922998
v 4.134536743164055 67.50789145800081 -29.656978178313643
v 3.1345367431640616 67.03667641761851 -2.661086594974811
v 5.8845367431640625 66.99431766572293 0.3386310143922961
v 7.134536743164062 67.04667488503479 -2.6609120710768783
v 6.134544372558593 67.04667488503479 -2.660912071076878
v 10.134536743164062 67.04667488503479 -2.6609120710768788
v 9.134544372558594 67.04667488503479 -2.6609120710768788
v 13.134544372558594 67.04667488503479 -2.6609120710768797
v 12.134536743164062 67.04667488503479 -2.660912071076879
v 10.634536743164062 66.94196044641109 3.338174099861469
v 16.134536743164062 67.03667641761852 -2.661086594974814
v 15.134536743164062 67.04667488503479 -2.66091207107688
v 25.634544372558594 67.04667488503479 -2.6609120710768828
v 24.634544372558594 67.03667641761852 -2.661086594974816
v 25.884544372558594 66.99431766572295 0.3386310143922913
v 34.63453674316406 67.04667488503479 -2.6609120710768845
v 33.63453674316406 67.04667488503479 -2.6609120710768845
v 33.38453674316406 66.99431766572295 0.3386310143922895
v 44.134552001953125 67.0466748850348 -2.660912071076887
v 43.13453674316406 67.0466748850348 -2.6609120710768868
v 42.884552001953125 66.99431766572295 0.3386310143922872
v 64.13453674316406 67.0466748850348 -2.6609120710768916
v 63.13453674316406 67.0466748850348 -2.6609120710768916
v 62.88453674316406 66.99431766572295 0.3386310143922824
v 73.134521484375 67.03667641761854 -2.6610865949748277
v 72.13453674316406 67.0466748850348 -2.660912071076894
v 74.88453674316406 66.99431766572296 0.3386310143922795
v 76.13453674316406 67.03667641761854 -2.6610865949748286
v 75.13453674316406 67.0466748850348 -2.6609120710768943
v 84.63453674316406 67.0466748850348 -2.660912071076897
v 85.884521484375 66.99431766572296 0.3386310143922769
v 91.63453674316406 67.0466748850348 -2.6609120710768983
v 90.63453674316406 67.0466748850348 -2.6609120710768983
v 90.38453674316406 66.99431766572296 0.3386310143922758
v -99.43272399902342 66.40861588035516 33.89346382517864
v -100.41635131835936 66.39857467137342 33.89573796392525
v -100.42132568359374 66.43347935109671 31.896050201845
v -96.86546325683592 66.3660310339807 36.33314804002241
v -95.61545562744139 66.40878152056517 33.88397430390198
v -95.36546325683592 66.3660310339807 36.33314804002241
v -93.86545562744139 66.3660310339807 36.33314804002241
v -89.36546325683592 66.3660310339807 36.3331480400224
v -88.11545562744139 66.40910707547957 33.86532327534776
v -87.86546325683592 66.3660310339807 36.3331480400224
v -86.36545562744139 66.3660310339807 36.3331480400224
v -81.11546325683592 66.40941105988429 33.84790802046463
v -75.61546325683592 66.40964980015485 33.83423059952487
v -74.11546325683592 66.40971491113773 33.830500393814035
v -72.61546325683592 66.4097801552719 33.82676255987065
v -71.11546325683592 66.40984513310349 33.823039982392345
v -69.86546325683592 66.36603103398072 36.3331480400224
v -66.61546325683592 66.41004046605212 33.811849365259825
v -65.11546325683592 66.4101057101863 33.80811153131644
v -61.115459442138665 66.41027933947397 33.79816431608753
v -57.36546325683593 66.36603103398072 36.333148040022394
v -57.11546325683593 66.41045296876165 33.78821710085861
v -58.36546325683593 66.35603256656444 36.33297351612446
v -58.36546325683592 65.89481632647664 63.32902055277988
v -57.36546325683592 65.88481785906038 63.32884602888195
v -55.865459442138665 66.36603103398072 36.333148040022394
v -52.86546325683593 66.36603103398072 36.333148040022394
v -51.11546325683593 66.41071354584446 33.77328864978271
v -52.36545944213866 65.88481785906038 63.32884602888195
v -49.61546325683593 66.41077852367604 33.7695660723044
v -48.11546325683593 66.41084376781022 33.765828238361024
v -46.615459442138665 66.4109087456418 33.76210566088272
v -45.115459442138665 66.41097398977597 33.75836782693934
v -37.115467071533196 66.41132124835133 33.73847339648152
v -38.36546325683592 65.89481632647666 63.32902055277988
v -35.6154556274414 66.4113863593342 33.73474319077067
v -34.11546325683593 66.41145160346838 33.731005356827296
v -32.61546325683593 66.41151658129996 33.72728277934899
v -31.11546325683593 66.41158182543414 33.72354494540561
v -26.61546325683593 66.41177715838278 33.71235432827308
v -28.11546325683593 66.41171204739989 33.71608453398392
v -25.1154556274414 66.41184213621436 33.70863175079477
v -21.11546325683593 66.41201589865332 33.69867690733332
v -17.365463256835927 66.36603103398072 36.33314804002239
v -17.11546325683593 66.4121896610923 33.68872206387187
v -18.365463256835927 66.35603256656445 36.332973516124454
v -18.365463256835923 65.89481632647666 63.32902055277987
v -17.365463256835923 65.88481785906039 63.32884602888194
v -12.615463256835929 66.41238486088965 33.67753907497188
v -14.115463256835929 66.41231974990676 33.68126928068273
v -11.115455627441397 66.41245010502381 33.67380124102851
v -9.615463256835929 66.4125152160067 33.67007103531766
v -8.115463256835929 66.41258019383828 33.66634845783936
v -1.1154632568359297 66.412884178243 33.64893320295622
v 2.634536743164071 66.36603103398073 36.33314804002238
v 2.8845367431640705 66.41305780753068 33.63898598772731
v 1.6345443725586022 66.35603256656445 36.33297351612445
v 1.6345443725586088 65.89481632647666 63.329020552779866
v 2.6345367431640776 65.88481785906039 63.328846028881934
v 4.3845367431640705 66.41312291851357 33.635255782016465
v 5.8845367431640705 66.41318802949644 33.63152557630563
v 7.384544372558602 66.41325327363062 33.627787742362244
v 11.884536743164071 66.41344860657925 33.61659712522972
v 10.384536743164071 66.41338336244507 33.6203349591731
v 13.384536743164071 66.41351371756213 33.61286691951888
v 14.884544372558603 66.413578828545 33.609136713808034
v 18.8845443725586 66.41375245783269 33.59918949857912
v 24.38453674316407 66.41399133125454 33.585504449406834
v 25.8845443725586 66.41405630908612 33.58178187192853
v 27.38453674316407 66.414121420069 33.57805166621768
v 28.88453674316407 66.41418666420317 33.5743138322743
v 30.38453674316407 66.41425164203476 33.57059125479599
v 34.88453674316407 66.41444710813468 33.55939300943093
v 33.38453674316407 66.4143818640005 33.56313084337431
v 38.88453674316407 66.41462060427106 33.54945342243455
v 42.63453674316407 66.36603103398075 36.33314804002237
v 42.88455200195313 66.41479436671004 33.53949857897311
v 41.63455200195313 66.35603256656447 36.33297351612444
v 41.63455200195314 65.89481632647667 63.32902055277986
v 42.63453674316408 65.8848178590604 63.32884602888193
v 44.38453674316407 66.41485947769291 33.535768373262265
v 47.13453674316407 66.36603103398075 36.33314804002237
v 48.88453674316407 66.41505494379284 33.5245701278972
v 47.63453674316408 65.8848178590604 63.32884602888193
v 50.38453674316407 66.41511992162442 33.5208475504189
v 51.88453674316407 66.4151851657586 33.51710971647552
v 53.38453674316407 66.41525027674147 33.51337951076468
v 54.88453674316407 66.41531525457306 33.50965693328637
v 55.13453674316407 66.36603103398075 36.33314804002237
v 61.63453674316407 66.35603256656447 36.33297351612443
v 62.63455200195313 66.36603103398075 36.333148040022365
v 62.88453674316407 66.41566277945101 33.489747246363464
v 61.63453674316408 65.89481632647667 63.32902055277985
v 62.63455200195314 65.8848178590604 63.32884602888192
v 64.38453674316408 66.4157277572826 33.486024668885165
v 65.88455200195314 66.41579286826547 33.48229446317432
v 67.38452148437501 66.41585797924834 33.478564257463475
v 68.88453674316408 66.41592322338252 33.4748264235201
v 73.38453674316408 66.41611855633116 33.46363580638757
v 71.88453674316408 66.41605331219698 33.467373640330955
v 74.88453674316408 66.41618366731403 33.45990560067673
v 78.88453674316408 66.41635729660172 33.449958385447815
v 82.63453674316408 66.36603103398075 36.333148040022365
v 85.88452148437501 66.41666114785515 33.43255075879722
v 81.63453674316408 66.35603256656448 36.33297351612443
v 81.63453674316408 65.89481632647669 63.32902055277985
v 82.63453674316408 65.8848178590604 63.32884602888191
v 83.13455200195314 66.35603256656448 36.332973516124426
v 87.38453674316408 66.41672639198931 33.428812924853844
v 88.63453674316408 66.36603103398075 36.33314804002236
v 90.38453674316408 66.41685648080379 33.42136014166469
v 91.63453674316408 66.36603103398075 36.33314804002236
v 91.88453674316408 66.45182653781252 31.417926917408533
v 91.63453674316406 66.9419604464111 3.3381740998614493
v 90.38453674316408 66.45176155998094 31.421649494886836
v 88.88453674316408 66.45169631584676 31.425387328830215
v 89.13453674316406 66.93196197899483 3.337999575963516
v 89.13453674316406 66.9419604464111 3.3381740998614498
v 87.38453674316408 66.45163120486389 31.429117534541057
v 87.134521484375 66.9419604464111 3.33817409986145
v 85.88452148437501 66.45156609388101 31.432847740251898
v 82.88453674316408 66.45143600506654 31.440300523441046
v 83.13455200195312 66.93196197899483 3.3379995759635177
v 78.88453674316408 66.45126224262758 31.4502553669025
v 76.13453674316406 66.9419604464111 3.338174099861453
v 74.88453674316408 66.4510884801886 31.460210210363947
v 73.38453674316408 66.45102350235702 31.463932787842253
v 73.63453674316406 66.93196197899483 3.33799957596352
v 73.63453674316406 66.9419604464111 3.3381740998614533
v 72.13453674316406 66.9419604464111 3.3381740998614537
v 72.13453674316406 66.93196197899483 3.3379995759635204
v 71.88453674316408 66.45095839137414 31.467662993553095
v 67.384521484375 66.99431766572295 0.3386310143922813
v 68.88453674316408 66.45082803625709 31.475131033207315
v 68.634521484375 66.9419604464111 3.3381740998614546
v 67.38452148437501 66.4507629252742 31.478861238918157
v 66.13453674316406 66.9419604464111 3.3381740998614555
v 66.13453674316406 66.93196197899483 3.3379995759635217
v 65.88455200195314 66.45069794744262 31.482583816396463
v 64.38453674316408 66.45063257015715 31.48632927857238
v 64.13453674316406 66.9419604464111 3.338174099861456
v 62.88453674316407 66.45056759232557 31.490051856050687
v 53.38453674316406 66.99431766572295 0.33863101439228466
v 54.88453674316407 66.45022033375022 31.50994628650851
v 55.13453674316406 66.9419604464111 3.3381740998614577
v 55.13453674316406 66.93196197899482 3.3379995759635244
v 61.63453674316406 66.93196197899482 3.3379995759635226
v 61.63453674316407 66.47074547260445 30.33406186908402
v 62.634552001953125 66.9419604464111 3.338174099861456
v 62.63455200195313 66.46074700518817 30.333887345186085
v 54.63453674316406 66.9419604464111 3.338174099861458
v 53.38453674316407 66.45015508961605 31.513684120451888
v 51.88453674316407 66.45008997863317 31.517414326162733
v 51.63453674316406 66.9419604464111 3.3381740998614586
v 50.38453674316407 66.45002486765028 31.521144531873578
v 50.38453674316406 66.99431766572295 0.3386310143922854
v 49.13453674316406 66.9419604464111 3.3381740998614595
v 49.13453674316406 66.93196197899482 3.3379995759635257
v 48.88453674316407 66.4499598898187 31.52486710935188
v 44.38453674316407 66.44976442371878 31.536065354716946
v 44.134552001953125 66.9419604464111 3.3381740998614604
v 42.88455200195313 66.4496993127359 31.539795560427788
v 41.634552001953125 66.93196197899482 3.3379995759635275
v 38.88453674316407 66.44952568344821 31.5497427756567
v 34.88453674316407 66.44935205416054 31.559689990885612
v 34.63453674316406 66.94196044641109 3.338174099861463
v 33.38453674316407 66.44928681002636 31.563427824828995
v 28.884536743164062 66.99431766572295 0.3386310143922906
v 30.38453674316407 66.44915658806062 31.570888236250678
v 30.134552001953125 66.94196044641109 3.338174099861464
v 28.88453674316407 66.44909147707773 31.57461844196152
v 27.38453674316407 66.44902649924614 31.578341019439822
v 27.134536743164062 66.94196044641109 3.338174099861465
v 25.8845443725586 66.44896125511198 31.5820788533832
v 24.634544372558594 66.94196044641109 3.3381740998614653
v 24.634544372558594 66.93196197899482 3.3379995759635315
v 24.38453674316407 66.4488961441291 31.585809059094046
v 21.634536743164062 66.94196044641109 3.338174099861466
v 18.8845443725586 66.44865740385855 31.599486480033804
v 16.134536743164062 66.93196197899482 3.3379995759635337
v 16.134536743164062 66.94196044641109 3.3381740998614675
v 14.8845443725586 66.44848377457086 31.609433695262716
v 13.634536743164062 66.93196197899482 3.337999575963534
v 13.38453674316407 66.4484185304367 31.613171529206095
v 14.634536743164062 66.94196044641109 3.3381740998614675
v 13.134544372558594 66.93196197899482 3.337999575963534
v 11.88453674316407 66.44835341945381 31.616901734916937
v 10.38453674316407 66.44828844162222 31.62062431239524
v 10.634536743164062 66.93196197899482 3.337999575963535
v 7.134536743164063 66.94196044641109 3.3381740998614693
v 7.384544372558602 66.44815808650517 31.62809235204946
v 5.8845367431640705 66.4480929755223 31.63182255776031
v 4.3845367431640705 66.44802786453943 31.63555276347115
v 4.634536743164063 66.9319619789948 3.3379995759635364
v 4.634536743164063 66.94196044641109 3.33817409986147
v 3.134536743164063 66.94196044641109 3.3381740998614706
v 3.134536743164063 66.9319619789948 3.337999575963537
v 2.8845367431640696 66.44796288670784 31.639275340949453
v -3.865463256835937 66.94196044641109 3.338174099861472
v -1.1154632568359302 66.44778912426887 31.649230184410904
v -8.11546325683593 66.44748513986414 31.666645439294037
v -5.365455627441405 66.94196044641109 3.3381740998614724
v -8.365463256835938 66.94196044641109 3.3381740998614733
v -9.61546325683593 66.44742002888125 31.67037564500488
v -11.1154556274414 66.44735491789838 31.674105850715723
v -10.865463256835938 66.9319619789948 3.33799957596354
v -10.865463256835938 66.94196044641109 3.3381740998614737
v -12.61546325683593 66.4472898069155 31.677836056426564
v -12.865455627441406 66.94196044641109 3.338174099861474
v -14.11546325683593 66.44722482908392 31.68155863390487
v -14.115463256835938 66.99431766572293 0.3386310143923009
v -17.11546325683593 66.44709447396687 31.68902667355909
v -16.865463256835938 66.9319619789948 3.3379995759635417
v -23.865455627441406 66.94196044641107 3.338174099861477
v -21.11546325683593 66.4469207115279 31.698981517020542
v -25.1154556274414 66.44674721539151 31.70892110401692
v -25.365463256835938 66.94196044641107 3.3381740998614773
v -26.61546325683593 66.44668197125733 31.7126589379603
v -26.865463256835938 66.94196044641107 3.3381740998614777
v -28.11546325683593 66.44661686027446 31.71638914367114
v -32.61546325683594 66.99431766572293 0.33863101439230536
v -31.11546325683593 66.44648677146 31.723841926860285
v -31.365463256835938 66.94196044641107 3.3381740998614786
v -32.61546325683593 66.44642152732582 31.727579760803668
v -34.11546325683593 66.44635641634295 31.73130996651451
v -34.365455627441406 66.94196044641107 3.3381740998614795
v -35.6154556274414 66.44629130536006 31.73504017222535
v -36.86546325683594 66.94196044641107 3.33817409986148
v -36.86546325683594 66.9319619789948 3.3379995759635466
v -37.115467071533196 66.44622619437719 31.73877037793619
v -46.61545944213867 66.99431766572292 0.33863101439230875
v -45.115459442138665 66.44587893580183 31.75866480839402
v -44.86545944213867 66.94196044641107 3.338174099861482
v -44.86545944213867 66.9319619789948 3.3379995759635483
v -38.36546325683594 66.9319619789948 3.3379995759635466
v -38.36546325683593 66.47074547260442 30.334061869084046
v -37.36546325683594 66.94196044641107 3.3381740998614804
v -37.36546325683593 66.46074700518815 30.33388734518611
v -45.36546325683594 66.94196044641107 3.338174099861482
v -46.615459442138665 66.44581369166767 31.7624026423374
v -48.11546325683593 66.44574871383608 31.766125219815702
v -48.36545944213867 66.94196044641107 3.338174099861483
v -49.61546325683593 66.4456834697019 31.76986305375908
v -49.61546325683594 66.99431766572292 0.33863101439230947
v -50.86546325683594 66.94196044641107 3.3381740998614835
v -50.86546325683594 66.93196197899479 3.3379995759635497
v -51.11546325683593 66.44561835871903 31.773593259469923
v -55.615459442138665 66.4454230257704 31.784783876602454
v -55.86545944213867 66.94196044641107 3.338174099861485
v -57.11546325683593 66.44535791478751 31.788514082313295
v -58.36546325683594 66.93196197899479 3.3379995759635515
v -61.115459442138665 66.44518428549983 31.798461297542207
v -65.11546325683592 66.44501065621216 31.80840851277112
v -65.36546325683594 66.94196044641107 3.338174099861487
v -66.61546325683592 66.44494541207798 31.8121463467145
v -71.11546325683594 66.99431766572292 0.33863101439231463
v -69.61545562744139 66.44481532326353 31.819599129903647
v -69.86546325683594 66.94196044641107 3.338174099861488
v -71.11546325683592 66.44475007912935 31.823336963847026
v -72.61546325683592 66.44468496814648 31.82706716955787
v -72.86546325683594 66.94196044641107 3.338174099861489
v -74.11546325683592 66.44461985716359 31.830797375268713
v -75.36546325683594 66.94196044641107 3.3381740998614893
v -75.36546325683594 66.93196197899479 3.3379995759635555
v -75.61546325683592 66.44455474618071 31.834527580979554
v -81.11546325683592 66.44431600591015 31.848205001919307
v -83.86546325683594 67.04667488503476 -2.660912071076856
v -86.86546325683594 66.94196044641106 3.338174099861492
v -85.11546325683592 66.44414224347119 31.85815984538076
v -86.3654556274414 66.94196044641106 3.338174099861492
v -86.61546325683592 66.4440772656396 31.861882422859065
v -92.36546325683594 66.94196044641106 3.3381740998614933
v -90.86546325683594 66.93196197899479 3.3379995759635595
v -90.86546325683592 66.4707454726044 30.334061869084056
v -89.61546325683592 66.44394691052256 31.869350462513285
v -92.61546325683592 66.4438166885568 31.87681087393497
v -89.36546325683594 66.94196044641106 3.338174099861493
v -88.11545562744139 66.44401202150543 31.865620256802444
v -93.8654556274414 66.94196044641106 3.3381740998614937
v -95.61545562744139 66.44368633343974 31.884278913589192
v -94.36546325683594 66.94196044641106 3.3381740998614937
v -94.36546325683592 66.46074700518814 30.333887345186124
v -97.11546325683592 66.44362135560816 31.888001491067495
v -96.86546325683594 66.94196044641106 3.3381740998614946
v 94.63453674316406 67.03667641761854 -2.661086594974833
v 93.63453674316406 67.0466748850348 -2.6609120710768988
v 95.13453674316405 67.50789145800084 -29.656978178313665
v 96.13453674316405 67.51788992541711 -29.656803654415732
v 94.63453674316405 67.51788992541711 -29.65680365441573
v 93.63453674316405 67.50789145800084 -29.656978178313665
v 93.13453674316405 67.51788992541711 -29.65680365441573
v 90.38453674316405 67.54734079470438 -31.34404282587587
v 90.63453674316405 67.50789145800084 -29.656978178313665
v 91.63453674316405 67.51788992541711 -29.65680365441573
v 87.134521484375 67.0466748850348 -2.6609120710768974
v 87.13452148437499 67.51788992541711 -29.65680365441573
v 86.13453674316405 67.50789145800084 -29.65697817831366
v 85.88452148437499 67.54734079470438 -31.34404282587587
v 86.13453674316406 67.0466748850348 -2.660912071076897
v 84.63453674316405 67.50789145800084 -29.65697817831366
v 84.13453674316405 67.51788992541711 -29.65680365441573
v 83.13455200195312 67.03667641761854 -2.66108659497483
v 83.13455200195311 67.50789145800084 -29.65697817831366
v 81.63453674316406 67.0466748850348 -2.660912071076896
v 81.63453674316405 67.50789145800084 -29.65697817831366
v 78.88453674316405 67.54734079470438 -31.344042825875867
v 82.63453674316405 67.51788992541711 -29.65680365441573
v 82.63453674316406 67.03667641761854 -2.66108659497483
v 76.13453674316405 67.51788992541711 -29.656803654415725
v 74.88453674316405 67.54734079470438 -31.344042825875867
v 75.13453674316405 67.50789145800083 -29.65697817831366
v 74.63453674316405 67.51788992541711 -29.656803654415725
v 74.63453674316406 67.0466748850348 -2.6609120710768943
v 73.63453674316405 67.50789145800083 -29.656978178313658
v 73.63453674316406 67.03667641761854 -2.6610865949748277
v 71.88453674316405 67.53261532677291 -30.50042133308766
v 72.13453674316405 67.50789145800083 -29.656978178313658
v 73.13452148437499 67.51788992541711 -29.656803654415725
v 70.13453674316405 67.51788992541711 -29.656803654415725
v 68.634521484375 67.0466748850348 -2.660912071076893
v 70.63453674316405 67.50789145800083 -29.656978178313658
v 68.63452148437499 67.51788992541711 -29.656803654415725
v 67.63453674316405 67.50789145800083 -29.656978178313658
v 67.38452148437499 67.54734079470437 -31.344042825875867
v 67.63453674316406 67.0466748850348 -2.6609120710768925
v 65.88455200195311 67.54734079470437 -31.344042825875867
v 66.13453674316406 67.0466748850348 -2.660912071076892
v 62.884536743164055 67.54734079470437 -31.344042825875864
v 63.134536743164055 67.50789145800083 -29.656978178313658
v 64.13453674316405 67.51788992541711 -29.65680365441572
v 56.134536743164055 67.51788992541711 -29.65680365441572
v 54.63453674316406 67.0466748850348 -2.6609120710768894
v 61.63453674316406 67.0466748850348 -2.660912071076891
v 61.634536743164055 67.50789145800083 -29.656978178313658
v 61.63453674316406 67.03667641761852 -2.661086594974825
v 54.634536743164055 67.51788992541711 -29.65680365441572
v 53.634536743164055 67.50789145800083 -29.656978178313654
v 53.384536743164055 67.54734079470437 -31.344042825875864
v 53.63453674316406 67.0466748850348 -2.6609120710768894
v 51.63453674316406 67.0466748850348 -2.660912071076889
v 51.634536743164055 67.51788992541711 -29.65680365441572
v 50.634536743164055 67.50789145800083 -29.656978178313654
v 50.384536743164055 67.54734079470437 -31.34404282587586
v 50.63453674316406 67.0466748850348 -2.6609120710768885
v 47.634536743164055 67.50789145800083 -29.656978178313654
v 50.13453674316406 67.03667641761852 -2.6610865949748224
v 50.13453674316406 67.0466748850348 -2.6609120710768885
v 46.13453674316406 67.0466748850348 -2.6609120710768877
v 48.63455200195312 67.5178899254171 -29.656803654415718
v 48.634552001953125 67.0466748850348 -2.660912071076888
v 47.134536743164055 67.5178899254171 -29.656803654415718
v 46.134536743164055 67.50789145800083 -29.656978178313654
v 45.634536743164055 67.5178899254171 -29.656803654415718
v 42.88455200195312 67.54734079470437 -31.34404282587586
v 43.134536743164055 67.50789145800083 -29.65697817831365
v 44.13455200195312 67.5178899254171 -29.656803654415718
v 41.634552001953125 67.03667641761852 -2.66108659497482
v 38.884536743164055 67.54734079470437 -31.34404282587586
v 36.134536743164055 67.50789145800083 -29.65697817831365
v 36.134536743164055 67.5178899254171 -29.656803654415718
v 33.384536743164055 67.54734079470437 -31.344042825875857
v 33.634536743164055 67.50789145800083 -29.65697817831365
v 34.634536743164055 67.5178899254171 -29.656803654415715
v 31.634536743164055 67.5178899254171 -29.656803654415715
v 30.134552001953125 67.04667488503479 -2.6609120710768837
v 32.134536743164055 67.50789145800083 -29.65697817831365
v 30.134552001953118 67.5178899254171 -29.656803654415715
v 29.134536743164055 67.50789145800083 -29.656978178313647
v 28.884536743164055 67.54734079470437 -31.344042825875857
v 29.134536743164062 67.04667488503479 -2.660912071076883
v 27.134536743164062 67.04667488503479 -2.6609120710768828
v 27.134536743164055 67.5178899254171 -29.656803654415715
v 26.134536743164055 67.50789145800083 -29.656978178313647
v 25.884544372558587 67.54734079470437 -31.344042825875857
v 26.134536743164062 67.04667488503479 -2.6609120710768828
v 24.634544372558587 67.50789145800083 -29.656978178313647
v 25.634544372558587 67.5178899254171 -29.656803654415715
v 23.134536743164062 67.04667488503479 -2.660912071076882
v 23.134536743164055 67.50789145800083 -29.656978178313647
v 18.884544372558587 67.54734079470437 -31.344042825875853
v 24.134536743164055 67.5178899254171 -29.656803654415715
v 24.134536743164062 67.03667641761852 -2.6610865949748157
v 16.134536743164055 67.5178899254171 -29.65680365441571
v 13.634536743164055 67.50789145800081 -29.656978178313643
v 15.134536743164055 67.50789145800081 -29.656978178313643
v 11.884536743164055 67.54734079470435 -31.344042825875853
v 12.134536743164055 67.50789145800081 -29.656978178313643
v 13.134544372558587 67.5178899254171 -29.65680365441571
v 11.634536743164062 67.03667641761852 -2.661086594974813
v 11.634536743164062 67.04667488503479 -2.660912071076879
v 9.134544372558587 67.50789145800081 -29.656978178313643
v 10.134536743164055 67.5178899254171 -29.65680365441571
v 8.634536743164055 67.5178899254171 -29.65680365441571
v 5.8845367431640545 67.54734079470435 -31.34404282587585
v 6.134544372558587 67.50789145800081 -29.656978178313643
v 7.134536743164055 67.5178899254171 -29.65680365441571
v 5.634544372558587 67.5178899254171 -29.656803654415707
v 5.634544372558593 67.04667488503479 -2.660912071076878
v 4.634536743164055 67.50789145800081 -29.656978178313643
v 4.634536743164062 67.03667641761851 -2.6610865949748113
v 3.134536743164055 67.50789145800081 -29.656978178313643
v 2.634536743164055 67.50789145800081 -29.656978178313643
v 2.6345367431640616 67.03667641761851 -2.661086594974811
v 1.634544372558586 67.50789145800081 -29.656978178313643
v -1.1154632568359457 67.54734079470435 -31.34404282587585
v 1.6345443725585926 67.04667488503479 -2.660912071076877
v -5.365455627441407 67.03667641761851 -2.661086594974809
v -6.365463256835938 67.04667488503479 -2.6609120710768748
v -5.365455627441413 67.51788992541708 -29.656803654415707
v -4.865463256835945 67.50789145800081 -29.65697817831364
v -6.365463256835945 67.50789145800081 -29.65697817831364
v -6.865463256835945 67.51788992541708 -29.656803654415707
v -9.615463256835945 67.54734079470435 -31.344042825875846
v -9.365455627441413 67.50789145800081 -29.65697817831364
v -8.365463256835945 67.51788992541708 -29.656803654415707
v -10.865463256835938 67.04667488503479 -2.660912071076874
v -11.115455627441413 67.54734079470435 -31.344042825875846
v -12.865455627441406 67.04667488503479 -2.6609120710768734
v -12.865455627441413 67.51788992541708 -29.656803654415704
v -13.865463256835945 67.50789145800081 -29.656978178313636
v -14.115463256835945 67.54734079470435 -31.344042825875846
v -13.865463256835938 67.04667488503479 -2.660912071076873
v -15.365463256835938 67.04667488503478 -2.6609120710768726
v -15.365463256835945 67.50789145800081 -29.656978178313636
v -15.865455627441413 67.51788992541708 -29.656803654415704
v -16.865463256835938 67.03667641761851 -2.661086594974806
v -16.865463256835945 67.50789145800081 -29.656978178313636
v -18.365463256835938 67.04667488503478 -2.660912071076872
v -18.365463256835945 67.50789145800081 -29.656978178313636
v -21.115463256835945 67.54734079470435 -31.344042825875846
v -17.365463256835945 67.51788992541708 -29.656803654415704
v -17.365463256835938 67.03667641761851 -2.661086594974806
v -23.865455627441413 67.51788992541708 -29.6568036544157
v -26.365463256835945 67.50789145800081 -29.656978178313636
v -24.865463256835945 67.50789145800081 -29.656978178313636
v -28.115463256835945 67.54734079470435 -31.344042825875842
v -27.865463256835945 67.50789145800081 -29.656978178313636
v -26.865463256835945 67.51788992541708 -29.6568036544157
v -29.865463256835945 67.51788992541708 -29.6568036544157
v -31.365463256835938 67.04667488503478 -2.660912071076869
v -29.365463256835945 67.50789145800081 -29.656978178313633
v -31.365463256835945 67.51788992541708 -29.6568036544157
v -32.365463256835945 67.50789145800081 -29.656978178313633
v -32.615463256835945 67.54734079470435 -31.344042825875842
v -32.36546325683594 67.04667488503478 -2.6609120710768686
v -34.365455627441406 67.04667488503478 -2.660912071076868
v -34.36545562744141 67.51788992541708 -29.6568036544157
v -35.365463256835945 67.50789145800081 -29.656978178313633
v -35.61545562744141 67.54734079470435 -31.344042825875842
v -35.36546325683594 67.04667488503478 -2.6609120710768677
v -36.865463256835945 67.50789145800081 -29.656978178313633
v -35.865463256835945 67.51788992541708 -29.6568036544157
v -43.86546325683594 67.03667641761851 -2.6610865949747997
v -44.86545944213867 67.04667488503478 -2.6609120710768654
v -38.36546325683594 67.04667488503478 -2.6609120710768672
v -38.365463256835945 67.5078914580008 -29.656978178313633
v -43.865463256835945 67.51788992541708 -29.656803654415697
v -44.86545944213868 67.5078914580008 -29.65697817831363
v -37.365463256835945 67.51788992541708 -29.6568036544157
v -37.36546325683594 67.03667641761851 -2.661086594974801
v -45.365463256835945 67.5078914580008 -29.65697817831363
v -45.36546325683594 67.03667641761851 -2.6610865949747993
v -46.36545944213868 67.5078914580008 -29.65697817831363
v -46.61545944213868 67.54734079470434 -31.34404282587584
v -46.36545944213867 67.04667488503478 -2.6609120710768654
v -48.36545944213867 67.04667488503478 -2.6609120710768646
v -48.36545944213868 67.51788992541708 -29.656803654415697
v -49.365463256835945 67.5078914580008 -29.65697817831363
v -49.615463256835945 67.54734079470434 -31.34404282587584
v -49.36546325683594 67.04667488503478 -2.6609120710768646
v -52.36545944213868 67.5078914580008 -29.65697817831363
v -49.86546325683594 67.0366764176185 -2.661086594974798
v -49.86546325683594 67.04667488503478 -2.6609120710768646
v -53.86545944213867 67.04667488503478 -2.6609120710768632
v -51.365463256835945 67.51788992541708 -29.656803654415697
v -51.36546325683594 67.04667488503478 -2.660912071076864
v -52.865463256835945 67.51788992541708 -29.656803654415697
v -53.86545944213868 67.5078914580008 -29.65697817831363
v -54.36545944213868 67.51788992541708 -29.656803654415693
v -57.115463256835945 67.54734079470434 -31.344042825875835
v -56.865463256835945 67.5078914580008 -29.65697817831363
v -55.86545944213868 67.51788992541708 -29.656803654415693
v -58.36546325683594 67.0366764176185 -2.661086594974796
v -61.11545944213868 67.54734079470434 -31.344042825875835
v -63.86545944213868 67.5078914580008 -29.656978178313626
v -63.86545944213868 67.51788992541707 -29.656803654415693
v -66.61546325683595 67.54734079470434 -31.344042825875835
v -66.36546325683595 67.5078914580008 -29.656978178313626
v -65.36546325683595 67.51788992541707 -29.656803654415693
v -68.36546325683595 67.51788992541707 -29.65680365441569
v -69.86546325683594 67.04667488503478 -2.6609120710768597
v -67.86546325683595 67.5078914580008 -29.656978178313626
v -69.86546325683595 67.51788992541707 -29.65680365441569
v -70.86546325683595 67.5078914580008 -29.656978178313626
v -71.11546325683595 67.54734079470434 -31.34404282587583
v -70.86546325683594 67.04667488503478 -2.6609120710768592
v -72.86546325683594 67.04667488503476 -2.660912071076859
v -72.86546325683595 67.51788992541707 -29.65680365441569
v -73.86546325683595 67.5078914580008 -29.656978178313622
v -74.11546325683595 67.54734079470434 -31.34404282587583
v -73.86546325683594 67.04667488503476 -2.660912071076859
v -75.36546325683595 67.5078914580008 -29.656978178313622
v -74.36546325683595 67.51788992541707 -29.65680365441569
v -78.36546325683594 67.0366764176185 -2.6610865949747913
v -77.36546325683595 67.5078914580008 -29.656978178313622
v -81.11546325683595 67.54734079470434 -31.34404282587583
v -75.86546325683595 67.51788992541707 -29.65680365441569
v -75.86546325683594 67.0366764176185 -2.6610865949747917
v -76.86546325683594 67.0366764176185 -2.6610865949747917
v -84.86546325683595 67.5078914580008 -29.656978178313622
v -85.36546325683594 67.04667488503476 -2.6609120710768557
v -83.86546325683595 67.51788992541707 -29.656803654415686
v -86.3654556274414 67.04667488503476 -2.6609120710768557
v -86.61546325683595 67.53261532677288 -30.500421333087623
v -86.36545562744142 67.5078914580008 -29.656978178313622
v -85.36546325683595 67.51788992541707 -29.656803654415686
v -88.11545562744142 67.54734079470434 -31.344042825875828
v -87.86546325683594 66.94196044641106 3.3381740998614924
v -88.36546325683594 67.04667488503476 -2.6609120710768552
v -92.61546325683595 67.54734079470434 -31.344042825875828
v -92.86546325683594 67.04667488503476 -2.660912071076854
v -93.86545562744142 67.50789145800078 -29.65697817831362
v -92.86546325683594 67.0366764176185 -2.6610865949747877
v -95.36546325683594 67.04667488503476 -2.6609120710768535
v -95.36546325683595 67.50789145800078 -29.65697817831362
v -95.61545562744142 67.54734079470434 -31.344042825875828
v -94.36546325683594 67.04667488503476 -2.660912071076854
v -94.36546325683595 67.51788992541707 -29.656803654415686
v -95.36546325683594 66.93196197899479 3.3379995759635603
v -95.86546325683594 67.04667488503476 -2.6609120710768535
v -96.86546325683595 67.50789145800078 -29.65697817831362
v -95.86546325683594 67.0366764176185 -2.661086594974787
v -98.36546325683595 67.50789145800078 -29.65697817831362
v -99.43272399902345 67.54734079470433 -31.344042825875825
v -97.36545562744142 67.51788992541707 -29.656803654415683
v 68.88453674316405 67.54734079470437 -31.344042825875867
v 64.38453674316405 67.54734079470437 -31.344042825875864
v 54.884536743164055 67.54734079470437 -31.344042825875864
v 51.884536743164055 67.54734079470437 -31.344042825875864
v 48.884536743164055 67.54734079470437 -31.34404282587586
v 44.384536743164055 67.54734079470437 -31.34404282587586
v 34.884536743164055 67.54734079470437 -31.344042825875857
v 30.384536743164055 67.54734079470437 -31.344042825875857
v 27.384536743164055 67.54734079470437 -31.344042825875857
v 24.384536743164055 67.54734079470437 -31.344042825875857
v 14.884544372558587 67.54734079470435 -31.344042825875853
v 13.384536743164055 67.54734079470435 -31.344042825875853
v 10.384536743164055 67.54734079470435 -31.344042825875853
v 7.384544372558586 67.54734079470435 -31.344042825875853
v 4.3845367431640545 67.54734079470435 -31.34404282587585
v 2.8845367431640545 67.54734079470435 -31.34404282587585
v -8.115463256835945 67.54734079470435 -31.34404282587585
v -12.615463256835945 67.54734079470435 -31.344042825875846
v -17.115463256835945 67.54734079470435 -31.344042825875846
v -25.115455627441413 67.54734079470435 -31.344042825875842
v -26.615463256835945 67.54734079470435 -31.344042825875842
v -31.115463256835945 67.54734079470435 -31.344042825875842
v -34.115463256835945 67.54734079470435 -31.344042825875842
v -37.11546707153321 67.54734079470435 -31.344042825875842
v -45.11545944213868 67.54734079470434 -31.34404282587584
v -48.115463256835945 67.54734079470434 -31.34404282587584
v -51.115463256835945 67.54734079470434 -31.34404282587584
v -55.61545944213868 67.54734079470434 -31.344042825875835
v -65.11546325683595 67.54734079470434 -31.344042825875835
v -69.61545562744142 67.54734079470434 -31.34404282587583
v -100.11125946044923 65.14716901527702 -65.016060010601
v 100.11126708984374 65.14716901527706 -65.01606001060105
v -100.16513061523436 62.89099386299509 65.12953198170587
v 100.00001525878908 62.87641456625774 65.07537524659178
v 100.49685668945311 65.57858501753836 -65.00852961627051
v 100.00001525878905 65.42551198238208 -65.46175536706393
v 100.00001525878905 65.58725636242377 -65.50531063204325
v 100.45048522949217 65.417649931063 -65.01133874865417
v 100.42335510253905 65.3685832323236 -65.01219521106647
v 100.39093017578124 65.32286127516964 -65.01299329079724
v 100.48745727539061 65.5233152546435 -65.0094943535704
v 100.47193908691405 65.46944431889021 -65.01043467425173
v 100.35356140136717 65.28105915681975 -65.01372294948717
v 100.00001525878905 65.24914320520575 -65.32607222189507
v 100.26602172851561 65.21126106748382 -65.01494127966839
v 100.21694946289061 65.18414293919524 -65.0154146283584
v 100.00001525878905 65.3759719307917 -65.43549346280538
v 100.00001525878905 65.1655709525205 -65.18090220340635
v 100.31173706054686 65.24370251017224 -65.01437501217991
v 100.00001525878905 65.21590365365972 -65.28091486355372
v 100.00001525878905 65.28722952094566 -65.36722287350788
v 100.00001525878905 65.32968368118338 -65.40384866955414
v 100.00001525878905 65.18792909624666 -65.23232342056247
v 100.16514587402342 65.16268889275689 -65.01578911013196
v 100.00001525878905 65.47768079164868 -65.48230188255697
v 100.00001525878905 65.53182269028572 -65.49688501508948
v 100.00001525878908 63.047226298611626 65.35804720182544
v 100.11126708984376 62.878356444732795 64.96412510326473
v 100.16514587402345 62.89387632221262 64.96439600373382
v 100.21694946289064 62.91533036865096 64.96477048550739
v 100.26602172851564 62.94244849693955 64.9652438341974
v 100.31173706054689 62.97488993962797 64.96581010168588
v 100.3535614013672 63.01224658627549 64.96646216437861
v 100.39093017578126 63.054048704625366 64.96719182306855
v 100.42335510253908 63.09977066177933 64.96798990279932
v 100.4504852294922 63.148837360518726 64.96884636521162
v 100.47193908691408 63.20063174834594 64.96975043961406
v 100.48745727539064 63.25450268409923 64.97069076029538
v 100.49685668945314 63.30977244699409 64.97165549759528
v -100.00000000000001 65.1879290962466 -65.23232342056242
v -100.00000000000001 65.21590365365967 -65.28091486355368
v -100.00000000000001 65.24914320520571 -65.32607222189502
v -100.00000000000001 65.2872295209456 -65.36722287350784
v -100.00000000000001 65.32968368118333 -65.4038486695541
v -100.00000000000001 65.37597193079165 -65.43549346280534
v -100.00000000000001 65.42551198238203 -65.46175536706387
v -100.00000000000001 65.47768079164862 -65.48230188255691
v -100.00000000000001 65.53182269028568 -65.49688501508943
v -100.00000000000001 65.58725636242373 -65.5053106320432
v -100.42335510253908 65.36858323232354 -65.01219521106643
v 100.00001525878908 63.245994849003125 65.45810430651207
v 100.00001525878908 63.19239500928489 65.44163290438438
v 100.00001525878908 63.14097504289705 65.41927824008646
v 100.00001525878908 63.09238183015993 65.39129578277077
v 100.00001525878908 63.00607608899829 65.31996971663186
v 100.00001525878908 62.96944884514056 65.27753019609865
v 100.00001525878908 62.93780577761234 65.23122504631526
v 100.00001525878908 62.91154381214566 65.18170216240907
v 100.00001525878908 62.89099386299514 65.12953198170582
v -100.21693420410158 65.18414293919518 -65.01541462835836
v -100.26601409912111 65.21126106748376 -65.01494127966835
v -100.31173706054689 65.24370251017218 -65.01437501217985
v -100.16513061523439 65.16268889275683 -65.01578911013192
v -100.35355377197267 65.28105915681971 -65.01372294948713
v -100.4504852294922 65.41764993106294 -65.01133874865411
v -100.47193908691408 65.46944431889015 -65.01043467425167
v -100.48745727539064 65.52331525464345 -65.00949435357036
v -100.49685668945314 65.5785850175383 -65.00852961627047
v -100.21693420410155 62.91154381214561 65.18170216240911
v -100.26601409912108 62.93780577761229 65.2312250463153
v -100.31173706054686 62.96944884514051 65.27753019609871
v -100.35355377197264 63.00607608899824 65.3199697166319
v -100.39091491699217 63.04722629861158 65.35804720182549
v -100.40777587890624 63.0693376747784 65.37531194875694
v -100.42335510253905 63.09238183015988 65.39129578277081
v -100.43760681152342 63.11628599481415 65.40596691143624
v -100.45048522949217 63.140975042897 65.41927824008651
v -100.46193695068358 63.1663713455504 65.43118263036466
v -100.47193908691405 63.19239500928484 65.44163290438443
v -100.48045349121092 63.21896391140938 65.45062762868892
v -100.48745727539061 63.245994849003075 65.45810430651211
v -100.49292755126952 63.27340262832586 65.46404618967836
v -100.49685668945311 63.30110083580603 65.46845176983314
v -100.49920654296874 63.32900263694797 65.47128900904791
v 95.13453674316405 67.61260583004889 -35.656060535135744
v 96.13453674316405 68.0838208704312 -62.651952118474576
v 91.63453674316405 67.61260583004889 -35.656060535135744
v 89.13453674316405 67.61260583004889 -35.656060535135744
v 87.13452148437499 67.61260583004889 -35.656060535135744
v 68.63452148437499 67.61260583004889 -35.65606053513574
v 55.134536743164055 67.61260583004888 -35.65606053513574
v 56.13453674316405 68.08382087043118 -62.65195211847457
v 33.13453674316405 68.08382087043118 -62.65195211847456
v 33.134536743164055 67.61260583004888 -35.65606053513573
v 10.134536743164047 68.08382087043117 -62.651952118474554
v 10.134536743164054 67.61260583004888 -35.65606053513572
v -14.365463256835953 68.08382087043117 -62.65195211847455
v -14.365463256835946 67.61260583004886 -35.656060535135715
v -24.865463256835945 67.61260583004886 -35.656060535135715
v -23.86545562744142 68.08382087043117 -62.65195211847455
v -28.36546325683595 68.08382087043117 -62.65195211847455
v -28.365463256835945 67.61260583004886 -35.656060535135715
v -44.86545944213868 67.61260583004886 -35.65606053513571
v -43.86546325683595 68.08382087043115 -62.65195211847454
v -64.86546325683595 67.61260583004885 -35.65606053513571
v -63.865459442138686 68.08382087043115 -62.65195211847454
v -69.86546325683595 67.61260583004885 -35.6560605351357
v 96.13453674316405 67.50789145800084 -29.656978178313665
v 93.63453674316406 67.03667641761854 -2.6610865949748326
v 94.63453674316405 67.50789145800084 -29.656978178313665
v 90.63453674316406 67.03667641761854 -2.661086594974832
v 91.63453674316405 67.50789145800084 -29.656978178313665
v 91.63453674316406 67.03667641761854 -2.661086594974832
v 86.13453674316406 67.03667641761854 -2.661086594974831
v 87.13452148437499 67.50789145800084 -29.65697817831366
v 87.134521484375 67.03667641761854 -2.6610865949748312
v 81.63453674316406 67.03667641761854 -2.66108659497483
v 82.63453674316405 67.50789145800084 -29.65697817831366
v 81.63453674316408 65.8848178590604 63.32884602888192
v 82.63453674316408 66.35603256656448 36.332973516124426
v 75.13453674316406 67.03667641761854 -2.661086594974828
v 76.13453674316405 67.50789145800083 -29.65697817831366
v 74.63453674316405 67.50789145800083 -29.656978178313658
v 74.63453674316406 67.03667641761854 -2.661086594974828
v 72.13453674316406 67.03667641761854 -2.6610865949748277
v 73.13452148437499 67.50789145800083 -29.656978178313658
v 67.63453674316406 67.03667641761854 -2.6610865949748264
v 68.63452148437499 67.50789145800083 -29.656978178313658
v 68.634521484375 67.03667641761854 -2.661086594974827
v 63.13453674316406 67.03667641761852 -2.6610865949748255
v 64.13453674316405 67.50789145800083 -29.656978178313658
v 64.13453674316406 67.03667641761852 -2.6610865949748255
v 61.63453674316408 65.8848178590604 63.32884602888192
v 62.63455200195313 66.35603256656447 36.33297351612443
v 61.63453674316407 66.46074700518817 30.333887345186085
v 62.634552001953125 66.93196197899482 3.3379995759635226
v 55.13453674316407 66.35603256656447 36.33297351612443
v 53.63453674316406 67.03667641761852 -2.661086594974823
v 54.634536743164055 67.50789145800083 -29.656978178313654
v 54.63453674316406 67.03667641761852 -2.6610865949748232
v 50.63453674316406 67.03667641761852 -2.6610865949748224
v 51.634536743164055 67.50789145800083 -29.656978178313654
v 51.63453674316406 67.03667641761852 -2.6610865949748224
v 47.63453674316406 67.03667641761852 -2.6610865949748215
v 48.63455200195312 67.50789145800083 -29.656978178313654
v 48.634552001953125 67.03667641761852 -2.661086594974822
v 46.13453674316406 67.03667641761852 -2.661086594974821
v 47.134536743164055 67.50789145800083 -29.656978178313654
v 43.13453674316406 67.03667641761852 -2.6610865949748206
v 44.13455200195312 67.50789145800083 -29.65697817831365
v 44.134552001953125 67.03667641761852 -2.6610865949748206
v 41.63455200195314 65.8848178590604 63.32884602888193
v 42.63453674316407 66.35603256656447 36.33297351612444
v 33.63453674316406 67.03667641761852 -2.6610865949748184
v 34.634536743164055 67.50789145800083 -29.65697817831365
v 34.63453674316406 67.03667641761852 -2.6610865949748184
v 29.134536743164062 67.03667641761852 -2.661086594974817
v 30.134552001953118 67.50789145800083 -29.656978178313647
v 30.134552001953125 67.03667641761852 -2.6610865949748175
v 26.134536743164062 67.03667641761852 -2.6610865949748166
v 27.134536743164055 67.50789145800083 -29.656978178313647
v 27.134536743164062 67.03667641761852 -2.6610865949748166
v 25.634544372558587 67.50789145800083 -29.656978178313647
v 25.634544372558594 67.03667641761852 -2.661086594974816
v 23.134536743164062 67.03667641761852 -2.6610865949748157
v 24.134536743164055 67.50789145800083 -29.656978178313647
v 15.134536743164062 67.03667641761852 -2.661086594974814
v 16.134536743164055 67.50789145800081 -29.656978178313647
v 12.134536743164062 67.03667641761852 -2.661086594974813
v 13.134544372558587 67.50789145800081 -29.656978178313643
v 13.134544372558594 67.03667641761852 -2.6610865949748135
v 9.134544372558594 67.03667641761851 -2.661086594974812
v 10.134536743164055 67.50789145800081 -29.656978178313643
v 10.134536743164062 67.03667641761851 -2.6610865949748126
v 6.134544372558593 67.03667641761851 -2.6610865949748117
v 7.134536743164055 67.50789145800081 -29.656978178313643
v 7.134536743164062 67.03667641761851 -2.6610865949748117
v 5.634544372558587 67.50789145800081 -29.656978178313643
v 5.634544372558593 67.03667641761851 -2.6610865949748113
v 1.6345443725585926 67.03667641761851 -2.6610865949748104
v 1.6345443725586088 65.88481785906039 63.328846028881934
v 2.634536743164071 66.35603256656445 36.33297351612445
v -4.86546325683593 66.46074700518815 30.333887345186103
v -3.865463256835937 66.9319619789948 3.3379995759635386
v -6.365463256835938 67.03667641761851 -2.6610865949748086
v -5.365455627441413 67.50789145800081 -29.65697817831364
v -9.365455627441406 67.03667641761851 -2.6610865949748077
v -8.365463256835945 67.50789145800081 -29.65697817831364
v -8.365463256835938 67.03667641761851 -2.661086594974808
v -13.865463256835938 67.03667641761851 -2.661086594974807
v -12.865455627441413 67.50789145800081 -29.65697817831364
v -12.865455627441406 67.03667641761851 -2.661086594974807
v -18.365463256835938 67.03667641761851 -2.6610865949748055
v -17.365463256835945 67.50789145800081 -29.656978178313636
v -18.365463256835923 65.88481785906039 63.32884602888194
v -17.365463256835927 66.35603256656445 36.332973516124454
v -24.865463256835938 67.03667641761851 -2.661086594974804
v -23.865455627441413 67.50789145800081 -29.656978178313636
v -27.865463256835938 67.03667641761851 -2.6610865949748033
v -26.865463256835945 67.50789145800081 -29.656978178313636
v -26.865463256835938 67.03667641761851 -2.6610865949748037
v -32.36546325683594 67.03667641761851 -2.6610865949748024
v -31.365463256835945 67.50789145800081 -29.656978178313633
v -31.365463256835938 67.03667641761851 -2.6610865949748024
v -35.36546325683594 67.03667641761851 -2.6610865949748015
v -34.36545562744141 67.50789145800081 -29.656978178313633
v -34.365455627441406 67.03667641761851 -2.661086594974802
v -35.865463256835945 67.50789145800081 -29.656978178313633
v -35.86546325683594 67.03667641761851 -2.6610865949748015
v -38.36546325683594 67.03667641761851 -2.661086594974801
v -37.365463256835945 67.5078914580008 -29.656978178313633
v -38.36546325683593 66.46074700518815 30.33388734518611
v -37.36546325683594 66.9319619789948 3.3379995759635466
v -44.86545944213867 67.03667641761851 -2.6610865949747993
v -43.865463256835945 67.5078914580008 -29.65697817831363
v -43.86546325683593 66.35603256656445 36.33297351612446
v -46.36545944213867 67.03667641761851 -2.661086594974799
v -49.36546325683594 67.0366764176185 -2.6610865949747984
v -48.36545944213868 67.5078914580008 -29.65697817831363
v -48.36545944213867 67.0366764176185 -2.6610865949747984
v -52.36545944213867 67.0366764176185 -2.6610865949747975
v -51.365463256835945 67.5078914580008 -29.65697817831363
v -51.36546325683594 67.0366764176185 -2.661086594974798
v -53.86545944213867 67.0366764176185 -2.661086594974797
v -52.865463256835945 67.5078914580008 -29.65697817831363
v -56.86546325683594 67.0366764176185 -2.6610865949747966
v -55.86545944213868 67.5078914580008 -29.65697817831363
v -55.86545944213867 67.0366764176185 -2.6610865949747966
v -58.36546325683592 65.88481785906038 63.32884602888195
v -57.36546325683593 66.35603256656444 36.33297351612446
v -66.36546325683594 67.0366764176185 -2.661086594974794
v -65.36546325683595 67.5078914580008 -29.656978178313626
v -65.36546325683594 67.0366764176185 -2.6610865949747944
v -70.86546325683594 67.0366764176185 -2.661086594974793
v -69.86546325683595 67.5078914580008 -29.656978178313626
v -69.86546325683594 67.0366764176185 -2.6610865949747935
v -73.86546325683594 67.0366764176185 -2.661086594974792
v -72.86546325683595 67.5078914580008 -29.656978178313622
v -72.86546325683594 67.0366764176185 -2.6610865949747926
v -74.36546325683595 67.5078914580008 -29.656978178313622
v -74.36546325683594 67.0366764176185 -2.661086594974792
v -75.86546325683595 67.5078914580008 -29.656978178313622
v -83.86546325683594 67.0366764176185 -2.66108659497479
v -85.36546325683594 67.0366764176185 -2.6610865949747895
v -94.36546325683594 67.0366764176185 -2.6610865949747873
f 1 2 3
f 4 5 6
f 6 5 7
f 6 7 3
f 3 7 8
f 3 8 1
f 1 4 2
f 9 1003 1
f 1003 5 1
f 1 5 4
f 10 1004 9
f 1004 5 9
f 9 5 1003
f 11 12 10
f 12 5 10
f 10 5 1004
f 13 1005 11
f 1005 12 11
f 13 14 12
f 13 12 1005
f 15 12 14
f 16 15 17
f 17 15 14
f 18 19 17
f 19 16 17
f 20 21 18
f 21 19 18
f 22 21 20
f 23 1006 22
f 1006 24 22
f 22 24 21
f 25 26 23
f 26 24 23
f 23 24 1006
f 27 28 25
f 28 26 25
f 29 30 27
f 30 28 27
f 31 32 33
f 34 35 36
f 36 35 37
f 36 37 29
f 35 31 37
f 37 31 33
f 37 33 30
f 37 30 29
f 38 39 36
f 39 33 36
f 36 33 32
f 36 32 34
f 40 41 38
f 41 39 38
f 42 43 40
f 43 41 40
f 44 45 42
f 45 43 42
f 46 47 48
f 44 49 45
f 45 49 47
f 48 49 46
f 46 49 44
f 50 51 46
f 51 47 46
f 51 50 52
f 51 52 53
f 54 53 55
f 55 53 52
f 56 57 55
f 57 54 55
f 58 59 60
f 60 59 56
f 56 59 61
f 56 61 62
f 59 58 63
f 63 58 62
f 62 58 57
f 62 57 56
f 64 65 60
f 65 58 60
f 66 67 64
f 67 65 64
f 68 69 66
f 69 67 66
f 70 71 68
f 71 69 68
f 70 72 71
f 73 71 72
f 74 73 75
f 75 73 72
f 76 77 75
f 77 74 75
f 78 79 76
f 79 77 76
f 80 81 78
f 81 79 78
f 82 83 84
f 84 83 80
f 80 83 85
f 80 85 86
f 83 82 87
f 87 82 86
f 86 82 81
f 86 81 80
f 88 89 84
f 89 82 84
f 90 91 88
f 91 89 88
f 92 93 90
f 93 91 90
f 93 92 94
f 93 94 95
f 96 97 98
f 99 98 100
f 100 97 99
f 96 98 101
f 101 98 95
f 101 95 94
f 101 94 96
f 96 94 99
f 96 99 97
f 102 103 99
f 103 98 99
f 104 105 102
f 105 103 102
f 106 107 104
f 107 105 104
f 108 109 106
f 109 107 106
f 110 111 112
f 112 111 108
f 108 111 113
f 108 113 114
f 111 110 115
f 115 110 114
f 114 110 109
f 114 109 108
f 110 112 116
f 110 116 117
f 1015 118 117
f 1015 117 119
f 119 117 116
f 119 116 120
f 120 116 121
f 122 123 121
f 123 118 121
f 121 118 1015
f 121 1015 120
f 124 125 122
f 125 123 122
f 126 127 128
f 128 127 124
f 124 127 129
f 124 129 130
f 127 126 131
f 131 126 130
f 130 126 125
f 130 125 124
f 132 133 128
f 133 126 128
f 134 135 132
f 135 133 132
f 136 137 134
f 137 135 134
f 138 139 136
f 139 137 136
f 140 141 142
f 143 144 145
f 145 144 146
f 145 146 138
f 144 140 146
f 146 140 142
f 146 142 139
f 146 139 138
f 147 148 145
f 148 142 145
f 145 142 141
f 145 141 143
f 149 150 147
f 150 148 147
f 151 152 149
f 152 150 149
f 153 154 151
f 154 152 151
f 155 156 157
f 153 158 154
f 154 158 156
f 157 158 155
f 155 158 153
f 159 160 155
f 160 156 155
f 160 159 161
f 160 161 162
f 163 164 165
f 165 164 162
f 165 162 166
f 166 162 161
f 166 161 167
f 167 161 168
f 169 170 168
f 170 164 168
f 168 164 163
f 168 163 167
f 171 170 169
f 172 1023 171
f 1023 173 171
f 171 173 170
f 174 175 172
f 175 173 172
f 172 173 1023
f 176 177 174
f 177 175 174
f 178 179 176
f 179 177 176
f 178 180 179
f 181 179 180
f 182 181 183
f 183 181 180
f 184 183 185
f 182 183 184
f 186 185 187
f 182 184 185
f 182 185 186
f 186 187 182
f 182 187 188
f 182 188 189
f 189 188 187
f 189 190 182
f 191 190 192
f 193 182 190
f 193 190 191
f 194 192 195
f 193 191 192
f 193 192 194
f 196 195 197
f 193 194 195
f 193 195 196
f 198 193 197
f 193 196 197
f 198 197 199
f 200 201 202
f 202 203 200
f 200 203 204
f 200 204 205
f 205 204 198
f 205 198 199
f 206 207 208
f 208 207 209
f 209 210 208
f 208 210 211
f 208 211 212
f 212 213 208
f 208 213 214
f 208 214 215
f 215 216 208
f 208 216 217
f 208 217 200
f 200 217 218
f 218 219 200
f 200 219 220
f 200 220 221
f 200 222 223
f 224 225 200
f 200 225 226
f 200 226 227
f 228 229 200
f 200 229 230
f 200 231 232
f 221 233 200
f 200 233 234
f 200 234 235
f 223 236 200
f 200 236 237
f 200 237 238
f 230 239 200
f 200 239 240
f 200 240 231
f 232 241 200
f 200 241 242
f 200 242 243
f 227 244 200
f 200 244 245
f 200 245 246
f 238 247 200
f 200 247 248
f 200 248 228
f 243 249 200
f 200 249 250
f 200 250 251
f 251 252 200
f 200 252 253
f 200 253 254
f 235 255 200
f 200 255 256
f 200 256 257
f 254 258 200
f 200 258 259
f 200 259 260
f 246 261 200
f 200 261 262
f 200 262 263
f 260 264 200
f 200 264 265
f 200 265 266
f 263 267 200
f 200 267 268
f 200 268 222
f 257 269 200
f 200 269 270
f 200 270 271
f 266 272 200
f 200 272 273
f 200 273 274
f 271 275 200
f 200 275 276
f 200 276 277
f 277 278 200
f 200 278 279
f 200 279 224
f 274 280 200
f 200 280 281
f 200 281 282
f 282 283 200
f 200 283 284
f 200 284 285
f 285 286 200
f 200 286 201
f 8 7 287
f 288 206 289
f 289 206 290
f 289 290 291
f 291 290 292
f 293 294 295
f 8 287 292
f 292 287 293
f 292 293 291
f 291 293 295
f 291 295 296
f 199 197 195
f 195 192 199
f 199 192 190
f 199 190 189
f 189 187 199
f 199 187 185
f 199 185 183
f 183 180 199
f 199 180 178
f 199 178 176
f 176 174 199
f 199 174 172
f 199 172 297
f 297 172 171
f 297 121 116
f 171 169 297
f 297 169 168
f 297 168 161
f 90 88 297
f 297 88 84
f 116 112 297
f 297 112 108
f 297 108 106
f 70 68 297
f 297 68 66
f 297 56 55
f 161 159 297
f 297 159 155
f 297 155 153
f 66 64 297
f 297 64 60
f 297 60 56
f 55 52 297
f 297 52 50
f 297 50 46
f 84 80 297
f 297 80 78
f 297 78 76
f 46 44 297
f 297 44 42
f 297 42 40
f 106 104 297
f 297 104 102
f 297 102 99
f 76 75 297
f 297 75 72
f 297 72 70
f 40 38 297
f 297 38 36
f 297 36 29
f 153 151 297
f 297 151 149
f 297 149 147
f 99 94 297
f 297 94 92
f 297 92 90
f 29 27 297
f 297 27 25
f 297 25 23
f 23 22 297
f 297 22 20
f 297 20 18
f 147 145 297
f 297 145 138
f 297 138 136
f 18 17 297
f 297 17 14
f 136 134 297
f 297 134 132
f 297 132 128
f 14 13 297
f 297 13 11
f 297 11 10
f 128 124 297
f 297 124 122
f 297 122 121
f 10 9 297
f 297 9 1
f 297 1 8
f 298 299 300
f 301 302 303
f 304 305 306
f 307 308 309
f 310 311 312
f 313 314 312
f 315 316 317
f 318 319 320
f 321 322 320
f 323 324 320
f 325 326 327
f 328 329 327
f 330 331 332
f 333 334 335
f 336 337 338
f 339 340 341
f 342 343 344
f 345 346 344
f 349 350 351
f 201 352 353
f 201 353 354
f 201 286 352
f 286 285 355
f 355 356 286
f 286 356 352
f 285 284 357
f 357 356 285
f 285 356 355
f 284 283 358
f 358 356 284
f 284 356 357
f 283 282 356
f 283 356 358
f 282 281 359
f 359 360 282
f 282 360 356
f 281 280 361
f 361 360 281
f 281 360 359
f 280 274 362
f 362 360 280
f 280 360 361
f 360 274 273
f 360 273 363
f 274 360 362
f 364 273 272
f 363 273 364
f 365 364 272
f 266 365 272
f 366 365 266
f 265 366 266
f 367 366 265
f 264 367 265
f 368 367 264
f 368 264 260
f 368 260 367
f 369 367 259
f 370 369 259
f 258 370 259
f 370 258 254
f 370 254 371
f 372 373 374
f 374 373 371
f 374 371 375
f 375 371 254
f 375 254 376
f 376 254 253
f 377 373 253
f 253 373 372
f 253 372 376
f 377 253 252
f 377 252 373
f 373 252 378
f 251 379 380
f 379 373 378
f 380 378 251
f 251 378 252
f 381 379 251
f 250 381 251
f 382 381 250
f 249 382 250
f 383 382 249
f 243 383 249
f 384 383 243
f 384 243 242
f 384 242 1132
f 385 384 1132
f 385 1132 386
f 241 386 1132
f 241 1132 242
f 387 385 241
f 241 385 386
f 232 387 241
f 388 387 232
f 231 388 232
f 389 388 231
f 240 389 231
f 390 389 240
f 390 240 239
f 230 390 239
f 391 392 230
f 230 392 390
f 229 391 230
f 393 391 229
f 228 393 229
f 393 228 248
f 393 248 394
f 395 396 397
f 397 396 394
f 397 394 398
f 398 394 248
f 398 248 399
f 399 248 247
f 399 247 395
f 395 247 396
f 238 396 247
f 400 401 238
f 238 401 396
f 237 400 238
f 402 400 237
f 236 402 237
f 403 402 236
f 223 403 236
f 404 403 223
f 404 223 222
f 405 404 268
f 268 404 222
f 406 407 408
f 408 407 405
f 408 405 409
f 409 405 268
f 409 268 410
f 410 268 267
f 411 407 267
f 267 407 406
f 267 406 410
f 263 411 267
f 412 411 263
f 262 412 263
f 413 412 262
f 413 262 261
f 246 413 261
f 414 415 246
f 246 415 413
f 245 414 246
f 416 414 245
f 244 416 245
f 417 416 244
f 227 417 244
f 417 227 226
f 417 226 418
f 419 226 225
f 418 226 419
f 420 419 225
f 224 420 225
f 421 420 224
f 279 421 224
f 422 421 279
f 278 422 279
f 423 422 278
f 423 278 277
f 276 423 277
f 424 425 276
f 276 425 423
f 275 424 276
f 424 275 271
f 424 271 426
f 427 428 429
f 429 428 426
f 429 426 430
f 430 426 271
f 430 271 431
f 431 271 270
f 432 428 270
f 270 428 427
f 270 427 431
f 432 270 269
f 433 432 269
f 257 434 435
f 434 432 433
f 435 433 257
f 257 433 269
f 436 434 257
f 256 436 257
f 437 436 256
f 255 437 256
f 438 437 255
f 235 438 255
f 439 438 235
f 439 235 234
f 439 234 440
f 441 442 443
f 443 439 441
f 441 439 440
f 441 440 444
f 444 440 1053
f 445 444 233
f 233 444 1053
f 233 1053 234
f 234 1053 440
f 446 443 233
f 233 443 442
f 233 442 445
f 221 446 233
f 447 446 221
f 220 447 221
f 448 447 220
f 219 448 220
f 449 448 219
f 449 219 218
f 217 449 218
f 450 451 217
f 217 451 449
f 216 450 217
f 452 450 216
f 215 452 216
f 452 215 214
f 452 214 453
f 454 455 456
f 456 455 453
f 456 453 457
f 457 453 214
f 457 214 458
f 458 214 213
f 458 213 454
f 454 213 455
f 455 213 459
f 212 459 213
f 460 455 212
f 212 455 459
f 211 460 212
f 461 460 211
f 210 461 211
f 462 460 210
f 210 460 461
f 209 462 210
f 463 462 209
f 463 209 207
f 463 207 462
f 288 462 206
f 462 207 206
f 295 351 296
f 296 351 464
f 351 465 464
f 464 465 466
f 467 468 469
f 468 467 466
f 468 466 469
f 469 466 351
f 469 351 467
f 467 351 470
f 471 472 470
f 471 470 348
f 471 348 472
f 473 474 348
f 348 474 472
f 344 475 473
f 344 476 475
f 475 476 477
f 478 479 480
f 479 478 477
f 479 477 480
f 480 477 344
f 480 344 478
f 344 481 478
f 478 481 482
f 478 482 483
f 484 485 483
f 344 484 483
f 486 487 485
f 486 485 484
f 486 484 487
f 484 488 487
f 487 488 489
f 487 489 490
f 484 491 490
f 484 341 491
f 341 492 491
f 491 492 493
f 494 495 496
f 496 495 497
f 498 496 499
f 499 496 497
f 497 495 493
f 497 493 499
f 494 496 498
f 494 498 341
f 341 498 500
f 341 500 493
f 493 500 501
f 493 501 499
f 502 503 495
f 502 495 494
f 502 494 503
f 503 494 504
f 505 506 504
f 505 504 507
f 505 507 506
f 507 508 506
f 506 508 509
f 506 509 510
f 507 338 510
f 510 338 511
f 338 512 511
f 511 512 513
f 514 513 338
f 514 338 515
f 514 515 513
f 335 516 515
f 335 515 338
f 335 517 516
f 516 517 518
f 519 520 518
f 335 519 518
f 521 522 520
f 521 520 519
f 521 519 522
f 522 519 523
f 524 525 523
f 524 523 332
f 524 332 525
f 332 526 525
f 525 526 527
f 525 527 528
f 529 528 332
f 528 529 530
f 531 532 529
f 529 532 530
f 530 532 531
f 530 531 533
f 534 535 533
f 534 533 536
f 536 533 327
f 536 327 534
f 534 327 535
f 327 537 535
f 535 537 538
f 539 540 327
f 540 539 538
f 540 538 327
f 327 320 539
f 320 541 542
f 542 541 543
f 544 545 546
f 545 544 543
f 545 543 546
f 546 543 320
f 546 320 544
f 320 547 544
f 544 547 548
f 544 548 549
f 320 550 549
f 549 550 551
f 552 553 317
f 551 550 1100
f 551 1100 1099
f 550 317 553
f 1099 553 551
f 551 553 552
f 317 554 552
f 552 554 555
f 556 557 558
f 557 556 555
f 557 555 558
f 558 555 317
f 558 317 556
f 556 317 559
f 560 561 559
f 560 559 562
f 560 562 561
f 563 564 562
f 562 564 561
f 565 566 563
f 566 565 567
f 568 569 567
f 568 567 312
f 568 312 569
f 312 570 569
f 569 570 571
f 572 573 571
f 312 572 571
f 574 575 573
f 574 573 572
f 574 572 575
f 575 572 576
f 577 578 576
f 577 576 309
f 577 309 578
f 309 579 578
f 578 579 580
f 578 580 581
f 582 583 584
f 584 583 585
f 586 584 587
f 587 584 585
f 585 583 581
f 585 581 587
f 582 584 586
f 582 586 309
f 309 586 588
f 309 588 581
f 581 588 589
f 581 589 587
f 590 591 583
f 590 583 582
f 590 582 591
f 591 582 592
f 593 594 592
f 593 592 595
f 593 595 594
f 595 596 594
f 594 596 597
f 594 597 598
f 595 306 598
f 598 306 599
f 306 600 599
f 599 600 601
f 602 601 306
f 602 306 603
f 602 603 601
f 303 604 603
f 303 603 306
f 303 605 604
f 604 605 606
f 607 608 606
f 303 607 606
f 609 610 608
f 609 608 607
f 609 607 610
f 610 607 611
f 612 613 611
f 612 611 300
f 612 300 613
f 300 614 613
f 613 614 615
f 613 615 616
f 617 616 618
f 618 616 300
f 619 620 617
f 619 617 618
f 621 622 620
f 621 620 619
f 621 619 622
f 623 624 619
f 625 624 623
f 625 623 626
f 626 623 627
f 628 626 629
f 628 629 619
f 628 619 626
f 626 619 624
f 630 631 627
f 630 627 632
f 630 632 631
f 631 632 633
f 354 634 202
f 354 202 201
f 635 634 631
f 635 631 632
f 635 632 634
f 636 637 351
f 349 638 639
f 636 351 1024
f 1024 351 295
f 1024 295 639
f 639 295 294
f 639 294 349
f 636 638 640
f 640 638 349
f 640 349 641
f 641 349 642
f 641 642 637
f 637 642 351
f 351 642 349
f 349 643 644
f 644 645 349
f 465 351 466
f 643 351 350
f 643 350 644
f 643 646 351
f 351 646 348
f 351 348 470
f 647 646 648
f 648 646 649
f 648 649 650
f 650 649 348
f 650 348 646
f 649 347 348
f 472 474 473
f 649 348 651
f 651 348 652
f 651 652 347
f 347 652 348
f 348 652 653
f 348 653 654
f 348 654 652
f 655 656 657
f 657 656 348
f 656 658 348
f 348 658 659
f 348 659 344
f 348 344 473
f 659 655 344
f 344 655 657
f 344 657 660
f 660 657 661
f 660 661 662
f 660 345 344
f 476 344 477
f 661 663 664
f 663 661 665
f 665 661 344
f 665 344 666
f 666 344 664
f 664 344 661
f 661 344 346
f 661 346 662
f 344 667 668
f 668 669 344
f 344 669 342
f 481 344 483
f 481 483 482
f 670 671 484
f 484 672 670
f 671 670 672
f 671 672 667
f 484 344 667
f 667 344 343
f 667 343 668
f 673 671 674
f 674 671 675
f 674 675 676
f 676 675 484
f 676 484 671
f 675 677 678
f 675 678 484
f 488 484 490
f 488 490 489
f 339 341 484
f 339 484 677
f 677 484 678
f 339 679 680
f 680 681 339
f 492 341 493
f 682 683 494
f 684 685 682
f 683 682 685
f 683 685 679
f 684 682 494
f 684 494 686
f 686 494 341
f 686 341 679
f 679 341 340
f 679 340 680
f 687 683 688
f 688 683 689
f 688 689 690
f 690 689 494
f 690 494 683
f 689 691 494
f 494 691 507
f 494 507 504
f 692 691 693
f 693 691 694
f 693 694 695
f 695 694 507
f 695 507 691
f 694 696 697
f 694 697 698
f 694 698 507
f 508 507 510
f 508 510 509
f 1060 699 338
f 696 700 701
f 1060 338 701
f 701 338 507
f 701 507 696
f 696 507 698
f 696 698 697
f 1060 696 702
f 702 696 336
f 702 336 703
f 703 336 704
f 703 704 699
f 699 704 338
f 338 704 336
f 336 705 706
f 706 707 336
f 512 338 513
f 708 705 709
f 708 709 338
f 708 338 705
f 705 338 337
f 705 337 706
f 333 710 711
f 333 335 710
f 710 335 338
f 710 338 711
f 711 338 709
f 711 709 333
f 333 712 713
f 713 714 333
f 517 335 518
f 715 716 519
f 335 717 715
f 716 715 717
f 716 717 712
f 335 715 519
f 712 335 334
f 712 334 713
f 718 716 719
f 719 716 720
f 719 720 721
f 721 720 519
f 721 519 716
f 720 722 519
f 519 722 332
f 519 332 523
f 723 722 724
f 724 722 725
f 724 725 726
f 726 725 332
f 726 332 722
f 725 332 727
f 727 728 725
f 725 728 330
f 725 330 332
f 526 332 528
f 526 528 527
f 729 730 731
f 731 730 332
f 332 730 732
f 332 732 733
f 729 529 733
f 733 529 332
f 332 331 727
f 529 729 731
f 529 731 734
f 734 731 735
f 734 735 736
f 734 328 529
f 529 328 327
f 529 327 531
f 531 327 533
f 735 325 327
f 735 327 329
f 735 329 736
f 325 737 738
f 738 739 325
f 537 327 538
f 737 740 741
f 740 737 742
f 740 742 741
f 741 742 327
f 741 327 737
f 737 327 326
f 737 326 738
f 742 743 323
f 742 323 327
f 327 323 320
f 539 320 542
f 742 321 744
f 742 744 324
f 324 744 320
f 320 744 321
f 321 745 746
f 746 747 321
f 541 320 543
f 745 748 749
f 748 745 750
f 750 745 320
f 750 320 751
f 751 320 749
f 749 320 745
f 745 320 322
f 745 322 746
f 752 318 320
f 547 320 549
f 547 549 548
f 752 753 754
f 753 752 755
f 755 752 756
f 755 756 757
f 757 756 550
f 757 550 754
f 754 550 320
f 754 320 752
f 752 320 319
f 758 759 317
f 758 317 550
f 761 550 756
f 761 756 315
f 758 761 760
f 760 761 315
f 760 315 762
f 762 315 763
f 762 763 759
f 759 763 317
f 317 763 315
f 315 764 765
f 765 766 315
f 554 317 555
f 767 764 768
f 767 768 317
f 767 317 764
f 764 317 316
f 764 316 765
f 768 769 317
f 317 769 562
f 317 562 559
f 770 769 771
f 771 769 772
f 771 772 773
f 773 772 562
f 773 562 769
f 772 774 562
f 561 564 563
f 772 562 775
f 775 562 776
f 775 776 774
f 774 776 562
f 562 776 777
f 562 777 778
f 562 778 776
f 779 780 781
f 781 780 562
f 780 782 562
f 562 782 783
f 562 783 565
f 562 565 563
f 783 779 565
f 565 779 781
f 565 781 784
f 784 781 785
f 784 785 786
f 784 313 565
f 565 313 312
f 565 312 567
f 785 310 312
f 785 312 314
f 785 314 786
f 310 787 788
f 788 789 310
f 570 312 571
f 790 791 572
f 312 792 790
f 791 790 792
f 791 792 787
f 312 790 572
f 787 312 311
f 787 311 788
f 793 791 794
f 794 791 795
f 794 795 796
f 796 795 572
f 796 572 791
f 795 797 572
f 572 797 309
f 572 309 576
f 798 797 799
f 799 797 800
f 799 800 801
f 801 800 309
f 801 309 797
f 800 309 802
f 802 803 800
f 800 803 307
f 800 307 309
f 579 309 581
f 579 581 580
f 804 805 582
f 806 807 808
f 809 808 807
f 309 807 810
f 309 810 811
f 808 804 806
f 806 804 582
f 806 582 811
f 811 582 309
f 309 308 802
f 807 812 813
f 812 807 814
f 814 807 815
f 814 815 816
f 816 815 582
f 816 582 813
f 813 582 807
f 807 582 805
f 807 805 809
f 815 817 582
f 582 817 595
f 582 595 592
f 818 817 819
f 819 817 820
f 819 820 821
f 821 820 595
f 821 595 817
f 820 822 823
f 820 823 824
f 820 824 595
f 596 595 598
f 596 598 597
f 1137 825 306
f 822 826 827
f 1137 306 827
f 827 306 595
f 827 595 822
f 822 595 824
f 822 824 823
f 1137 822 828
f 828 822 304
f 828 304 829
f 829 304 830
f 829 830 825
f 825 830 306
f 306 830 304
f 304 831 832
f 832 833 304
f 600 306 601
f 834 831 835
f 834 835 306
f 834 306 831
f 831 306 305
f 831 305 832
f 301 836 837
f 301 303 836
f 836 303 306
f 836 306 837
f 837 306 835
f 837 835 301
f 301 838 839
f 839 840 301
f 605 303 606
f 841 842 607
f 303 843 841
f 842 841 843
f 842 843 838
f 303 841 607
f 838 303 302
f 838 302 839
f 844 842 845
f 845 842 846
f 845 846 847
f 847 846 607
f 847 607 842
f 846 848 607
f 607 848 300
f 607 300 611
f 849 848 850
f 850 848 851
f 850 851 852
f 852 851 300
f 852 300 848
f 851 300 853
f 853 854 851
f 851 854 298
f 851 298 300
f 614 300 616
f 614 616 615
f 855 856 857
f 857 856 300
f 300 856 858
f 300 858 859
f 860 618 859
f 859 618 300
f 300 299 853
f 618 861 862
f 862 861 863
f 862 863 857
f 857 863 618
f 857 618 855
f 855 618 860
f 618 862 619
f 619 862 864
f 619 864 865
f 865 864 866
f 865 866 862
f 862 866 867
f 868 619 865
f 869 619 629
f 869 629 622
f 619 868 870
f 870 871 619
f 619 632 623
f 623 632 627
f 619 871 632
f 632 871 872
f 632 872 873
f 871 873 874
f 871 874 872
f 875 876 877
f 877 876 873
f 878 875 632
f 876 879 873
f 873 879 878
f 873 878 632
f 880 632 631
f 880 631 633
f 875 877 632
f 632 877 881
f 632 881 882
f 632 882 877
f 877 882 883
f 877 883 881
f 202 884 885
f 885 884 632
f 884 886 632
f 632 886 202
f 632 202 634
f 202 885 203
f 349 294 643
f 646 643 649
f 348 649 657
f 344 661 667
f 667 661 671
f 671 661 887
f 671 887 675
f 339 677 888
f 339 888 679
f 683 679 889
f 683 889 689
f 691 689 890
f 691 890 694
f 696 694 891
f 696 891 336
f 336 891 892
f 336 892 705
f 333 709 893
f 333 893 712
f 716 712 894
f 716 894 720
f 722 720 895
f 722 895 725
f 332 725 896
f 332 896 731
f 735 731 897
f 735 897 325
f 325 897 898
f 325 898 737
f 742 737 899
f 742 899 321
f 321 899 900
f 321 900 745
f 320 745 901
f 320 901 752
f 752 901 902
f 752 902 756
f 315 756 903
f 315 903 764
f 769 768 904
f 769 904 772
f 562 772 905
f 562 905 781
f 785 781 906
f 785 906 310
f 310 906 907
f 310 907 787
f 791 787 908
f 791 908 795
f 797 795 909
f 797 909 800
f 309 800 910
f 309 910 807
f 807 910 911
f 807 911 815
f 817 815 912
f 817 912 820
f 822 820 913
f 822 913 304
f 304 913 914
f 304 914 831
f 301 835 915
f 301 915 838
f 842 838 916
f 842 916 846
f 848 846 851
f 300 851 857
f 862 857 868
f 862 868 865
f 870 868 871
f 873 871 877
f 632 877 885
f 203 885 204
f 917 918 919
f 919 918 920
f 8 292 921
f 8 921 922
f 8 922 297
f 922 923 297
f 924 925 926
f 924 926 927
f 927 928 924
f 921 927 922
f 927 929 922
f 929 930 922
f 927 926 929
f 931 932 929
f 929 932 930
f 922 930 933
f 932 934 930
f 935 931 929
f 930 934 936
f 930 937 938
f 934 939 936
f 940 918 932
f 932 918 934
f 930 938 933
f 922 941 942
f 922 942 923
f 206 208 943
f 206 943 290
f 920 918 944
f 944 918 940
f 944 940 945
f 945 940 932
f 945 932 946
f 946 932 931
f 946 931 947
f 947 931 935
f 947 935 948
f 948 935 929
f 948 929 949
f 949 929 926
f 949 926 950
f 950 926 925
f 950 925 951
f 951 925 924
f 951 924 952
f 952 924 928
f 952 928 953
f 953 928 927
f 953 927 954
f 954 927 921
f 954 921 955
f 955 921 292
f 955 292 290
f 918 917 956
f 918 956 934
f 934 956 939
f 939 956 957
f 939 957 936
f 936 957 958
f 936 958 930
f 930 958 959
f 930 959 937
f 937 959 960
f 937 960 938
f 938 960 961
f 938 961 933
f 933 961 962
f 933 962 922
f 922 962 963
f 922 963 941
f 941 963 964
f 941 964 942
f 942 964 965
f 942 965 923
f 923 965 199
f 923 199 297
f 199 965 966
f 199 966 205
f 290 943 955
f 943 208 967
f 967 968 969
f 943 967 969
f 943 969 970
f 943 971 972
f 973 943 972
f 973 974 975
f 920 973 975
f 955 943 953
f 953 943 973
f 953 973 950
f 948 950 973
f 948 973 946
f 946 973 944
f 944 973 920
f 954 955 953
f 952 953 950
f 952 950 951
f 949 950 948
f 947 948 946
f 945 946 944
f 956 917 966
f 956 966 957
f 957 966 958
f 959 958 962
f 959 962 960
f 963 962 964
f 917 976 966
f 964 962 965
f 976 977 978
f 976 978 966
f 917 979 976
f 958 966 962
f 960 962 961
f 980 966 978
f 966 981 982
f 983 984 982
f 982 984 966
f 984 205 966
f 962 966 965
f 919 920 975
f 919 975 974
f 919 974 985
f 985 974 973
f 985 973 986
f 986 973 972
f 986 972 987
f 987 972 971
f 987 971 988
f 988 971 943
f 988 943 989
f 989 943 990
f 990 943 970
f 990 970 991
f 991 970 992
f 992 970 969
f 992 969 993
f 993 969 994
f 994 969 968
f 994 968 995
f 995 968 996
f 996 968 967
f 996 967 997
f 997 967 998
f 998 967 208
f 998 208 999
f 999 208 1000
f 1000 208 200
f 200 205 1000
f 1000 205 984
f 983 998 984
f 984 998 999
f 984 999 1000
f 982 996 983
f 983 996 997
f 983 997 998
f 981 994 982
f 982 994 995
f 982 995 996
f 966 992 981
f 981 992 993
f 981 993 994
f 989 990 966
f 966 990 991
f 966 991 992
f 989 966 980
f 989 980 988
f 988 980 978
f 988 978 987
f 987 978 977
f 987 977 986
f 986 977 976
f 986 976 985
f 985 976 979
f 985 979 919
f 919 979 917
f 7 5 287
f 287 5 12
f 287 12 15
f 287 15 16
f 16 19 287
f 287 19 21
f 287 21 24
f 287 24 26
f 287 26 28
f 28 30 287
f 287 30 33
f 287 33 39
f 39 41 287
f 287 41 43
f 287 43 45
f 45 47 287
f 287 47 51
f 287 51 53
f 53 54 287
f 287 54 57
f 287 57 58
f 58 65 287
f 287 65 67
f 287 67 69
f 69 71 287
f 287 71 73
f 287 73 74
f 74 77 287
f 287 77 79
f 287 79 81
f 81 82 287
f 287 82 89
f 287 89 91
f 91 93 287
f 287 93 95
f 287 95 198
f 198 95 98
f 198 98 103
f 103 105 198
f 198 105 107
f 198 107 109
f 109 110 198
f 198 110 117
f 198 117 118
f 118 123 198
f 198 123 125
f 198 125 126
f 126 133 198
f 198 133 135
f 198 135 137
f 137 139 198
f 198 139 142
f 198 142 148
f 148 150 198
f 198 150 152
f 198 152 154
f 154 156 198
f 198 156 160
f 198 160 162
f 162 164 198
f 198 164 170
f 198 170 173
f 198 173 175
f 198 175 177
f 177 179 198
f 198 179 181
f 198 181 182
f 182 193 198
f 204 885 877
f 204 877 871
f 204 871 868
f 868 857 204
f 204 857 851
f 851 846 204
f 204 846 916
f 916 838 204
f 204 838 915
f 204 915 835
f 835 831 204
f 204 831 914
f 204 914 913
f 913 820 204
f 204 820 912
f 204 912 815
f 815 911 204
f 204 911 910
f 204 910 800
f 800 909 204
f 204 909 795
f 204 795 908
f 908 787 204
f 204 787 907
f 204 907 906
f 906 781 204
f 204 781 905
f 204 905 772
f 772 904 204
f 204 904 768
f 204 768 764
f 902 293 756
f 756 293 204
f 756 204 903
f 903 204 764
f 902 901 293
f 293 901 745
f 293 745 900
f 900 899 293
f 293 899 737
f 293 737 898
f 898 897 293
f 293 897 731
f 293 731 896
f 896 725 293
f 293 725 895
f 293 895 720
f 720 894 293
f 293 894 712
f 293 712 893
f 893 709 293
f 293 709 705
f 293 705 892
f 892 891 293
f 293 891 694
f 293 694 890
f 890 689 293
f 293 689 889
f 293 889 679
f 679 888 293
f 293 888 677
f 293 677 675
f 675 887 293
f 293 887 661
f 293 661 657
f 293 657 649
f 293 649 643
f 293 643 294
f 293 287 204
f 204 287 198
f 354 353 291
f 291 353 289
f 296 464 291
f 291 464 466
f 466 467 291
f 291 467 470
f 291 470 472
f 472 473 291
f 291 473 475
f 291 475 477
f 477 478 291
f 291 478 483
f 291 483 485
f 485 487 291
f 291 487 490
f 291 490 491
f 491 493 291
f 291 493 495
f 291 495 503
f 503 504 291
f 291 504 506
f 291 506 510
f 510 511 291
f 291 511 513
f 291 513 515
f 515 516 291
f 291 516 518
f 291 518 520
f 520 522 291
f 291 522 523
f 291 523 525
f 525 528 291
f 291 528 530
f 291 530 533
f 533 535 291
f 291 535 538
f 291 538 539
f 539 542 291
f 291 542 543
f 291 543 544
f 544 549 291
f 291 549 551
f 291 551 354
f 354 551 552
f 354 552 555
f 555 556 354
f 354 556 559
f 354 559 561
f 561 563 354
f 354 563 566
f 354 566 567
f 567 569 354
f 354 569 571
f 354 571 573
f 573 575 354
f 354 575 576
f 354 576 578
f 578 581 354
f 354 581 583
f 354 583 591
f 591 592 354
f 354 592 594
f 354 594 598
f 598 599 354
f 354 599 601
f 354 601 603
f 603 604 354
f 354 604 606
f 354 606 608
f 608 610 354
f 354 610 611
f 354 611 613
f 613 616 354
f 354 616 617
f 354 617 620
f 620 622 354
f 354 622 629
f 354 629 626
f 626 627 354
f 354 627 631
f 631 634 354
f 353 352 356
f 353 356 360
f 360 363 353
f 353 363 364
f 353 364 365
f 365 366 353
f 353 366 367
f 367 369 353
f 353 369 370
f 353 370 371
f 371 373 353
f 353 373 379
f 379 381 353
f 353 381 382
f 353 382 383
f 383 384 353
f 353 384 385
f 353 385 387
f 387 388 353
f 353 388 389
f 353 389 390
f 390 392 353
f 353 392 391
f 353 391 393
f 393 394 353
f 353 394 396
f 353 396 401
f 401 400 353
f 353 400 402
f 353 402 403
f 407 289 405
f 405 289 353
f 405 353 404
f 404 353 403
f 407 411 289
f 289 411 412
f 289 412 413
f 413 415 289
f 289 415 414
f 289 414 416
f 416 417 289
f 289 417 418
f 289 418 419
f 419 420 289
f 289 420 421
f 289 421 422
f 422 423 289
f 289 423 425
f 289 425 424
f 424 426 289
f 289 426 428
f 289 428 432
f 432 434 289
f 289 434 436
f 289 436 437
f 437 438 289
f 289 438 439
f 289 439 443
f 443 446 289
f 289 446 447
f 289 447 448
f 448 449 289
f 289 449 451
f 289 451 450
f 450 452 289
f 289 452 453
f 289 453 455
f 289 455 460
f 460 462 289
f 289 462 288
f 1001 2 4
f 2 1002 3
f 1002 6 3
f 6 1001 4
f 6 1002 1001
f 1001 1002 2
f 1007 34 32
f 34 1008 35
f 1008 31 35
f 31 1007 32
f 31 1008 1007
f 1007 1008 34
f 49 48 47
f 59 1009 61
f 1009 1010 61
f 61 1010 62
f 1010 63 62
f 1010 1009 63
f 63 1009 59
f 83 1011 85
f 1011 1012 85
f 85 1012 86
f 1012 87 86
f 1012 1011 87
f 87 1011 83
f 97 100 98
f 111 1013 113
f 1013 1014 113
f 113 1014 114
f 1014 115 114
f 1014 1013 115
f 115 1013 111
f 120 1016 119
f 1016 1015 119
f 1015 1016 120
f 127 1017 129
f 1017 1018 129
f 129 1018 130
f 1018 131 130
f 1018 1017 131
f 131 1017 127
f 1019 143 141
f 143 1020 144
f 1020 140 144
f 140 1019 141
f 140 1020 1019
f 1019 1020 143
f 158 157 156
f 1021 167 163
f 167 1022 166
f 1022 165 166
f 165 1021 163
f 165 1022 1021
f 1021 1022 167
f 881 883 882
f 884 202 886
f 638 1024 639
f 636 1024 638
f 1025 641 637
f 641 1026 640
f 1026 636 640
f 636 1025 637
f 636 1026 1025
f 1025 1026 641
f 1027 644 350
f 644 1028 645
f 1028 1029 645
f 645 1029 349
f 1029 1027 349
f 349 1027 350
f 1029 1028 1027
f 1027 1028 644
f 1030 648 650
f 648 1031 647
f 1031 1032 647
f 647 1032 646
f 1032 1030 646
f 646 1030 650
f 1032 1031 1030
f 1030 1031 648
f 347 649 651
f 653 652 654
f 1033 656 655
f 656 1034 658
f 1034 659 658
f 659 1033 655
f 659 1034 1033
f 1033 1034 656
f 1035 456 457
f 456 1036 454
f 1036 458 454
f 458 1035 457
f 458 1036 1035
f 1035 1036 456
f 1037 662 346
f 662 1038 660
f 1038 345 660
f 345 1037 346
f 345 1038 1037
f 1037 1038 662
f 665 1039 663
f 1039 1040 663
f 663 1040 664
f 1040 666 664
f 1040 1039 666
f 666 1039 665
f 1041 668 343
f 668 1042 669
f 1042 342 669
f 342 1041 343
f 342 1042 1041
f 1041 1042 668
f 484 667 672
f 1043 674 676
f 674 1044 673
f 1044 1045 673
f 673 1045 671
f 1045 1043 671
f 671 1043 676
f 1045 1044 1043
f 1043 1044 674
f 1046 680 340
f 680 1047 681
f 1047 1048 681
f 681 1048 339
f 1048 1046 339
f 339 1046 340
f 1048 1047 1046
f 1046 1047 680
f 686 685 684
f 686 679 685
f 1049 441 444
f 441 1050 442
f 1050 445 442
f 445 1049 444
f 445 1050 1049
f 1049 1050 441
f 1051 498 499
f 498 1052 500
f 1052 501 500
f 501 1051 499
f 501 1052 1051
f 1051 1052 498
f 1054 688 690
f 688 1055 687
f 1055 1056 687
f 687 1056 683
f 1056 1054 683
f 683 1054 690
f 1056 1055 1054
f 1054 1055 688
f 1057 693 695
f 693 1058 692
f 1058 1059 692
f 692 1059 691
f 1059 1057 691
f 691 1057 695
f 1059 1058 1057
f 1057 1058 693
f 696 1061 700
f 1061 1062 700
f 700 1062 701
f 1062 1060 701
f 1062 1061 1060
f 1060 1061 696
f 435 434 433
f 1063 703 699
f 703 1064 702
f 1064 1060 702
f 1060 1063 699
f 1060 1064 1063
f 1063 1064 703
f 1065 706 337
f 706 1066 707
f 1066 1067 707
f 707 1067 336
f 1067 1065 336
f 336 1065 337
f 1067 1066 1065
f 1065 1066 706
f 1068 429 430
f 429 1069 427
f 1069 431 427
f 431 1068 430
f 431 1069 1068
f 1068 1069 429
f 1070 713 334
f 713 1071 714
f 1071 1072 714
f 714 1072 333
f 1072 1070 333
f 333 1070 334
f 1072 1071 1070
f 1070 1071 713
f 335 712 717
f 1073 719 721
f 719 1074 718
f 1074 1075 718
f 718 1075 716
f 1075 1073 716
f 716 1073 721
f 1075 1074 1073
f 1073 1074 719
f 1076 724 726
f 724 1077 723
f 1077 1078 723
f 723 1078 722
f 1078 1076 722
f 722 1076 726
f 1078 1077 1076
f 1076 1077 724
f 727 1079 728
f 1079 1080 728
f 728 1080 330
f 1080 331 330
f 1080 1079 331
f 331 1079 727
f 1081 730 729
f 730 1082 732
f 1082 733 732
f 733 1081 729
f 733 1082 1081
f 1081 1082 730
f 1083 736 329
f 736 1084 734
f 1084 328 734
f 328 1083 329
f 328 1084 1083
f 1083 1084 736
f 1085 738 326
f 738 1086 739
f 1086 1087 739
f 739 1087 325
f 1087 1085 325
f 325 1085 326
f 1087 1086 1085
f 1085 1086 738
f 1088 742 324
f 742 1089 743
f 1089 1090 743
f 743 1090 323
f 1090 1088 323
f 323 1088 324
f 1090 1089 1088
f 1088 1089 742
f 1091 746 322
f 746 1092 747
f 1092 1093 747
f 747 1093 321
f 1093 1091 321
f 321 1091 322
f 1093 1092 1091
f 1091 1092 746
f 750 1094 748
f 1094 1095 748
f 748 1095 749
f 1095 751 749
f 1095 1094 751
f 751 1094 750
f 319 318 752
f 1096 755 757
f 754 1096 757
f 754 753 1096
f 1096 753 755
f 1097 408 409
f 408 1098 406
f 1098 410 406
f 410 1097 409
f 410 1098 1097
f 1097 1098 408
f 550 761 758
f 553 1100 550
f 1099 1100 553
f 1101 762 759
f 762 1102 760
f 1102 758 760
f 758 1101 759
f 758 1102 1101
f 1101 1102 762
f 1103 765 316
f 765 1104 766
f 1104 1105 766
f 766 1105 315
f 1105 1103 315
f 315 1103 316
f 1105 1104 1103
f 1103 1104 765
f 1106 771 773
f 771 1107 770
f 1107 1108 770
f 770 1108 769
f 1108 1106 769
f 769 1106 773
f 1108 1107 1106
f 1106 1107 771
f 774 772 775
f 777 776 778
f 1109 780 779
f 780 1110 782
f 1110 783 782
f 783 1109 779
f 783 1110 1109
f 1109 1110 780
f 1111 397 398
f 397 1112 395
f 1112 399 395
f 399 1111 398
f 399 1112 1111
f 1111 1112 397
f 1113 786 314
f 786 1114 784
f 1114 313 784
f 313 1113 314
f 313 1114 1113
f 1113 1114 786
f 1115 788 311
f 788 1116 789
f 1116 1117 789
f 789 1117 310
f 1117 1115 310
f 310 1115 311
f 1117 1116 1115
f 1115 1116 788
f 312 787 792
f 1118 794 796
f 794 1119 793
f 1119 1120 793
f 793 1120 791
f 1120 1118 791
f 791 1118 796
f 1120 1119 1118
f 1118 1119 794
f 1121 799 801
f 799 1122 798
f 1122 1123 798
f 798 1123 797
f 1123 1121 797
f 797 1121 801
f 1123 1122 1121
f 1121 1122 799
f 802 1124 803
f 1124 1125 803
f 803 1125 307
f 1125 308 307
f 1125 1124 308
f 308 1124 802
f 1126 807 806
f 807 1127 810
f 1127 811 810
f 811 1126 806
f 811 1127 1126
f 1126 1127 807
f 1128 586 587
f 586 1129 588
f 1129 589 588
f 589 1128 587
f 589 1129 1128
f 1128 1129 586
f 1130 809 805
f 809 1131 808
f 1131 804 808
f 804 1130 805
f 804 1131 1130
f 1130 1131 809
f 1133 814 816
f 813 1133 816
f 813 812 1133
f 1133 812 814
f 1134 819 821
f 819 1135 818
f 1135 1136 818
f 818 1136 817
f 1136 1134 817
f 817 1134 821
f 1136 1135 1134
f 1134 1135 819
f 822 1138 826
f 1138 1139 826
f 826 1139 827
f 1139 1137 827
f 1139 1138 1137
f 1137 1138 822
f 380 379 378
f 1140 829 825
f 829 1141 828
f 1141 1137 828
f 1137 1140 825
f 1137 1141 1140
f 1140 1141 829
f 1142 832 305
f 832 1143 833
f 1143 1144 833
f 833 1144 304
f 1144 1142 304
f 304 1142 305
f 1144 1143 1142
f 1142 1143 832
f 1145 374 375
f 374 1146 372
f 1146 376 372
f 376 1145 375
f 376 1146 1145
f 1145 1146 374
f 1147 839 302
f 839 1148 840
f 1148 1149 840
f 840 1149 301
f 1149 1147 301
f 301 1147 302
f 1149 1148 1147
f 1147 1148 839
f 303 838 843
f 259 367 260
f 1150 845 847
f 845 1151 844
f 1151 1152 844
f 844 1152 842
f 1152 1150 842
f 842 1150 847
f 1152 1151 1150
f 1150 1151 845
f 1153 850 852
f 850 1154 849
f 1154 1155 849
f 849 1155 848
f 1155 1153 848
f 848 1153 852
f 1155 1154 1153
f 1153 1154 850
f 853 1156 854
f 1156 1157 854
f 854 1157 298
f 1157 299 298
f 1157 1156 299
f 299 1156 853
f 856 1158 858
f 1158 859 858
f 859 1158 860
f 860 1158 856
f 860 856 855
f 863 1159 618
f 618 1159 861
f 861 1159 863
f 867 1160 862
f 1160 864 862
f 864 1160 866
f 866 1160 867
f 869 622 619
f 625 626 624
f 872 874 873
f 879 1161 878
f 1161 875 878
f 875 1161 876
f 876 1161 879
f 880 633 632
