o 
v 3.719853160134367e-14 -53.97156234033007 47.5781391522242
v -3.089294433593762 146.00271701017408 50.79704773311305
v -3.1002540588378533 -53.96986199830275 47.48072662272021
v -6.166393280029309 146.0077934032666 50.50622136762051
v -6.188266754150353 -53.96476762978551 47.188870445835114
v -9.219158172607433 146.0162317333871 50.02278975878841
v -9.251865386962853 -53.95629920747251 46.70371485644954
v -12.235538482666026 146.02799897901465 49.348644708286045
v -12.278945922851525 -53.94449041864115 46.027189797395465
v -15.203636169433606 146.04304840404495 48.486463725734076
v -15.257568359374964 -53.92938759994185 45.16194989359596
v -18.111726760864272 146.06132062300082 47.43964900284425
v -18.175977706909144 -53.911050403154405 44.11141259322783
v -20.948339462280288 146.08274373418334 46.2123197851868
v -21.022651672363246 -53.88955139573419 42.879735283024
v -23.70228004455568 146.10723292021808 44.80933525688813
v -23.786361694335902 -53.86497526190432 41.47176951887833
v -26.362676620483413 146.13469164641674 43.23622588653793
v -26.456195831298793 -53.83741906895828 39.89307628231068
v -28.919033050537124 146.16501179392836 41.49918579895666
v -29.021621704101527 -53.80699146835221 38.14988021107164
v -31.3612575531006 146.1980733934369 39.605088031660614
v -31.47251129150387 -53.773812562553445 36.24906197091005
v -33.679714202880874 146.23374608982527 37.56140062430402
v -33.799194335937464 -53.738013505586835 34.198135370875356
v -35.86525344848634 146.27188900902422 35.37619424691155
v -35.99248504638668 -53.69973517152167 32.00517108099224
v -37.909248352050795 146.31235169007124 33.05808880225061
v -38.043727874755824 -53.659128953379465 29.67884240165586
v -39.8036346435547 146.35497435141326 30.61623816936618
v -39.944831848144496 -53.61635516531851 27.228333724841367
v -41.540935516357436 146.39958895611693 28.060269177720627
v -41.68829727172848 -53.571582243725985 24.663294764708713
v -43.11428833007814 146.44601921186876 25.400281607193595
v -43.26723098754879 -53.52498727982322 21.99387107053278
v -44.517490386962905 146.49408216879038 22.64675664929163
v -44.6754112243652 -53.47675388924496 19.2305819749828
v -45.745002746582045 146.54358781998502 19.81057979184575
v -45.90727996826168 -53.427072478341955 16.38433585058741
v -46.79198074340822 146.59434096565528 16.902934023755947
v -46.95796966552731 -53.37613931212189 13.466376712106896
v -47.65428924560549 146.6461414128303 13.935288392642367
v -47.82333755493161 -53.324155182736476 10.488207934207823
v -48.32853317260744 146.6987845745465 10.919363677798893
v -48.49997329711911 -53.271325342905754 7.461588437346761
v -48.812042236328146 146.7520626016336 7.867067550216575
v -48.98519897460935 -53.21785817440521 4.398456405444912
v -49.10291290283205 146.80576544792495 4.790433546723334
v -49.27710342407224 -53.16396485518747 1.310910215306764
v -49.19999694824221 146.85968106998445 1.7016096276351542
v -49.3745307922363 -53.1098579612938 -1.788871659821548
v -49.10291290283205 146.913596692044 -1.387214291453026
v -49.27710342407224 -53.055751067400124 -4.88865353494986
v -48.812042236328146 146.96729947175965 -4.463844480829998
v -48.98519897460935 -53.00185781475804 -7.976195910971739
v -48.32853317260744 147.0205775654224 -7.516144422528585
v -48.49997329711911 -52.948390646257494 -11.039327942873589
v -47.65428924560549 147.07322066056298 -10.532065323255791
v -47.82333755493161 -52.89556080642677 -14.065947439734652
v -46.79198074340823 147.125021107738 -13.49971095436937
v -46.95796966552732 -52.843576677041355 -17.044116217633725
v -45.74500274658206 147.17577428669608 -16.407358629517308
v -45.9072799682617 -52.79264341095781 -19.96208107728864
v -44.51749038696292 147.22528000446636 -19.243539301079455
v -44.67541122436521 -52.74296209991827 -22.80832148050963
v -43.11428833007815 147.27334289481234 -21.997060444865152
v -43.26723098754881 -52.69472870934001 -25.57161057605961
v -41.54093551635745 147.3197732171398 -24.657051829508454
v -41.688297271728494 -52.64813367886161 -28.24103808435181
v -39.803634643554716 147.3643877885557 -27.21301891409588
v -39.94483184814451 -52.603360823844724 -30.806073230368195
v -37.90924835205081 147.4070104831855 -29.65487145403844
v -38.04372787475584 -52.56058690263248 -33.25658953541523
v -35.86525344848636 147.44747313094467 -31.97297499164125
v -35.9924850463867 -52.51998068449029 -35.582918214751615
v -33.67971420288089 147.48561605014362 -34.15818136903372
v -33.79919433593748 -52.48170248357641 -37.77587487640219
v -31.36125755310062 147.52128867995637 -36.201864962274044
v -31.472511291503892 -52.44590336003415 -39.82680529055315
v -28.919033050537145 147.55435027946493 -38.09596272957009
v -29.02162170410155 -52.41272452081104 -41.727619716598475
v -26.362676620483434 147.58467036040093 -39.83299900303509
v -26.456195831298814 -52.382296853629285 -43.470819601953785
v -23.7022800445557 147.61212915317523 -41.40611218750156
v -23.786361694335923 -52.35474066068325 -45.04951283852144
v -20.94833946228031 147.6366184057856 -42.8091005299165
v -21.022651672363267 -52.33016452685338 -46.4574786026671
v -18.111726760864293 147.6580414503925 -44.03642593345768
v -18.175977706909165 -52.30866545285751 -47.6891597269872
v -15.203636169433628 147.676313735924 -45.08324447046379
v -15.257568359374986 -52.29032838922137 -48.73968939912281
v -12.235538482666051 147.69136309437863 -45.94542163889949
v -12.27894592285155 -52.27522563709772 -49.604925488806046
v -9.219158172607457 147.70313027343056 -46.61956287528559
v -9.251865386962878 -52.263416715115056 -50.281458176092656
v -6.166393280029332 147.71156867012672 -47.102998298233956
v -6.188266754150378 -52.25494835937769 -50.766609951361964
v -3.089294433593786 147.71664506321923 -47.39382466372649
v -3.1002540588378773 -52.24985392428482 -51.05846994236333
v -3.593113633951826e-14 147.7183394134383 -47.49089392276629
v 1.301198716369781e-14 -52.2481535822575 -51.15588247186732
v 3.089294433593714 147.71664506321923 -47.39382466372649
v 3.100254058837904 -52.24985392428482 -51.05846994236333
v 6.166397094726527 147.71156867012672 -47.102998298233956
v 6.188270568847669 -52.25494835937769 -50.766609951361964
v 9.219158172607386 147.70313027343056 -46.61956287528559
v 9.251869201660169 -52.263416715115056 -50.281458176092656
v 12.235542297363246 147.69136309437863 -45.9454216388995
v 12.27894973754884 -52.27522563709772 -49.604925488806046
v 15.203639984130826 147.676313735924 -45.0832444704638
v 15.25757217407228 -52.29032838922137 -48.73968939912282
v 18.111728668212855 147.6580414503925 -44.03642593345769
v 18.17597579956056 -52.30866545285751 -47.689159726987214
v 20.948337554931605 147.6366184057856 -42.80910052991651
v 21.02265548706056 -52.33016452685338 -46.457478602667116
v 23.70228195190426 147.61212915317523 -41.40611218750158
v 23.786365509033217 -52.35474066068325 -45.04951283852145
v 26.36267471313473 147.58467036040093 -39.832999003035106
v 26.456195831298842 -52.382296853629285 -43.4708196019538
v 28.919033050537074 147.55435027946493 -38.095962729570104
v 29.021625518798842 -52.41272452081101 -41.72761971659849
v 31.361255645751918 147.5212886799564 -36.20186496227406
v 31.472507476806655 -52.44590336003412 -39.82680529055317
v 33.67971420288083 147.48561605014368 -34.158181369033734
v 33.799190521240256 -52.481702483576385 -37.775874876402206
v 35.8652534484863 147.44747313094473 -31.97297499164127
v 35.992488861084006 -52.519980684490264 -35.58291821475163
v 37.90925216674802 147.40701048318553 -29.654871454038457
v 38.04372787475588 -52.56058690263245 -33.25658953541525
v 39.803638458251925 147.3643877885557 -27.213018914095898
v 39.94483566284182 -52.603360823844696 -30.806073230368217
v 41.540943145751925 147.31977321713984 -24.657051829508475
v 41.68829727172854 -52.64813367886158 -28.241038084351832
v 43.11429214477536 147.2733428948124 -21.997060444865173
v 43.26723098754885 -52.694728709339984 -25.57161057605963
v 44.51749038696286 147.22528000446638 -19.243539301079476
v 44.675411224365256 -52.742962099918245 -22.80832148050965
v 45.74500656127927 147.1757742866961 -16.40735862951733
v 45.907276153564474 -52.79264341095778 -19.962081077288662
v 46.791980743408175 147.12502110773804 -13.499710954369393
v 46.95797348022463 -52.84357667704133 -17.044116217633746
v 47.65429306030271 147.07322066056298 -10.532065323255814
v 47.8233451843262 -52.895560806426744 -14.065947439734675
v 48.32854080200193 147.02057756542246 -7.516144422528608
v 48.49997329711917 -52.948390646257465 -11.039327942873612
v 48.81204605102537 146.9672994717597 -4.463844480830021
v 48.98520278930667 -53.00185781475801 -7.976195910971763
v 49.102916717529276 146.913596692044 -1.3872142914530496
v 49.277103424072294 -53.055751067400095 -4.888653534949884
v 49.20000076293943 146.8596810699845 1.7016096276351307
v 49.37453079223636 -53.10985796129377 -1.788871659821572
v 49.102916717529276 146.80576544792495 4.790433546723311
v 49.277103424072294 -53.163964855187444 1.3109102153067405
v 48.81204605102537 146.75206260163364 7.867067550216552
v 48.98520278930667 -53.21785817440518 4.398456405444888
v 48.32854080200193 146.69878457454655 10.91936367779887
v 48.49997329711917 -53.271325342905726 7.461588437346737
v 47.65429306030271 146.64614141283033 13.935288392642343
v 47.8233451843262 -53.32415518273645 10.4882079342078
v 46.79198074340819 146.5943409656553 16.902934023755925
v 46.957973480224645 -53.376139312121865 13.466376712106873
v 45.74500656127928 146.54358781998502 19.81057979184573
v 45.90727615356449 -53.42707247834193 16.384335850587387
v 44.517490386962876 146.4940821687904 22.646756649291607
v 44.67541122436527 -53.47675388924493 19.23058197498278
v 43.114292144775376 146.44601921186876 25.400281607193573
v 43.267230987548864 -53.52498727982319 21.99387107053276
v 41.54094314575194 146.399588956117 28.060269177720606
v 41.68829727172855 -53.571582243725956 24.66329476470869
v 39.80363845825194 146.35497435141326 30.616238169366163
v 39.94483566284183 -53.61635516531848 27.228333724841345
v 37.90925216674803 146.31235169007127 33.05808880225059
v 38.043727874755895 -53.65912895337944 29.678842401655842
v 35.865253448486314 146.27188900902428 35.37619424691154
v 35.99248886108402 -53.69973517152164 32.00517108099223
v 33.679714202880845 146.23374608982533 37.56140062430401
v 33.79919052124027 -53.73801350558681 34.19813537087534
v 31.36125564575194 146.1980733934369 39.6050880316606
v 31.472507476806676 -53.77381256255342 36.249061970910034
v 28.919033050537095 146.1650117939284 41.499185798956645
v 29.021625518798864 -53.80699146835218 38.149880211071626
v 26.36267471313475 146.13469164641674 43.236225886537916
v 26.456195831298864 -53.83741906895828 39.893076282310666
v 23.702281951904283 146.10723292021808 44.80933525688812
v 23.78636550903324 -53.86497526190432 41.47176951887832
v 20.948337554931626 146.08274373418334 46.212319785186786
v 21.022655487060582 -53.88955139573419 42.87973528302398
v 18.111728668212876 146.06132062300082 47.439649002844234
v 18.175975799560582 -53.911050403154405 44.11141259322782
v 15.203639984130847 146.04304840404495 48.48646372573407
v 15.257572174072301 -53.92938759994185 45.16194989359595
v 12.23554229736327 146.02799897901465 49.34864470828604
v 12.278949737548865 -53.94449041864115 46.027189797395465
v 9.219158172607411 146.0162317333871 50.02278975878841
v 9.251869201660194 -53.95629920747251 46.70371485644954
v 6.16639709472655 146.0077934032666 50.50622136762051
v 6.1882705688476936 -53.96476762978551 47.188870445835114
v 3.089294433593738 146.00271701017408 50.79704773311305
v 3.100254058837928 -53.96986199830275 47.48072662272021
v -1.1830087892897161e-14 146.001022659955 50.894116992152846
v -40.29692459106442 -53.52608311497474 22.05665142431648
v -41.75616836547848 -53.47968707910556 19.39862430955159
v -43.0402679443359 -53.43173996380989 16.651735913957253
v -44.14384460449215 -53.38244269439073 13.827497240432576
v -45.0622634887695 -53.33200212138367 10.937758748224576
v -45.79167938232419 -53.28062982219524 7.994641698835357
v -46.329029083251925 -53.2285412356195 5.010488572510608
v -46.67205810546872 -53.17595486293028 1.9978172988443819
v -46.81932830810544 -53.12309126924647 -1.030735954964939
v -46.770217895507784 -53.070172151472974 -4.062470181742401
v -46.52494049072263 -53.01741947281725 -7.0846691178479775
v -46.084522247314425 -52.96505446415469 -10.084658454920595
v -45.45080947875974 -52.913296891696405 -13.049847795157097
v -44.62645721435544 -52.86236372547634 -15.967806933637611
v -43.61492919921873 -52.812468673321746 -18.826292557139436
v -42.4204635620117 -52.76382094920366 -21.61331880528801
v -41.048072814941385 -52.71662460748051 -24.3171954117196
v -39.503509521484354 -52.67107764412681 -26.92657919465093
v -37.793258666992166 -52.62737106467412 -29.430527454506947
v -35.924484252929666 -52.58568821845461 -31.818536115083496
v -33.90503692626951 -52.54620389982978 -34.080591214116964
v -31.743375778198224 -52.509083782297466 -36.20720132327256
v -29.448574066162095 -52.4744834864328 -38.18945094577205
v -27.030252456665025 -52.442548213722134 -40.01902149403331
v -24.498556137084947 -52.413411847791835 -41.688242780239854
v -21.864107131957994 -52.387196621529995 -43.190112086922255
v -19.137950897216783 -52.36401245133 -44.5183323081208
v -16.331527709960923 -52.34395667078793 -45.66732720585057
v -13.456596374511705 -52.32711329837046 -46.6322833653804
v -10.52523040771483 -52.313553037414806 -47.40915019523286
v -7.549713134765612 -52.30333274352361 -47.99467044011445
v -4.542533874511705 -52.29649535798927 -48.38638399503181
v -1.5162963867187365 -52.29306944176439 -48.58265460410565
v 1.5163002014160292 -52.29306944176439 -48.58265460410565
v 4.542533874511732 -52.29649535798927 -48.38638399503181
v 7.549716949462904 -52.30333274352361 -47.99467044011445
v 10.525230407714858 -52.313553037414806 -47.40915019523286
v 13.456604003906264 -52.32711329837046 -46.63228336538041
v 16.331531524658217 -52.34395667078793 -45.66732720585058
v 19.13795089721681 -52.36401245133 -44.51833230812081
v 21.864109039306655 -52.387196621529995 -43.19011208692227
v 24.498554229736342 -52.413411847791835 -41.68824278023987
v 27.030254364013686 -52.442548213722134 -40.019021494033325
v 29.448574066162124 -52.474483486432774 -38.189450945772066
v 31.74338150024416 -52.50908378229744 -36.20720132327257
v 33.90503311157229 -52.54620389982975 -34.08059121411698
v 35.92448043823244 -52.58568821845458 -31.818536115083514
v 37.793262481689474 -52.627371064674094 -29.430527454506965
v 39.50351333618166 -52.67107764412678 -26.92657919465095
v 41.04806900024416 -52.71662460748048 -24.31719541171962
v 42.420467376709006 -52.763820949203634 -21.61331880528803
v 43.614925384521506 -52.81246867332172 -18.826292557139457
v 44.62646102905276 -52.862363725476314 -15.967806933637632
v 45.450809478759794 -52.913296891696376 -13.049847795157119
v 46.08452987670901 -52.96505446415466 -10.084658454920618
v 46.52494430541995 -53.017419472817224 -7.084669117848
v 46.77022171020511 -53.070172151472946 -4.062470181742424
v 46.81933212280276 -53.123091269246444 -1.0307359549649617
v 46.672061920166044 -53.175954862930254 1.9978172988443592
v 46.32902908325198 -53.228541235619474 5.010488572510586
v 45.79168319702151 -53.28062982219521 7.994641698835335
v 45.062267303466825 -53.33200212138364 10.937758748224555
v 44.14384841918949 -53.382442694390704 13.827497240432555
v 43.04026412963871 -53.43173996380986 16.651735913957232
v 41.75617599487308 -53.47968707910553 19.39862430955157
v 40.29693222045902 -53.52608311497471 22.05665142431646
v 38.668666839599645 -53.57073327107395 24.61465715404953
v 36.87821578979496 -53.61345046983486 27.061923832035585
v 34.933078765869176 -53.65405535646411 29.388176229046593
v 32.8414344787598 -53.69237749730509 31.58365020743455
v 30.61202621459964 -53.728256578199534 33.63916137522429
v 28.254230499267614 -53.7615418718824 35.54607457318335
v 25.777927398681676 -53.7920938357973 37.29639541361242
v 23.193500518798864 -53.81978411209661 38.88277028034535
v 20.511791229248082 -53.84449659285178 40.298547354609425
v 17.744045257568395 -53.86612795265846 41.53780712795554
v 14.901882171630895 -53.884587249182715 42.59533951756057
v 11.997203826904332 -53.89979712152258 43.46671252032024
v 9.042217254638707 -53.91169352390554 44.14825695638399
v 6.049293518066443 -53.92022679089884 44.637127495015335
v 3.031005859375037 -53.92536123795563 44.931279769894225
v 3.6574192700490515e-14 -53.92707516141496 45.02947037911704
v -3.0310020446776975 -53.92536123795563 44.931279769894225
v -6.04929351806637 -53.92022679089884 44.637127495015335
v -9.04221343994137 -53.91169352390554 44.14825695638399
v -11.997203826904261 -53.89979712152258 43.46671252032024
v -14.901874542236293 -53.884587249182715 42.595339517560575
v -17.744045257568324 -53.86612795265846 41.53780712795555
v -20.511785507202113 -53.84449659285178 40.29854735460944
v -23.193496704101527 -53.81978411209661 38.88277028034536
v -25.77792358398434 -53.7920938357973 37.29639541361244
v -28.254230499267543 -53.7615418718824 35.54607457318336
v -30.61202812194821 -53.72825657819956 33.639161375224305
v -32.841430664062464 -53.69237749730512 31.583650207434566
v -34.93308258056637 -53.65405535646414 29.38817622904661
v -36.87821197509762 -53.61345046983489 27.061923832035603
v -38.66866302490231 -53.570733271073976 24.614657154049553
v -2.1389846801757924 141.03674227646576 48.55405493384417
v -4.273540496826183 141.03929052593475 48.40806581954132
v -3.0412063598632924 141.0378194704361 48.49234253261572
v -6.399234771728527 141.04353152780726 48.16509898498912
v -6.070552825927746 141.04287589083447 48.202660402003815
v -10.60646438598634 141.05705384064404 47.390406201409846
v -12.038223266601575 141.06344536906965 47.02423578314434
v -14.725795745849622 141.07719710158642 46.23639955490294
v -12.67927169799806 141.06630705668525 46.8602898094482
v -16.741802215576183 141.08970160593012 45.52001698084039
v -18.72311019897462 141.10379460521398 44.71262959260535
v -17.80395507812501 141.09725674351603 45.087183438429584
v -23.27203369140626 141.1437470505015 42.423755535028135
v -22.565277099609386 141.1366255866809 42.83174392406427
v -20.665611267089854 141.119446673002 43.81592322958862
v -20.585519790649425 141.11880128867887 43.85289727269792
v -24.418176651000987 141.15529552855264 41.7621436705849
v -25.8674659729004 141.17147700588652 40.83510745499903
v -26.220462799072276 141.17541815104443 40.6093194001213
v -31.28687477111818 141.24406909423112 36.67630949903714
v -30.71608161926271 141.2355805660727 37.16261695153588
v -29.658376693725597 141.21985100423146 38.063762945889444
v -32.850532531738295 141.26955571661097 35.21618188079999
v -32.958442687988295 141.27148254898975 35.10579372774969
v -34.34609985351564 141.2962580103071 33.68640849949537
v -35.05094146728517 141.3100456936733 32.89651264846885
v -35.770473480224624 141.32412071753242 32.09015507162638
v -37.00936889648439 141.3506973164068 30.567582741837175
v -37.12071228027345 141.3530857843227 30.430747506579337
v -38.39402008056642 141.38309355889808 28.711603252531063
v -39.58773803710939 141.4140815933016 26.93629995054165
v -38.800109863281264 141.39363554631615 28.107653197838857
v -41.726726531982436 141.47873986177956 23.232030230327236
v -45.529800415039084 141.65283051868968 13.258383175672916
v -46.48727798461916 141.73698892735888 8.43695117210776
v -46.01267623901369 141.68920731912198 11.174357674657971
v -45.95294570922854 141.68470760428477 11.432146165030552
v -46.69151306152346 141.76292227233085 6.951230833707264
v -46.831924438476584 141.78975765074557 5.413833033981414
v -46.98345184326174 141.83740917016803 2.6838793146203486
v -46.88607406616213 141.800107700573 4.820879076492026
v -46.98345184326174 141.8747492536384 0.5446673653127936
v -46.88607406616213 141.91205072323348 -1.5923323965588838
v -46.240386962890646 142.00137167388257 -6.7095262320683435
v -46.40018081665041 141.98622857691674 -5.841978787926241
v -46.01267623901369 142.02295117126016 -7.945814808841098
v -43.51995468139651 142.1656335017065 -16.120080045501357
v -42.66756057739261 142.19988231144225 -18.082193041159968
v -42.57057571411136 142.20333921863087 -18.280239121356914
v -41.72672653198245 142.23341856202688 -20.003483550394098
v -41.186588287353544 142.25063985110523 -20.990090540923507
v -40.69940948486331 142.26617264862142 -21.879963914644765
v -39.64503479003909 142.29643254517242 -23.61355222700281
v -39.5877380371094 142.29807683050487 -23.70775327060851
v -38.394020080566435 142.3290648649084 -25.483056572597924
v -37.120712280273466 142.35907257290813 -27.20219701252993
v -37.92146301269534 142.3402014394308 -26.12107049968638
v -34.02233886718753 142.42168077748448 -30.789018650480582
v -34.34609985351565 142.41590041349937 -30.457861819562243
v -35.77047348022464 142.38803777284969 -28.861612205809507
v -36.04885482788089 142.38206603716696 -28.519491697676628
v -32.85053253173831 142.4426027071955 -31.98763520086685
v -27.96840286254886 142.51520691230795 -36.14712732598966
v -26.220462799072298 142.53674027276207 -37.38077272018817
v -27.12146568298343 142.52564058114814 -36.7448718135126
v -21.938608169555696 142.58119988935928 -39.92786244916007
v -22.565277099609407 142.57553290370123 -39.60320105824741
v -24.41817665100101 142.55686282867822 -38.5335931765355
v -24.585376739501985 142.5549960475331 -38.42664535635962
v -20.665611267089876 142.5927117508045 -40.58737654965549
v -19.203697204589876 142.60449144607807 -41.26223483990011
v -16.741802215576204 142.62245681787635 -42.29147030090726
v -18.72311019897464 142.60836388516816 -41.48408672678849
v -12.67927169799808 142.64585136712125 -43.631743129515066
v -13.502082824707065 142.6414729531131 -43.380903958984156
v -14.725795745849643 142.63496125564444 -43.00784906085354
v -10.606464385986362 142.6551045165868 -44.16185570736046
v -8.51166915893558 142.66270166340604 -44.597095957136844
v -7.5752372741699565 142.66532827241164 -44.74757428628802
v -6.39923477172855 142.66862689599924 -44.936552305056004
v -4.558395385742222 142.672299608148 -45.146961843138115
v -4.2735404968262065 142.6728679644474 -45.17952295372447
v -2.1389846801758154 142.67541614734074 -45.32550825391105
v -3.4165507011729916e-14 142.67626611862744 -45.37420307631424
v -1.5215797424316748 142.67566147860035 -45.33956327236141
v 4.273544311523403 142.6728679644474 -45.17952295372447
v 4.558395385742153 142.672299608148 -45.146961843138115
v 6.399238586425747 142.66862689599924 -44.936552305056004
v 7.575241088867153 142.66532827241164 -44.74757428628802
v 8.511672973632779 142.66270166340604 -44.597095957136844
v 10.563278198242154 142.65526116908447 -44.17083032294084
v 10.606464385986294 142.6551045165868 -44.16185570736046
v 14.725803375244107 142.63496125564444 -43.007849060853545
v 19.203701019287077 142.60449144607807 -41.26223483990012
v 18.723110198974577 142.60836388516816 -41.4840867267885
v 16.74180221557614 142.62245681787635 -42.291470300907264
v 16.388515472412077 142.6246480887255 -42.41700812377705
v 24.418178558349577 142.55686282867822 -38.53359317653551
v 26.220462799072234 142.53674027276207 -37.38077272018818
v 24.58537673950192 142.5549960475331 -38.426645356359636
v 27.968402862548796 142.51520691230795 -36.14712732598967
v 27.121463775634734 142.52564058114814 -36.74487181351262
v 31.851062774658175 142.45889336859068 -32.92092656713349
v 31.28687667846677 142.46808932957535 -33.44776281910402
v 32.85053634643552 142.44260270719553 -31.98763520086687
v 34.02234268188474 142.4216807774845 -30.7890186504806
v 37.120716094970675 142.35907257290813 -27.202197012529947
v 34.34610366821286 142.4159004134994 -30.45786181956226
v 39.58774185180661 142.2980768305049 -23.707753270608528
v 39.6450386047363 142.29643254517245 -23.613552227002828
v 40.69941329956052 142.26617264862145 -21.879963914644783
v 41.18658828735349 142.25063985110523 -20.990090540923525
v 41.72672653198239 142.23341856202694 -20.003483550394115
v 42.57058334350583 142.2033392186309 -18.280239121356935
v 42.66756057739255 142.19988231144228 -18.08219304115999
v 45.52980422973631 142.05932790511682 -10.029836495739797
v 45.609447479248026 142.05332824095012 -9.686115965832176
v 46.01267623901365 142.02295117126016 -7.94581480884112
v 46.24039077758787 142.0013716738826 -6.709526232068366
v 46.69150924682615 141.94923615147565 -3.722684153774145
v 46.40018081665037 141.9862285769168 -5.841978787926263
v 46.88607406616209 141.9120507232335 -1.5923323965589065
v 46.6935234069824 141.94885294205085 -3.7007301005311937
v 46.98345565795896 141.87474925363847 0.5446673653127709
v 46.92824172973631 141.89589987069732 -0.6670506744566667
v 46.98345565795896 141.8374091701681 2.683879314620326
v 46.69150924682615 141.76292227233088 6.951230833707241
v 46.48727798461912 141.73698892735894 8.436951172107737
v 46.01267623901365 141.68920731912198 11.174357674657948
v 46.40018081665037 141.7259299134654 9.070521653743091
v 45.52980422973631 141.6528305186897 13.258383175672893
v 45.952953338623026 141.68470760428477 11.43214616503053
v 44.95256423950193 141.61687507552801 15.318269134822891
v 45.21440505981443 141.6331845778313 14.383898373652212
v 42.667560577392564 141.51227614565207 21.31073781403495
v 44.28215408325194 141.58141535463477 17.349755184235743
v 44.302883148193345 141.58251185554275 17.286936689289355
v 41.90129470825194 141.48496255436413 22.875532410919263
v 41.72672653198241 141.4787398617796 23.23203023032722
v 40.69941329956053 141.44598584176072 25.108506780461617
v 38.39402389526366 141.3830935588981 28.711603252531045
v 38.8001136779785 141.39363554631615 28.10765319783884
v 39.587741851806626 141.4140815933016 26.93629995054163
v 40.43584060668944 141.43842138358423 25.541874299150045
v 35.770481109619126 141.32412071753245 32.090155071626356
v 35.05094528198241 141.31004569367332 32.89651264846883
v 34.346103668212876 141.2962580103071 33.68640849949536
v 32.95844650268553 141.27148254898978 35.10579372774968
v 32.85053634643553 141.26955571661097 35.21618188079997
v 31.286876678466783 141.24406909423118 36.676309499037124
v 27.968402862548817 141.19695151149853 39.375674005922775
v 28.351673126220692 141.2021448114274 39.07815005226231
v 29.658382415771474 141.2198510042315 38.06376294588943
v 30.716083526611314 141.2355805660727 37.16261695153587
v 26.220462799072255 141.17541815104443 40.60931940012129
v 25.86746597290038 141.17147700588652 40.83510745499902
v 24.4181785583496 141.15529552855264 41.762143670584884
v 23.272037506103505 141.1437470505015 42.42375553502812
v 20.6656150817871 141.119446673002 43.815923229588606
v 22.56528091430663 141.1366255866809 42.831743924064256
v 18.7231101989746 141.10379460521398 44.712629592605346
v 16.74180221557616 141.08970160593012 45.52001698084038
v 17.803958892822255 141.09725674351603 45.08718343842958
v 10.606464385986316 141.05705384064404 47.390406201409846
v 6.39923858642577 141.04353152780726 48.16509898498912
v 4.273544311523426 141.03929052593475 48.40806581954132
v 6.0705566406249885 141.04287589083447 48.202660402003815
v 2.1389884948730358 141.03674227646576 48.55405493384417
v 3.0412101745605358 141.0378194704361 48.49234253261572
v 1.9114151000976425 146.12751572371678 43.6473342226819
v 23.430797576904265 147.46792463713322 -33.14464099647251
v 26.502941131591765 147.42821912092086 -30.869913496136107
v 21.820262908935515 147.48590625338943 -34.17480710184923
v 13.159080505371062 147.55569564014183 -38.1730383911291
v 7.606090545654263 147.58048461631552 -39.59319788498596
v 9.478012084960904 147.5736958310036 -39.204268634944796
v -3.416657588680486e-14 147.59260591123444 -40.28762640580557
v 5.71840667724606 147.5857794441062 -39.89653836595628
v -3.8188629150390967 147.5895693293939 -40.1136607486714
v -1.9114112854004248 147.59184641625217 -40.24411496741161
v -9.478008270263706 147.5736958310036 -39.204268634944796
v -7.606086730957065 147.58048461631552 -39.59319788498596
v -5.7184066772461275 147.5857794441062 -39.89653836595628
v -14.960597991943391 147.54452151695443 -37.532873302465056
v -13.15907669067386 147.55569564014183 -38.17303839112909
v -11.330287933349643 147.56542713563192 -38.73055539436548
v -20.16449356079105 147.5025899774051 -35.130617010566574
v -18.466938018798864 147.51794118984378 -36.0100873821648
v -16.731105804443395 147.53192806754618 -36.81139506906745
v -24.992767333984407 147.4486822778476 -32.04224697131437
v -23.430793762207063 147.46792463713322 -33.144640996472496
v -21.82025718688968 147.48590625338943 -34.17480710184922
v -29.355470657348665 147.38380261205515 -28.325293407448214
v -33.17133331298831 147.309159494462 -24.048992064536666
v -31.964756011962923 147.3350430075621 -25.53185753691
v -30.69191932678226 147.35994123437268 -26.9582759955639
v -36.36928558349612 147.22614349060945 -19.293008389085205
v -38.8897399902344 147.13630095305302 -14.145932859668186
v -38.128036499023466 147.16690594447084 -15.89929164370532
v -37.28730010986331 147.19687413982405 -17.61616840563182
v -41.1172561645508 147.00879900193485 -6.841350972260532
v -39.57084655761721 147.10512264545008 -12.35972881338267
v -41.46353530883791 146.97598346601802 -4.961350178693805
v -41.46353530883791 146.74337867395087 8.36456943396411
v -40.68575668334963 146.67805657969552 12.106869707494274
v -41.1172561645508 146.71056313803408 10.244570227530836
v -38.88973999023439 146.5830611869159 17.54915211493849
v -39.57084655761721 146.6142394279432 15.762951882769244
v -35.375888824462905 146.46470886013202 24.329552375298668
v -36.36928558349611 146.49321854949602 22.69623336552991
v -37.287300109863295 146.5224880001449 21.019387660902122
v -31.96475601196291 146.38431916569465 28.935074885122166
v -29.35547065734865 146.3355595612016 31.728510755660384
v -30.691919326782244 146.35942093888406 30.361493343776065
v -23.43079376220705 146.25143750283573 36.5478602517428
v -18.466938018798842 146.20142095012517 39.4133066374351
v -14.960597991943374 146.17484062301452 40.93609255773534
v -16.731105804443374 146.18743407242277 40.21461432433774
v 18.361843109130845 150.3369158713187 45.07137995903677
v -31.897464752197283 151.32053313937885 32.633008224287764
v -37.92562484741213 151.45685223604966 24.823292406478796
v -36.861709594726584 151.4277661347329 26.48963403490243
v -43.90998077392581 151.74715241596562 8.19200623769043
v -44.37178039550784 151.8502921408081 2.2831353588569345
v -44.15167236328128 151.78140112583787 6.2298989632062245
v -44.041759490966825 151.95358572197108 -3.634549942673654
v -44.23967361450198 151.91925146239228 -1.6675415287840973
v -44.34975051879886 151.8847974998 0.3063246661566792
v -38.429470062255895 152.24614071919137 -20.395014508310332
v -35.12931060791019 152.33207952710353 -25.31844551619266
v -36.30216598510746 152.30429854148502 -23.72687391604355
v -37.40295028686527 152.27563329812153 -22.08464322361285
v -31.202266693115266 152.4095747787069 -29.75814550711579
v -32.57682800292972 152.38476995752922 -28.337078253586952
v -33.88670730590824 152.35892109705344 -26.856198028731505
v -26.718418121337923 152.47724359794745 -33.634889565003284
v -28.27015304565433 152.45585756940037 -32.40968481010753
v -29.765756607055696 152.43328636118335 -31.11658115739541
v -21.757778167724645 152.53387836916207 -36.87949343485621
v -23.458995819091832 152.51629281143056 -35.872017507162305
v -16.40887069702152 152.57846854060324 -39.434062645831126
v -18.229211807251012 152.56499715813652 -38.66228766119745
v -20.01336288452152 152.5501239588441 -37.81020264440888
v -10.76714706420902 152.61021826698538 -41.25300325205137
v -12.67412948608402 152.60110159759643 -40.73070961255692
v -14.555950164794957 152.59051134283422 -40.12399432356987
v -4.933277130126989 152.62856112270285 -42.30386475230235
v -6.892871856689489 152.6239617441219 -42.04036652987545
v -8.838783264160192 152.61784344215204 -41.68984924477691
v 0.988616943359339 152.6331696887231 -42.56788932277435
v -0.988616943359411 152.6331696887231 -42.56788932277435
v -2.9638900756836297 152.63163252360684 -42.47982519224508
v 4.933280944824183 152.62856112270285 -42.30386475230235
v 2.9638938903808234 152.63163252360684 -42.47982519224508
v 12.674133300781214 152.60110159759643 -40.73070961255693
v 10.767147064208949 152.61021826698538 -41.25300325205137
v 8.83878326416012 152.61784344215204 -41.68984924477691
v 18.229213714599574 152.56499715813652 -38.66228766119747
v 16.40887069702145 152.57846854060324 -39.43406264583113
v 14.555950164794886 152.59051134283422 -40.123994323569875
v 25.113636016845668 152.49740203813735 -34.78976583001948
v 20.01337051391598 152.5501239588441 -37.810202644408896
v 28.270153045654265 152.45585756940037 -32.40968481010754
v 26.71841812133786 152.47724359794745 -33.6348895650033
v 32.57683181762692 152.38476995752922 -28.337078253586967
v 29.765758514404265 152.43328636118338 -31.116581157395423
v 36.302165985107386 152.30429854148508 -23.72687391604357
v 35.129314422607386 152.3320795271036 -25.318445516192675
v 33.88670730590817 152.35892109705347 -26.85619802873152
v 41.043857574462855 152.15329195828951 -15.075712558777726
v 38.429470062255824 152.24614071919137 -20.395014508310354
v 37.4029502868652 152.2756332981216 -22.08464322361287
v 41.754489898681605 152.12109018326345 -13.230874103092646
v 43.38418197631833 152.02162257138886 -7.532378435294844
v 42.92581558227536 152.05519007923982 -9.455459672117154
v 42.38222885131833 152.08836785325258 -11.356213072302175
f 1 2 3
f 3 2 4
f 3 4 5
f 5 4 6
f 5 6 7
f 7 6 8
f 7 8 9
f 9 8 10
f 9 10 11
f 11 10 12
f 11 12 13
f 13 12 14
f 13 14 15
f 15 14 16
f 15 16 17
f 17 16 18
f 17 18 19
f 19 18 20
f 19 20 21
f 21 20 22
f 21 22 23
f 23 22 24
f 23 24 25
f 25 24 26
f 25 26 27
f 27 26 28
f 27 28 29
f 29 28 30
f 29 30 31
f 31 30 32
f 31 32 33
f 33 32 34
f 33 34 35
f 35 34 36
f 35 36 37
f 37 36 38
f 37 38 39
f 39 38 40
f 39 40 41
f 41 40 42
f 41 42 43
f 43 42 44
f 43 44 45
f 45 44 46
f 45 46 47
f 47 46 48
f 47 48 49
f 49 48 50
f 49 50 51
f 51 50 52
f 51 52 53
f 53 52 54
f 53 54 55
f 55 54 56
f 55 56 57
f 57 56 58
f 57 58 59
f 59 58 60
f 59 60 61
f 61 60 62
f 61 62 63
f 63 62 64
f 63 64 65
f 65 64 66
f 65 66 67
f 67 66 68
f 67 68 69
f 69 68 70
f 69 70 71
f 71 70 72
f 71 72 73
f 73 72 74
f 73 74 75
f 75 74 76
f 75 76 77
f 77 76 78
f 77 78 79
f 79 78 80
f 79 80 81
f 81 80 82
f 81 82 83
f 83 82 84
f 83 84 85
f 85 84 86
f 85 86 87
f 87 86 88
f 87 88 89
f 89 88 90
f 89 90 91
f 91 90 92
f 91 92 93
f 93 92 94
f 93 94 95
f 95 94 96
f 95 96 97
f 97 96 98
f 97 98 99
f 99 98 100
f 99 100 101
f 101 100 102
f 101 102 103
f 103 102 104
f 103 104 105
f 105 104 106
f 105 106 107
f 107 106 108
f 107 108 109
f 109 108 110
f 109 110 111
f 111 110 112
f 111 112 113
f 113 112 114
f 113 114 115
f 115 114 116
f 115 116 117
f 117 116 118
f 117 118 119
f 119 118 120
f 119 120 121
f 121 120 122
f 121 122 123
f 123 122 124
f 123 124 125
f 125 124 126
f 125 126 127
f 127 126 128
f 127 128 129
f 129 128 130
f 129 130 131
f 131 130 132
f 131 132 133
f 133 132 134
f 133 134 135
f 135 134 136
f 135 136 137
f 137 136 138
f 137 138 139
f 139 138 140
f 139 140 141
f 141 140 142
f 141 142 143
f 143 142 144
f 143 144 145
f 145 144 146
f 145 146 147
f 147 146 148
f 147 148 149
f 149 148 150
f 149 150 151
f 151 150 152
f 151 152 153
f 153 152 154
f 153 154 155
f 155 154 156
f 155 156 157
f 157 156 158
f 157 158 159
f 159 158 160
f 159 160 161
f 161 160 162
f 161 162 163
f 163 162 164
f 163 164 165
f 165 164 166
f 165 166 167
f 167 166 168
f 167 168 169
f 169 168 170
f 169 170 171
f 171 170 172
f 171 172 173
f 173 172 174
f 173 174 175
f 175 174 176
f 175 176 177
f 177 176 178
f 177 178 179
f 179 178 180
f 179 180 181
f 181 180 182
f 181 182 183
f 183 182 184
f 183 184 185
f 185 184 186
f 185 186 187
f 187 186 188
f 187 188 189
f 189 188 190
f 189 190 191
f 191 190 192
f 191 192 193
f 193 192 194
f 193 194 195
f 195 194 196
f 195 196 197
f 197 196 198
f 197 198 199
f 199 198 200
f 199 200 1
f 1 200 2
f 201 35 202
f 202 35 37
f 202 37 203
f 203 37 39
f 203 39 204
f 204 39 41
f 204 41 205
f 205 41 43
f 205 43 206
f 206 43 45
f 206 45 207
f 207 45 47
f 207 47 208
f 208 47 49
f 208 49 209
f 209 49 51
f 209 51 210
f 210 51 53
f 210 53 211
f 211 53 55
f 211 55 212
f 212 55 57
f 212 57 213
f 213 57 59
f 213 59 214
f 214 59 61
f 214 61 215
f 215 61 63
f 215 63 216
f 216 63 65
f 216 65 217
f 217 65 67
f 217 67 218
f 218 67 69
f 218 69 219
f 219 69 71
f 219 71 220
f 220 71 73
f 220 73 221
f 221 73 75
f 221 75 222
f 222 75 77
f 222 77 223
f 223 77 79
f 223 79 224
f 224 79 81
f 224 81 225
f 225 81 83
f 225 83 226
f 226 83 85
f 226 85 227
f 227 85 87
f 227 87 228
f 228 87 89
f 228 89 229
f 229 89 91
f 229 91 230
f 230 91 93
f 230 93 231
f 231 93 95
f 231 95 232
f 232 95 97
f 232 97 233
f 233 97 99
f 233 99 234
f 99 101 234
f 234 101 103
f 234 103 235
f 235 103 105
f 235 105 236
f 236 105 107
f 236 107 237
f 237 107 109
f 237 109 238
f 238 109 111
f 238 111 239
f 239 111 113
f 239 113 240
f 240 113 115
f 240 115 241
f 241 115 117
f 241 117 242
f 242 117 119
f 242 119 243
f 243 119 121
f 243 121 244
f 244 121 123
f 244 123 245
f 245 123 125
f 245 125 246
f 246 125 127
f 246 127 247
f 247 127 129
f 247 129 248
f 248 129 131
f 248 131 249
f 249 131 133
f 249 133 250
f 250 133 135
f 250 135 251
f 251 135 137
f 251 137 252
f 252 137 139
f 252 139 253
f 253 139 141
f 253 141 254
f 254 141 143
f 254 143 255
f 255 143 145
f 255 145 256
f 256 145 147
f 256 147 257
f 257 147 149
f 257 149 258
f 258 149 151
f 258 151 259
f 259 151 153
f 259 153 260
f 260 153 155
f 260 155 261
f 261 155 157
f 261 157 262
f 262 157 159
f 262 159 263
f 263 159 161
f 263 161 264
f 264 161 163
f 264 163 265
f 265 163 165
f 265 165 266
f 165 167 266
f 266 167 169
f 266 169 267
f 267 169 171
f 267 171 268
f 268 171 173
f 268 173 269
f 269 173 175
f 269 175 270
f 270 175 177
f 270 177 271
f 271 177 179
f 271 179 272
f 272 179 181
f 272 181 273
f 273 181 183
f 273 183 274
f 274 183 185
f 274 185 275
f 275 185 187
f 275 187 276
f 276 187 189
f 276 189 277
f 277 189 191
f 277 191 278
f 278 191 193
f 278 193 279
f 279 193 195
f 279 195 280
f 280 195 197
f 280 197 281
f 281 197 199
f 281 199 282
f 282 199 1
f 282 1 283
f 283 1 3
f 283 3 284
f 284 3 5
f 284 5 285
f 285 5 7
f 285 7 286
f 286 7 9
f 286 9 287
f 287 9 11
f 287 11 288
f 288 11 13
f 288 13 289
f 289 13 15
f 289 15 290
f 290 15 17
f 290 17 291
f 291 17 19
f 291 19 292
f 292 19 21
f 292 21 293
f 293 21 23
f 293 23 294
f 294 23 25
f 294 25 295
f 295 25 27
f 295 27 296
f 296 27 29
f 296 29 297
f 297 29 31
f 297 31 201
f 201 31 33
f 201 33 35
f 282 283 298
f 284 299 283
f 283 299 300
f 283 300 298
f 285 301 284
f 284 301 302
f 284 302 299
f 301 285 303
f 303 285 286
f 303 286 304
f 287 305 286
f 286 305 306
f 286 306 304
f 288 307 287
f 287 307 305
f 289 308 288
f 288 308 309
f 288 309 307
f 310 311 290
f 290 311 312
f 290 312 289
f 289 312 313
f 289 313 308
f 310 290 314
f 314 290 291
f 314 291 315
f 315 291 316
f 316 291 292
f 317 318 293
f 293 318 319
f 293 319 292
f 292 319 316
f 317 293 320
f 320 293 294
f 320 294 321
f 321 294 322
f 322 294 295
f 322 295 323
f 323 295 324
f 324 295 296
f 324 296 325
f 325 296 326
f 326 296 297
f 326 297 327
f 201 328 297
f 297 328 329
f 297 329 327
f 328 201 330
f 330 201 202
f 330 202 203
f 204 330 203
f 205 331 204
f 204 331 330
f 206 331 205
f 207 332 333
f 207 333 206
f 206 333 334
f 206 334 331
f 332 207 335
f 335 207 208
f 335 208 336
f 209 337 208
f 208 337 338
f 208 338 336
f 210 339 209
f 209 339 337
f 211 340 210
f 210 340 339
f 341 342 212
f 212 342 340
f 212 340 211
f 341 212 343
f 343 212 213
f 343 213 214
f 343 214 344
f 215 344 214
f 344 215 345
f 345 215 216
f 345 216 346
f 346 216 347
f 347 216 217
f 347 217 348
f 348 217 349
f 349 217 218
f 349 218 350
f 350 218 351
f 351 218 219
f 351 219 352
f 220 353 219
f 219 353 354
f 219 354 352
f 355 356 221
f 221 356 357
f 221 357 220
f 220 357 358
f 220 358 353
f 355 221 359
f 359 221 222
f 359 222 360
f 223 360 222
f 224 360 223
f 225 361 224
f 224 361 362
f 224 362 360
f 363 364 226
f 226 364 365
f 226 365 225
f 225 365 366
f 225 366 361
f 363 226 367
f 367 226 227
f 367 227 368
f 228 369 227
f 227 369 370
f 227 370 368
f 371 372 229
f 229 372 373
f 229 373 228
f 228 373 369
f 371 229 374
f 374 229 230
f 374 230 375
f 375 230 231
f 375 231 376
f 376 231 377
f 377 231 232
f 377 232 378
f 378 232 379
f 379 232 233
f 379 233 380
f 234 381 233
f 233 381 382
f 233 382 380
f 381 234 383
f 383 234 235
f 383 235 384
f 384 235 385
f 385 235 236
f 385 236 386
f 386 236 387
f 387 236 237
f 387 237 388
f 388 237 389
f 389 237 238
f 389 238 390
f 239 390 238
f 391 392 240
f 240 392 393
f 240 393 239
f 239 393 394
f 239 394 390
f 391 240 241
f 242 395 241
f 241 395 391
f 243 396 242
f 242 396 397
f 242 397 395
f 244 398 243
f 243 398 399
f 243 399 396
f 400 401 245
f 245 401 244
f 244 401 398
f 400 245 402
f 402 245 246
f 402 246 403
f 247 404 246
f 246 404 405
f 246 405 403
f 248 406 404
f 248 404 247
f 406 248 249
f 406 249 407
f 407 249 408
f 408 249 250
f 408 250 409
f 409 250 410
f 410 250 251
f 410 251 411
f 411 251 412
f 412 251 252
f 253 412 252
f 412 253 413
f 413 253 254
f 413 254 414
f 414 254 415
f 415 254 255
f 415 255 416
f 256 417 255
f 255 417 418
f 255 418 416
f 257 419 256
f 256 419 420
f 256 420 417
f 258 421 257
f 257 421 422
f 257 422 419
f 259 424 423
f 259 423 258
f 258 423 421
f 424 259 260
f 424 260 425
f 261 426 260
f 260 426 427
f 260 427 425
f 262 428 261
f 261 428 429
f 261 429 426
f 263 430 262
f 262 430 431
f 262 431 428
f 264 432 433
f 264 433 263
f 263 433 434
f 263 434 430
f 432 264 265
f 432 265 435
f 435 265 436
f 436 265 266
f 436 266 437
f 438 439 267
f 267 439 440
f 267 440 266
f 266 440 441
f 266 441 437
f 438 267 268
f 438 268 442
f 442 268 269
f 442 269 443
f 443 269 444
f 444 269 270
f 444 270 445
f 445 270 446
f 446 270 271
f 446 271 447
f 448 449 272
f 272 449 450
f 272 450 271
f 271 450 451
f 271 451 447
f 448 272 452
f 452 272 273
f 452 273 453
f 453 273 454
f 454 273 274
f 454 274 455
f 275 456 274
f 274 456 457
f 274 457 455
f 276 458 275
f 275 458 456
f 277 459 276
f 276 459 460
f 276 460 458
f 278 461 459
f 278 459 277
f 461 278 279
f 280 462 279
f 279 462 461
f 281 463 280
f 280 463 464
f 280 464 462
f 282 298 465
f 282 465 281
f 281 465 466
f 281 466 463
f 438 458 467
f 468 469 438
f 438 471 470
f 438 470 468
f 472 473 438
f 438 473 471
f 438 474 475
f 438 475 472
f 476 477 438
f 438 477 474
f 478 479 438
f 438 479 480
f 438 480 476
f 481 482 438
f 438 482 483
f 438 483 478
f 484 485 438
f 438 485 486
f 438 486 481
f 487 488 438
f 438 488 489
f 438 489 484
f 438 490 487
f 491 492 438
f 438 492 493
f 438 493 490
f 438 494 491
f 495 496 438
f 438 496 497
f 438 497 494
f 498 499 438
f 438 499 495
f 501 500 438
f 438 500 498
f 438 502 503
f 438 503 501
f 438 504 505
f 438 505 502
f 506 507 438
f 438 507 508
f 438 508 504
f 509 506 438
f 438 510 511
f 438 511 509
f 438 512 510
f 513 512 438
f 467 514 438
f 438 514 515
f 438 515 513
f 516 519 517
f 518 519 516
f 516 520 518
f 516 521 522
f 516 522 520
f 523 524 516
f 516 524 525
f 516 525 521
f 516 526 523
f 527 528 516
f 516 528 529
f 516 529 526
f 530 531 516
f 516 531 532
f 516 532 527
f 533 534 516
f 516 534 535
f 516 535 530
f 536 537 516
f 516 537 533
f 538 539 516
f 516 539 540
f 516 540 536
f 541 542 516
f 516 542 543
f 516 543 538
f 544 545 516
f 516 545 546
f 516 546 541
f 547 548 516
f 516 548 549
f 516 549 544
f 516 550 551
f 516 551 547
f 552 553 516
f 516 553 554
f 516 554 550
f 555 556 516
f 516 556 557
f 516 557 552
f 558 559 516
f 516 559 555
f 560 561 516
f 516 561 558
f 562 563 516
f 516 563 560
f 564 565 516
f 516 565 566
f 516 566 562
f 567 568 516
f 516 568 569
f 516 569 564
f 570 567 516
f 571 572 516
f 516 572 573
f 516 573 570
f 516 160 571
f 100 98 102
f 94 98 96
f 64 60 66
f 66 60 70
f 66 70 68
f 72 70 74
f 74 70 76
f 50 48 52
f 52 48 54
f 22 20 24
f 92 90 94
f 94 90 98
f 86 84 90
f 86 90 88
f 78 76 80
f 80 76 84
f 80 84 82
f 44 48 46
f 40 34 42
f 42 34 48
f 42 48 44
f 12 10 14
f 6 10 8
f 200 198 2
f 2 198 4
f 4 198 6
f 6 198 10
f 62 60 64
f 54 48 56
f 58 56 60
f 36 34 38
f 38 34 40
f 24 20 26
f 26 20 32
f 26 32 28
f 28 32 30
f 16 14 18
f 18 14 20
f 192 190 194
f 194 190 196
f 196 190 198
f 186 190 188
f 176 182 178
f 178 182 180
f 156 160 158
f 152 156 154
f 118 122 120
f 112 118 114
f 114 118 116
f 182 190 184
f 184 190 186
f 172 170 174
f 174 170 176
f 162 160 170
f 162 170 164
f 164 170 166
f 108 112 110
f 166 170 168
f 148 146 156
f 148 156 150
f 150 156 152
f 104 102 112
f 104 112 106
f 106 112 108
f 142 146 144
f 130 128 132
f 136 134 138
f 138 134 142
f 138 142 140
f 132 128 134
f 122 128 124
f 124 128 126
f 465 298 458
f 305 307 306
f 301 303 306
f 302 301 299
f 304 306 303
f 307 309 308
f 308 313 306
f 306 313 312
f 306 312 311
f 311 310 314
f 314 315 316
f 320 316 319
f 319 318 320
f 320 318 317
f 320 321 322
f 322 323 328
f 323 324 328
f 328 324 325
f 328 325 326
f 328 326 327
f 327 329 328
f 330 331 328
f 328 331 334
f 328 334 332
f 332 334 333
f 332 335 338
f 335 336 338
f 342 337 339
f 342 339 340
f 342 341 343
f 343 344 345
f 345 346 349
f 349 346 347
f 349 347 348
f 349 350 351
f 349 351 352
f 352 354 360
f 360 354 353
f 360 353 357
f 353 358 357
f 356 355 359
f 362 361 360
f 360 361 366
f 360 366 365
f 360 365 364
f 364 363 360
f 360 363 367
f 360 367 370
f 367 368 370
f 370 369 475
f 475 369 373
f 475 373 371
f 373 372 371
f 371 374 475
f 475 374 375
f 375 376 377
f 377 378 379
f 379 380 381
f 381 380 382
f 381 383 384
f 381 384 385
f 387 385 386
f 387 388 390
f 390 388 389
f 390 394 393
f 391 395 397
f 391 397 396
f 398 396 399
f 398 401 406
f 401 400 402
f 402 403 405
f 405 404 406
f 406 407 408
f 408 409 412
f 409 410 412
f 412 410 411
f 413 414 412
f 412 414 415
f 415 416 412
f 412 416 418
f 418 417 412
f 412 417 420
f 412 420 419
f 419 422 421
f 421 423 424
f 432 424 427
f 424 425 427
f 426 429 432
f 432 429 428
f 432 428 431
f 431 430 432
f 432 430 434
f 432 434 433
f 432 435 436
f 437 441 432
f 432 441 440
f 432 440 438
f 440 439 438
f 438 442 444
f 444 442 443
f 444 445 446
f 446 447 438
f 438 447 451
f 438 451 450
f 438 450 448
f 450 449 448
f 452 453 454
f 454 455 457
f 457 456 458
f 458 460 459
f 459 461 458
f 458 461 462
f 462 464 463
f 465 463 466
f 465 458 463
f 463 458 462
f 457 458 454
f 454 458 452
f 452 458 438
f 452 438 448
f 446 438 444
f 437 432 436
f 426 432 427
f 421 424 419
f 419 424 412
f 408 412 406
f 405 406 402
f 402 406 401
f 398 406 391
f 398 391 396
f 392 391 390
f 392 390 393
f 387 390 391
f 387 391 385
f 385 391 381
f 379 381 377
f 377 381 375
f 375 381 475
f 370 475 360
f 359 360 356
f 356 360 357
f 352 360 349
f 345 349 343
f 337 342 338
f 338 342 501
f 338 501 332
f 322 328 320
f 314 316 320
f 314 320 311
f 311 320 306
f 391 475 381
f 360 343 349
f 332 501 328
f 412 424 469
f 342 343 501
f 432 438 424
f 412 469 406
f 360 494 343
f 501 343 494
f 475 490 360
f 360 490 494
f 391 473 475
f 501 502 328
f 475 478 490
f 406 469 391
f 391 469 471
f 391 471 473
f 475 476 478
f 478 481 484
f 478 484 490
f 490 493 494
f 494 497 499
f 501 503 502
f 502 504 506
f 502 506 328
f 328 506 509
f 328 509 510
f 328 510 320
f 320 512 467
f 300 299 298
f 298 299 458
f 299 301 458
f 301 306 458
f 306 467 458
f 306 320 467
f 307 308 306
f 467 512 515
f 467 515 514
f 424 438 469
f 469 468 471
f 471 468 470
f 475 473 472
f 475 474 476
f 476 474 477
f 476 480 478
f 478 480 479
f 478 483 481
f 481 483 482
f 481 486 484
f 484 486 485
f 484 489 488
f 484 488 490
f 490 488 487
f 493 492 491
f 493 491 494
f 497 496 499
f 499 496 495
f 494 499 498
f 494 498 501
f 501 498 500
f 502 505 504
f 504 508 507
f 504 507 506
f 509 511 510
f 510 512 320
f 512 513 515
f 573 572 567
f 573 567 570
f 567 563 568
f 568 563 564
f 568 564 569
f 565 564 566
f 566 564 563
f 566 563 562
f 560 563 558
f 560 558 561
f 556 555 557
f 552 557 553
f 553 557 550
f 553 550 554
f 551 550 548
f 551 548 547
f 548 544 549
f 545 544 541
f 545 541 546
f 542 541 543
f 543 541 539
f 543 539 538
f 540 539 536
f 536 539 537
f 533 537 535
f 533 535 534
f 530 535 532
f 530 532 531
f 532 528 527
f 528 526 529
f 526 56 523
f 523 56 525
f 523 525 524
f 522 521 520
f 520 521 518
f 516 182 160
f 572 571 567
f 567 571 563
f 563 559 558
f 555 559 102
f 555 102 557
f 557 102 550
f 550 102 548
f 548 102 544
f 541 544 539
f 539 544 537
f 537 544 84
f 537 84 535
f 535 84 532
f 532 84 528
f 528 84 56
f 528 56 526
f 525 56 521
f 521 56 518
f 544 102 84
f 56 84 70
f 518 56 34
f 518 34 517
f 563 122 559
f 517 34 32
f 84 76 70
f 516 190 182
f 32 14 517
f 122 118 559
f 559 118 102
f 176 160 182
f 571 146 563
f 563 128 122
f 70 60 56
f 56 48 34
f 176 170 160
f 563 142 134
f 118 112 102
f 516 517 198
f 517 10 198
f 517 14 10
f 519 518 517
f 198 190 516
f 571 160 156
f 571 156 146
f 563 146 142
f 134 128 563
f 84 102 98
f 84 98 90
f 32 20 14
